G04 #@! TF.GenerationSoftware,KiCad,Pcbnew,(6.0.0-rc1-dev-1668-g04a478f85)*
G04 #@! TF.CreationDate,2019-04-17T20:28:03-07:00
G04 #@! TF.ProjectId,meson,6d65736f-6e2e-46b6-9963-61645f706362,rev?*
G04 #@! TF.SameCoordinates,Original*
G04 #@! TF.FileFunction,Copper,L1,Top*
G04 #@! TF.FilePolarity,Positive*
%FSLAX46Y46*%
G04 Gerber Fmt 4.6, Leading zero omitted, Abs format (unit mm)*
G04 Created by KiCad (PCBNEW (6.0.0-rc1-dev-1668-g04a478f85)) date 2019-04-17 20:28:03*
%MOMM*%
%LPD*%
G04 APERTURE LIST*
%ADD10C,0.300000*%
%ADD11O,1.700000X1.700000*%
%ADD12R,1.700000X1.700000*%
%ADD13R,1.200000X0.500000*%
%ADD14C,0.500000*%
%ADD15C,0.100000*%
%ADD16C,1.500000*%
%ADD17O,2.250000X3.350000*%
%ADD18C,1.900000*%
%ADD19C,1.900000*%
%ADD20O,2.000000X2.500000*%
%ADD21R,1.100000X1.800000*%
%ADD22R,2.900000X0.500000*%
%ADD23C,1.600000*%
%ADD24R,1.500000X1.200000*%
%ADD25C,2.200000*%
%ADD26C,2.200000*%
%ADD27C,2.250000*%
%ADD28C,2.250000*%
%ADD29O,2.000000X1.600000*%
%ADD30O,1.600000X1.600000*%
%ADD31R,1.600000X1.600000*%
%ADD32R,0.500000X2.900000*%
%ADD33R,1.200000X1.500000*%
%ADD34C,1.752600*%
%ADD35R,1.752600X1.752600*%
%ADD36C,0.800000*%
%ADD37C,0.250000*%
G04 APERTURE END LIST*
D10*
X209420357Y-123449471D02*
X209420357Y-121949471D01*
X209920357Y-123020900D01*
X210420357Y-121949471D01*
X210420357Y-123449471D01*
X211134642Y-122663757D02*
X211634642Y-122663757D01*
X211848928Y-123449471D02*
X211134642Y-123449471D01*
X211134642Y-121949471D01*
X211848928Y-121949471D01*
X212420357Y-123378042D02*
X212634642Y-123449471D01*
X212991785Y-123449471D01*
X213134642Y-123378042D01*
X213206071Y-123306614D01*
X213277499Y-123163757D01*
X213277499Y-123020900D01*
X213206071Y-122878042D01*
X213134642Y-122806614D01*
X212991785Y-122735185D01*
X212706071Y-122663757D01*
X212563214Y-122592328D01*
X212491785Y-122520900D01*
X212420357Y-122378042D01*
X212420357Y-122235185D01*
X212491785Y-122092328D01*
X212563214Y-122020900D01*
X212706071Y-121949471D01*
X213063214Y-121949471D01*
X213277499Y-122020900D01*
X214206071Y-121949471D02*
X214491785Y-121949471D01*
X214634642Y-122020900D01*
X214777499Y-122163757D01*
X214848928Y-122449471D01*
X214848928Y-122949471D01*
X214777499Y-123235185D01*
X214634642Y-123378042D01*
X214491785Y-123449471D01*
X214206071Y-123449471D01*
X214063214Y-123378042D01*
X213920357Y-123235185D01*
X213848928Y-122949471D01*
X213848928Y-122449471D01*
X213920357Y-122163757D01*
X214063214Y-122020900D01*
X214206071Y-121949471D01*
X215491785Y-123449471D02*
X215491785Y-121949471D01*
X216348928Y-123449471D01*
X216348928Y-121949471D01*
X218206071Y-123449471D02*
X218206071Y-121949471D01*
X218777499Y-121949471D01*
X218920357Y-122020900D01*
X218991785Y-122092328D01*
X219063214Y-122235185D01*
X219063214Y-122449471D01*
X218991785Y-122592328D01*
X218920357Y-122663757D01*
X218777499Y-122735185D01*
X218206071Y-122735185D01*
X220563214Y-123449471D02*
X220063214Y-122735185D01*
X219706071Y-123449471D02*
X219706071Y-121949471D01*
X220277499Y-121949471D01*
X220420357Y-122020900D01*
X220491785Y-122092328D01*
X220563214Y-122235185D01*
X220563214Y-122449471D01*
X220491785Y-122592328D01*
X220420357Y-122663757D01*
X220277499Y-122735185D01*
X219706071Y-122735185D01*
X221491785Y-121949471D02*
X221777499Y-121949471D01*
X221920357Y-122020900D01*
X222063214Y-122163757D01*
X222134642Y-122449471D01*
X222134642Y-122949471D01*
X222063214Y-123235185D01*
X221920357Y-123378042D01*
X221777499Y-123449471D01*
X221491785Y-123449471D01*
X221348928Y-123378042D01*
X221206071Y-123235185D01*
X221134642Y-122949471D01*
X221134642Y-122449471D01*
X221206071Y-122163757D01*
X221348928Y-122020900D01*
X221491785Y-121949471D01*
X222563214Y-121949471D02*
X223420357Y-121949471D01*
X222991785Y-123449471D02*
X222991785Y-121949471D01*
X224206071Y-121949471D02*
X224491785Y-121949471D01*
X224634642Y-122020900D01*
X224777499Y-122163757D01*
X224848928Y-122449471D01*
X224848928Y-122949471D01*
X224777499Y-123235185D01*
X224634642Y-123378042D01*
X224491785Y-123449471D01*
X224206071Y-123449471D01*
X224063214Y-123378042D01*
X223920357Y-123235185D01*
X223848928Y-122949471D01*
X223848928Y-122449471D01*
X223920357Y-122163757D01*
X224063214Y-122020900D01*
X224206071Y-121949471D01*
X226491785Y-122449471D02*
X226848928Y-123449471D01*
X227206071Y-122449471D01*
X228563214Y-123449471D02*
X227706071Y-123449471D01*
X228134642Y-123449471D02*
X228134642Y-121949471D01*
X227991785Y-122163757D01*
X227848928Y-122306614D01*
X227706071Y-122378042D01*
X229206071Y-123306614D02*
X229277499Y-123378042D01*
X229206071Y-123449471D01*
X229134642Y-123378042D01*
X229206071Y-123306614D01*
X229206071Y-123449471D01*
X230206071Y-121949471D02*
X230348928Y-121949471D01*
X230491785Y-122020900D01*
X230563214Y-122092328D01*
X230634642Y-122235185D01*
X230706071Y-122520900D01*
X230706071Y-122878042D01*
X230634642Y-123163757D01*
X230563214Y-123306614D01*
X230491785Y-123378042D01*
X230348928Y-123449471D01*
X230206071Y-123449471D01*
X230063214Y-123378042D01*
X229991785Y-123306614D01*
X229920357Y-123163757D01*
X229848928Y-122878042D01*
X229848928Y-122520900D01*
X229920357Y-122235185D01*
X229991785Y-122092328D01*
X230063214Y-122020900D01*
X230206071Y-121949471D01*
D11*
X249301000Y-106680000D03*
X251841000Y-106680000D03*
D12*
X254381000Y-106680000D03*
D13*
X227330000Y-52070000D03*
D14*
X233045000Y-53975000D03*
D15*
G36*
X233584114Y-53827162D02*
G01*
X232839802Y-54494994D01*
X232505886Y-54122838D01*
X233250198Y-53455006D01*
X233584114Y-53827162D01*
X233584114Y-53827162D01*
G37*
G36*
X233660705Y-52291783D02*
G01*
X233719273Y-52297848D01*
X233776964Y-52309625D01*
X233833224Y-52327000D01*
X233887509Y-52349806D01*
X233939298Y-52377822D01*
X233988091Y-52410780D01*
X234033418Y-52448362D01*
X234074844Y-52490206D01*
X234475543Y-52936793D01*
X234512668Y-52982495D01*
X234545135Y-53031617D01*
X234572630Y-53083684D01*
X234594890Y-53138196D01*
X234611699Y-53194627D01*
X234622896Y-53252433D01*
X234628373Y-53311059D01*
X234628078Y-53369940D01*
X234622013Y-53428508D01*
X234610236Y-53486199D01*
X234592861Y-53542458D01*
X234570055Y-53596744D01*
X234542039Y-53648532D01*
X234509081Y-53697326D01*
X234471499Y-53742653D01*
X234429655Y-53784079D01*
X234206362Y-53984428D01*
X234160659Y-54021553D01*
X234111538Y-54054020D01*
X234059471Y-54081515D01*
X234004959Y-54103775D01*
X233948528Y-54120584D01*
X233890722Y-54131781D01*
X233832096Y-54137258D01*
X233773215Y-54136963D01*
X233714647Y-54130898D01*
X233656956Y-54119121D01*
X233600696Y-54101746D01*
X233546411Y-54078940D01*
X233494622Y-54050924D01*
X233445829Y-54017966D01*
X233400502Y-53980384D01*
X233359076Y-53938540D01*
X232958377Y-53491953D01*
X232921252Y-53446251D01*
X232888785Y-53397129D01*
X232861290Y-53345062D01*
X232839030Y-53290550D01*
X232822221Y-53234119D01*
X232811024Y-53176313D01*
X232805547Y-53117687D01*
X232805842Y-53058806D01*
X232811907Y-53000238D01*
X232823684Y-52942547D01*
X232841059Y-52886288D01*
X232863865Y-52832002D01*
X232891881Y-52780214D01*
X232924839Y-52731420D01*
X232962421Y-52686093D01*
X233004265Y-52644667D01*
X233227558Y-52444318D01*
X233273261Y-52407193D01*
X233322382Y-52374726D01*
X233374449Y-52347231D01*
X233428961Y-52324971D01*
X233485392Y-52308162D01*
X233543198Y-52296965D01*
X233601824Y-52291488D01*
X233660705Y-52291783D01*
X233660705Y-52291783D01*
G37*
D16*
X233716960Y-53214373D03*
D17*
X231140000Y-52444167D03*
D18*
X225444995Y-53879996D03*
D19*
X224673129Y-54740255D02*
X226216861Y-53019737D01*
D20*
X228600000Y-51863495D03*
D15*
G36*
X223656802Y-52296965D02*
G01*
X223714608Y-52308162D01*
X223771039Y-52324971D01*
X223825551Y-52347231D01*
X223877618Y-52374726D01*
X223926740Y-52407193D01*
X223972442Y-52444318D01*
X224195735Y-52644667D01*
X224237579Y-52686093D01*
X224275161Y-52731420D01*
X224308119Y-52780213D01*
X224336135Y-52832002D01*
X224358941Y-52886287D01*
X224376316Y-52942547D01*
X224388093Y-53000238D01*
X224394158Y-53058806D01*
X224394453Y-53117687D01*
X224388976Y-53176313D01*
X224377779Y-53234119D01*
X224360970Y-53290550D01*
X224338710Y-53345062D01*
X224311215Y-53397129D01*
X224278748Y-53446250D01*
X224241623Y-53491953D01*
X223840924Y-53938540D01*
X223799498Y-53980384D01*
X223754171Y-54017966D01*
X223705377Y-54050924D01*
X223653589Y-54078940D01*
X223599303Y-54101746D01*
X223543044Y-54119121D01*
X223485353Y-54130898D01*
X223426785Y-54136963D01*
X223367904Y-54137258D01*
X223309278Y-54131781D01*
X223251472Y-54120584D01*
X223195041Y-54103775D01*
X223140529Y-54081515D01*
X223088462Y-54054020D01*
X223039340Y-54021553D01*
X222993638Y-53984428D01*
X222770345Y-53784079D01*
X222728501Y-53742653D01*
X222690919Y-53697326D01*
X222657961Y-53648533D01*
X222629945Y-53596744D01*
X222607139Y-53542459D01*
X222589764Y-53486199D01*
X222577987Y-53428508D01*
X222571922Y-53369940D01*
X222571627Y-53311059D01*
X222577104Y-53252433D01*
X222588301Y-53194627D01*
X222605110Y-53138196D01*
X222627370Y-53083684D01*
X222654865Y-53031617D01*
X222687332Y-52982496D01*
X222724457Y-52936793D01*
X223125156Y-52490206D01*
X223166582Y-52448362D01*
X223211909Y-52410780D01*
X223260703Y-52377822D01*
X223312491Y-52349806D01*
X223366777Y-52327000D01*
X223423036Y-52309625D01*
X223480727Y-52297848D01*
X223539295Y-52291783D01*
X223598176Y-52291488D01*
X223656802Y-52296965D01*
X223656802Y-52296965D01*
G37*
D16*
X223483040Y-53214373D03*
D17*
X226060000Y-52444167D03*
D18*
X231755005Y-53879996D03*
D19*
X232526871Y-54740255D02*
X230983139Y-53019737D01*
D13*
X227330000Y-90170000D03*
D14*
X233045000Y-92075000D03*
D15*
G36*
X233584114Y-91927162D02*
G01*
X232839802Y-92594994D01*
X232505886Y-92222838D01*
X233250198Y-91555006D01*
X233584114Y-91927162D01*
X233584114Y-91927162D01*
G37*
G36*
X233660705Y-90391783D02*
G01*
X233719273Y-90397848D01*
X233776964Y-90409625D01*
X233833224Y-90427000D01*
X233887509Y-90449806D01*
X233939298Y-90477822D01*
X233988091Y-90510780D01*
X234033418Y-90548362D01*
X234074844Y-90590206D01*
X234475543Y-91036793D01*
X234512668Y-91082495D01*
X234545135Y-91131617D01*
X234572630Y-91183684D01*
X234594890Y-91238196D01*
X234611699Y-91294627D01*
X234622896Y-91352433D01*
X234628373Y-91411059D01*
X234628078Y-91469940D01*
X234622013Y-91528508D01*
X234610236Y-91586199D01*
X234592861Y-91642458D01*
X234570055Y-91696744D01*
X234542039Y-91748532D01*
X234509081Y-91797326D01*
X234471499Y-91842653D01*
X234429655Y-91884079D01*
X234206362Y-92084428D01*
X234160659Y-92121553D01*
X234111538Y-92154020D01*
X234059471Y-92181515D01*
X234004959Y-92203775D01*
X233948528Y-92220584D01*
X233890722Y-92231781D01*
X233832096Y-92237258D01*
X233773215Y-92236963D01*
X233714647Y-92230898D01*
X233656956Y-92219121D01*
X233600696Y-92201746D01*
X233546411Y-92178940D01*
X233494622Y-92150924D01*
X233445829Y-92117966D01*
X233400502Y-92080384D01*
X233359076Y-92038540D01*
X232958377Y-91591953D01*
X232921252Y-91546251D01*
X232888785Y-91497129D01*
X232861290Y-91445062D01*
X232839030Y-91390550D01*
X232822221Y-91334119D01*
X232811024Y-91276313D01*
X232805547Y-91217687D01*
X232805842Y-91158806D01*
X232811907Y-91100238D01*
X232823684Y-91042547D01*
X232841059Y-90986288D01*
X232863865Y-90932002D01*
X232891881Y-90880214D01*
X232924839Y-90831420D01*
X232962421Y-90786093D01*
X233004265Y-90744667D01*
X233227558Y-90544318D01*
X233273261Y-90507193D01*
X233322382Y-90474726D01*
X233374449Y-90447231D01*
X233428961Y-90424971D01*
X233485392Y-90408162D01*
X233543198Y-90396965D01*
X233601824Y-90391488D01*
X233660705Y-90391783D01*
X233660705Y-90391783D01*
G37*
D16*
X233716960Y-91314373D03*
D17*
X231140000Y-90544167D03*
D18*
X225444995Y-91979996D03*
D19*
X224673129Y-92840255D02*
X226216861Y-91119737D01*
D20*
X228600000Y-89963495D03*
D15*
G36*
X223656802Y-90396965D02*
G01*
X223714608Y-90408162D01*
X223771039Y-90424971D01*
X223825551Y-90447231D01*
X223877618Y-90474726D01*
X223926740Y-90507193D01*
X223972442Y-90544318D01*
X224195735Y-90744667D01*
X224237579Y-90786093D01*
X224275161Y-90831420D01*
X224308119Y-90880213D01*
X224336135Y-90932002D01*
X224358941Y-90986287D01*
X224376316Y-91042547D01*
X224388093Y-91100238D01*
X224394158Y-91158806D01*
X224394453Y-91217687D01*
X224388976Y-91276313D01*
X224377779Y-91334119D01*
X224360970Y-91390550D01*
X224338710Y-91445062D01*
X224311215Y-91497129D01*
X224278748Y-91546250D01*
X224241623Y-91591953D01*
X223840924Y-92038540D01*
X223799498Y-92080384D01*
X223754171Y-92117966D01*
X223705377Y-92150924D01*
X223653589Y-92178940D01*
X223599303Y-92201746D01*
X223543044Y-92219121D01*
X223485353Y-92230898D01*
X223426785Y-92236963D01*
X223367904Y-92237258D01*
X223309278Y-92231781D01*
X223251472Y-92220584D01*
X223195041Y-92203775D01*
X223140529Y-92181515D01*
X223088462Y-92154020D01*
X223039340Y-92121553D01*
X222993638Y-92084428D01*
X222770345Y-91884079D01*
X222728501Y-91842653D01*
X222690919Y-91797326D01*
X222657961Y-91748533D01*
X222629945Y-91696744D01*
X222607139Y-91642459D01*
X222589764Y-91586199D01*
X222577987Y-91528508D01*
X222571922Y-91469940D01*
X222571627Y-91411059D01*
X222577104Y-91352433D01*
X222588301Y-91294627D01*
X222605110Y-91238196D01*
X222627370Y-91183684D01*
X222654865Y-91131617D01*
X222687332Y-91082496D01*
X222724457Y-91036793D01*
X223125156Y-90590206D01*
X223166582Y-90548362D01*
X223211909Y-90510780D01*
X223260703Y-90477822D01*
X223312491Y-90449806D01*
X223366777Y-90427000D01*
X223423036Y-90409625D01*
X223480727Y-90397848D01*
X223539295Y-90391783D01*
X223598176Y-90391488D01*
X223656802Y-90396965D01*
X223656802Y-90396965D01*
G37*
D16*
X223483040Y-91314373D03*
D17*
X226060000Y-90544167D03*
D18*
X231755005Y-91979996D03*
D19*
X232526871Y-92840255D02*
X230983139Y-91119737D01*
D13*
X227330000Y-71120000D03*
D14*
X233045000Y-73025000D03*
D15*
G36*
X233584114Y-72877162D02*
G01*
X232839802Y-73544994D01*
X232505886Y-73172838D01*
X233250198Y-72505006D01*
X233584114Y-72877162D01*
X233584114Y-72877162D01*
G37*
G36*
X233660705Y-71341783D02*
G01*
X233719273Y-71347848D01*
X233776964Y-71359625D01*
X233833224Y-71377000D01*
X233887509Y-71399806D01*
X233939298Y-71427822D01*
X233988091Y-71460780D01*
X234033418Y-71498362D01*
X234074844Y-71540206D01*
X234475543Y-71986793D01*
X234512668Y-72032495D01*
X234545135Y-72081617D01*
X234572630Y-72133684D01*
X234594890Y-72188196D01*
X234611699Y-72244627D01*
X234622896Y-72302433D01*
X234628373Y-72361059D01*
X234628078Y-72419940D01*
X234622013Y-72478508D01*
X234610236Y-72536199D01*
X234592861Y-72592458D01*
X234570055Y-72646744D01*
X234542039Y-72698532D01*
X234509081Y-72747326D01*
X234471499Y-72792653D01*
X234429655Y-72834079D01*
X234206362Y-73034428D01*
X234160659Y-73071553D01*
X234111538Y-73104020D01*
X234059471Y-73131515D01*
X234004959Y-73153775D01*
X233948528Y-73170584D01*
X233890722Y-73181781D01*
X233832096Y-73187258D01*
X233773215Y-73186963D01*
X233714647Y-73180898D01*
X233656956Y-73169121D01*
X233600696Y-73151746D01*
X233546411Y-73128940D01*
X233494622Y-73100924D01*
X233445829Y-73067966D01*
X233400502Y-73030384D01*
X233359076Y-72988540D01*
X232958377Y-72541953D01*
X232921252Y-72496251D01*
X232888785Y-72447129D01*
X232861290Y-72395062D01*
X232839030Y-72340550D01*
X232822221Y-72284119D01*
X232811024Y-72226313D01*
X232805547Y-72167687D01*
X232805842Y-72108806D01*
X232811907Y-72050238D01*
X232823684Y-71992547D01*
X232841059Y-71936288D01*
X232863865Y-71882002D01*
X232891881Y-71830214D01*
X232924839Y-71781420D01*
X232962421Y-71736093D01*
X233004265Y-71694667D01*
X233227558Y-71494318D01*
X233273261Y-71457193D01*
X233322382Y-71424726D01*
X233374449Y-71397231D01*
X233428961Y-71374971D01*
X233485392Y-71358162D01*
X233543198Y-71346965D01*
X233601824Y-71341488D01*
X233660705Y-71341783D01*
X233660705Y-71341783D01*
G37*
D16*
X233716960Y-72264373D03*
D17*
X231140000Y-71494167D03*
D18*
X225444995Y-72929996D03*
D19*
X224673129Y-73790255D02*
X226216861Y-72069737D01*
D20*
X228600000Y-70913495D03*
D15*
G36*
X223656802Y-71346965D02*
G01*
X223714608Y-71358162D01*
X223771039Y-71374971D01*
X223825551Y-71397231D01*
X223877618Y-71424726D01*
X223926740Y-71457193D01*
X223972442Y-71494318D01*
X224195735Y-71694667D01*
X224237579Y-71736093D01*
X224275161Y-71781420D01*
X224308119Y-71830213D01*
X224336135Y-71882002D01*
X224358941Y-71936287D01*
X224376316Y-71992547D01*
X224388093Y-72050238D01*
X224394158Y-72108806D01*
X224394453Y-72167687D01*
X224388976Y-72226313D01*
X224377779Y-72284119D01*
X224360970Y-72340550D01*
X224338710Y-72395062D01*
X224311215Y-72447129D01*
X224278748Y-72496250D01*
X224241623Y-72541953D01*
X223840924Y-72988540D01*
X223799498Y-73030384D01*
X223754171Y-73067966D01*
X223705377Y-73100924D01*
X223653589Y-73128940D01*
X223599303Y-73151746D01*
X223543044Y-73169121D01*
X223485353Y-73180898D01*
X223426785Y-73186963D01*
X223367904Y-73187258D01*
X223309278Y-73181781D01*
X223251472Y-73170584D01*
X223195041Y-73153775D01*
X223140529Y-73131515D01*
X223088462Y-73104020D01*
X223039340Y-73071553D01*
X222993638Y-73034428D01*
X222770345Y-72834079D01*
X222728501Y-72792653D01*
X222690919Y-72747326D01*
X222657961Y-72698533D01*
X222629945Y-72646744D01*
X222607139Y-72592459D01*
X222589764Y-72536199D01*
X222577987Y-72478508D01*
X222571922Y-72419940D01*
X222571627Y-72361059D01*
X222577104Y-72302433D01*
X222588301Y-72244627D01*
X222605110Y-72188196D01*
X222627370Y-72133684D01*
X222654865Y-72081617D01*
X222687332Y-72032496D01*
X222724457Y-71986793D01*
X223125156Y-71540206D01*
X223166582Y-71498362D01*
X223211909Y-71460780D01*
X223260703Y-71427822D01*
X223312491Y-71399806D01*
X223366777Y-71377000D01*
X223423036Y-71359625D01*
X223480727Y-71347848D01*
X223539295Y-71341783D01*
X223598176Y-71341488D01*
X223656802Y-71346965D01*
X223656802Y-71346965D01*
G37*
D16*
X223483040Y-72264373D03*
D17*
X226060000Y-71494167D03*
D18*
X231755005Y-72929996D03*
D19*
X232526871Y-73790255D02*
X230983139Y-72069737D01*
D21*
X243150000Y-122480000D03*
X239450000Y-116280000D03*
X239450000Y-122480000D03*
X243150000Y-116280000D03*
D22*
X248007500Y-121031000D03*
X253007500Y-121031000D03*
D23*
X246607500Y-121031000D03*
X254407500Y-121031000D03*
D24*
X251857500Y-121031000D03*
X249157500Y-121031000D03*
D13*
X227330000Y-109220000D03*
D14*
X233045000Y-111125000D03*
D15*
G36*
X233584114Y-110977162D02*
G01*
X232839802Y-111644994D01*
X232505886Y-111272838D01*
X233250198Y-110605006D01*
X233584114Y-110977162D01*
X233584114Y-110977162D01*
G37*
G36*
X233660705Y-109441783D02*
G01*
X233719273Y-109447848D01*
X233776964Y-109459625D01*
X233833224Y-109477000D01*
X233887509Y-109499806D01*
X233939298Y-109527822D01*
X233988091Y-109560780D01*
X234033418Y-109598362D01*
X234074844Y-109640206D01*
X234475543Y-110086793D01*
X234512668Y-110132495D01*
X234545135Y-110181617D01*
X234572630Y-110233684D01*
X234594890Y-110288196D01*
X234611699Y-110344627D01*
X234622896Y-110402433D01*
X234628373Y-110461059D01*
X234628078Y-110519940D01*
X234622013Y-110578508D01*
X234610236Y-110636199D01*
X234592861Y-110692458D01*
X234570055Y-110746744D01*
X234542039Y-110798532D01*
X234509081Y-110847326D01*
X234471499Y-110892653D01*
X234429655Y-110934079D01*
X234206362Y-111134428D01*
X234160659Y-111171553D01*
X234111538Y-111204020D01*
X234059471Y-111231515D01*
X234004959Y-111253775D01*
X233948528Y-111270584D01*
X233890722Y-111281781D01*
X233832096Y-111287258D01*
X233773215Y-111286963D01*
X233714647Y-111280898D01*
X233656956Y-111269121D01*
X233600696Y-111251746D01*
X233546411Y-111228940D01*
X233494622Y-111200924D01*
X233445829Y-111167966D01*
X233400502Y-111130384D01*
X233359076Y-111088540D01*
X232958377Y-110641953D01*
X232921252Y-110596251D01*
X232888785Y-110547129D01*
X232861290Y-110495062D01*
X232839030Y-110440550D01*
X232822221Y-110384119D01*
X232811024Y-110326313D01*
X232805547Y-110267687D01*
X232805842Y-110208806D01*
X232811907Y-110150238D01*
X232823684Y-110092547D01*
X232841059Y-110036288D01*
X232863865Y-109982002D01*
X232891881Y-109930214D01*
X232924839Y-109881420D01*
X232962421Y-109836093D01*
X233004265Y-109794667D01*
X233227558Y-109594318D01*
X233273261Y-109557193D01*
X233322382Y-109524726D01*
X233374449Y-109497231D01*
X233428961Y-109474971D01*
X233485392Y-109458162D01*
X233543198Y-109446965D01*
X233601824Y-109441488D01*
X233660705Y-109441783D01*
X233660705Y-109441783D01*
G37*
D16*
X233716960Y-110364373D03*
D17*
X231140000Y-109594167D03*
D18*
X225444995Y-111029996D03*
D19*
X224673129Y-111890255D02*
X226216861Y-110169737D01*
D20*
X228600000Y-109013495D03*
D15*
G36*
X223656802Y-109446965D02*
G01*
X223714608Y-109458162D01*
X223771039Y-109474971D01*
X223825551Y-109497231D01*
X223877618Y-109524726D01*
X223926740Y-109557193D01*
X223972442Y-109594318D01*
X224195735Y-109794667D01*
X224237579Y-109836093D01*
X224275161Y-109881420D01*
X224308119Y-109930213D01*
X224336135Y-109982002D01*
X224358941Y-110036287D01*
X224376316Y-110092547D01*
X224388093Y-110150238D01*
X224394158Y-110208806D01*
X224394453Y-110267687D01*
X224388976Y-110326313D01*
X224377779Y-110384119D01*
X224360970Y-110440550D01*
X224338710Y-110495062D01*
X224311215Y-110547129D01*
X224278748Y-110596250D01*
X224241623Y-110641953D01*
X223840924Y-111088540D01*
X223799498Y-111130384D01*
X223754171Y-111167966D01*
X223705377Y-111200924D01*
X223653589Y-111228940D01*
X223599303Y-111251746D01*
X223543044Y-111269121D01*
X223485353Y-111280898D01*
X223426785Y-111286963D01*
X223367904Y-111287258D01*
X223309278Y-111281781D01*
X223251472Y-111270584D01*
X223195041Y-111253775D01*
X223140529Y-111231515D01*
X223088462Y-111204020D01*
X223039340Y-111171553D01*
X222993638Y-111134428D01*
X222770345Y-110934079D01*
X222728501Y-110892653D01*
X222690919Y-110847326D01*
X222657961Y-110798533D01*
X222629945Y-110746744D01*
X222607139Y-110692459D01*
X222589764Y-110636199D01*
X222577987Y-110578508D01*
X222571922Y-110519940D01*
X222571627Y-110461059D01*
X222577104Y-110402433D01*
X222588301Y-110344627D01*
X222605110Y-110288196D01*
X222627370Y-110233684D01*
X222654865Y-110181617D01*
X222687332Y-110132496D01*
X222724457Y-110086793D01*
X223125156Y-109640206D01*
X223166582Y-109598362D01*
X223211909Y-109560780D01*
X223260703Y-109527822D01*
X223312491Y-109499806D01*
X223366777Y-109477000D01*
X223423036Y-109459625D01*
X223480727Y-109447848D01*
X223539295Y-109441783D01*
X223598176Y-109441488D01*
X223656802Y-109446965D01*
X223656802Y-109446965D01*
G37*
D16*
X223483040Y-110364373D03*
D17*
X226060000Y-109594167D03*
D18*
X231755005Y-111029996D03*
D19*
X232526871Y-111890255D02*
X230983139Y-110169737D01*
D25*
X221445946Y-119249389D03*
D26*
X221494776Y-118551094D02*
X221397116Y-119947684D01*
D25*
X216727735Y-119319247D03*
D26*
X216678905Y-118620952D02*
X216776565Y-120017542D01*
D27*
X215919995Y-117768850D03*
D28*
X215265000Y-117038846D02*
X216574990Y-118498854D01*
D27*
X222228731Y-117568860D03*
D28*
X222885000Y-116840000D02*
X221572462Y-118297720D01*
D29*
X250975000Y-117235000D03*
X253975000Y-117235000D03*
X246975000Y-117235000D03*
X245875000Y-112635000D03*
X250975000Y-110095000D03*
X253975000Y-110095000D03*
X246975000Y-110095000D03*
X245875000Y-114695000D03*
D30*
X135249920Y-66682620D03*
D31*
X142869920Y-66682620D03*
D30*
X142875000Y-55676800D03*
D31*
X142875000Y-63296800D03*
D30*
X161925000Y-55753000D03*
D31*
X161925000Y-63373000D03*
D30*
X180975000Y-55753000D03*
D31*
X180975000Y-63373000D03*
D30*
X200025000Y-55753000D03*
D31*
X200025000Y-63373000D03*
D30*
X219075000Y-55753000D03*
D31*
X219075000Y-63373000D03*
D30*
X226695000Y-66548000D03*
D31*
X219075000Y-66548000D03*
D30*
X139128500Y-85661500D03*
D31*
X146748500Y-85661500D03*
D30*
X142875000Y-74803000D03*
D31*
X142875000Y-82423000D03*
D30*
X161925000Y-74803000D03*
D31*
X161925000Y-82423000D03*
D30*
X180975000Y-74803000D03*
D31*
X180975000Y-82423000D03*
D30*
X200025000Y-74803000D03*
D31*
X200025000Y-82423000D03*
D30*
X219075000Y-74803000D03*
D31*
X219075000Y-82423000D03*
D30*
X234950000Y-85725000D03*
D31*
X227330000Y-85725000D03*
D30*
X128143000Y-85661500D03*
D31*
X135763000Y-85661500D03*
D30*
X142875000Y-93853000D03*
D31*
X142875000Y-101473000D03*
D30*
X161925000Y-93853000D03*
D31*
X161925000Y-101473000D03*
D30*
X180975000Y-93853000D03*
D31*
X180975000Y-101473000D03*
D30*
X200025000Y-93853000D03*
D31*
X200025000Y-101473000D03*
D30*
X219075000Y-93853000D03*
D31*
X219075000Y-101473000D03*
D30*
X245618000Y-103378000D03*
D31*
X237998000Y-103378000D03*
D30*
X203835000Y-105156000D03*
D31*
X211455000Y-105156000D03*
D30*
X231140000Y-105156000D03*
D31*
X223520000Y-105156000D03*
D13*
X132080000Y-52070000D03*
D14*
X137795000Y-53975000D03*
D15*
G36*
X138334114Y-53827162D02*
G01*
X137589802Y-54494994D01*
X137255886Y-54122838D01*
X138000198Y-53455006D01*
X138334114Y-53827162D01*
X138334114Y-53827162D01*
G37*
G36*
X138410705Y-52291783D02*
G01*
X138469273Y-52297848D01*
X138526964Y-52309625D01*
X138583224Y-52327000D01*
X138637509Y-52349806D01*
X138689298Y-52377822D01*
X138738091Y-52410780D01*
X138783418Y-52448362D01*
X138824844Y-52490206D01*
X139225543Y-52936793D01*
X139262668Y-52982495D01*
X139295135Y-53031617D01*
X139322630Y-53083684D01*
X139344890Y-53138196D01*
X139361699Y-53194627D01*
X139372896Y-53252433D01*
X139378373Y-53311059D01*
X139378078Y-53369940D01*
X139372013Y-53428508D01*
X139360236Y-53486199D01*
X139342861Y-53542458D01*
X139320055Y-53596744D01*
X139292039Y-53648532D01*
X139259081Y-53697326D01*
X139221499Y-53742653D01*
X139179655Y-53784079D01*
X138956362Y-53984428D01*
X138910659Y-54021553D01*
X138861538Y-54054020D01*
X138809471Y-54081515D01*
X138754959Y-54103775D01*
X138698528Y-54120584D01*
X138640722Y-54131781D01*
X138582096Y-54137258D01*
X138523215Y-54136963D01*
X138464647Y-54130898D01*
X138406956Y-54119121D01*
X138350696Y-54101746D01*
X138296411Y-54078940D01*
X138244622Y-54050924D01*
X138195829Y-54017966D01*
X138150502Y-53980384D01*
X138109076Y-53938540D01*
X137708377Y-53491953D01*
X137671252Y-53446251D01*
X137638785Y-53397129D01*
X137611290Y-53345062D01*
X137589030Y-53290550D01*
X137572221Y-53234119D01*
X137561024Y-53176313D01*
X137555547Y-53117687D01*
X137555842Y-53058806D01*
X137561907Y-53000238D01*
X137573684Y-52942547D01*
X137591059Y-52886288D01*
X137613865Y-52832002D01*
X137641881Y-52780214D01*
X137674839Y-52731420D01*
X137712421Y-52686093D01*
X137754265Y-52644667D01*
X137977558Y-52444318D01*
X138023261Y-52407193D01*
X138072382Y-52374726D01*
X138124449Y-52347231D01*
X138178961Y-52324971D01*
X138235392Y-52308162D01*
X138293198Y-52296965D01*
X138351824Y-52291488D01*
X138410705Y-52291783D01*
X138410705Y-52291783D01*
G37*
D16*
X138466960Y-53214373D03*
D17*
X135890000Y-52444167D03*
D18*
X130194995Y-53879996D03*
D19*
X129423129Y-54740255D02*
X130966861Y-53019737D01*
D20*
X133350000Y-51863495D03*
D15*
G36*
X128406802Y-52296965D02*
G01*
X128464608Y-52308162D01*
X128521039Y-52324971D01*
X128575551Y-52347231D01*
X128627618Y-52374726D01*
X128676740Y-52407193D01*
X128722442Y-52444318D01*
X128945735Y-52644667D01*
X128987579Y-52686093D01*
X129025161Y-52731420D01*
X129058119Y-52780213D01*
X129086135Y-52832002D01*
X129108941Y-52886287D01*
X129126316Y-52942547D01*
X129138093Y-53000238D01*
X129144158Y-53058806D01*
X129144453Y-53117687D01*
X129138976Y-53176313D01*
X129127779Y-53234119D01*
X129110970Y-53290550D01*
X129088710Y-53345062D01*
X129061215Y-53397129D01*
X129028748Y-53446250D01*
X128991623Y-53491953D01*
X128590924Y-53938540D01*
X128549498Y-53980384D01*
X128504171Y-54017966D01*
X128455377Y-54050924D01*
X128403589Y-54078940D01*
X128349303Y-54101746D01*
X128293044Y-54119121D01*
X128235353Y-54130898D01*
X128176785Y-54136963D01*
X128117904Y-54137258D01*
X128059278Y-54131781D01*
X128001472Y-54120584D01*
X127945041Y-54103775D01*
X127890529Y-54081515D01*
X127838462Y-54054020D01*
X127789340Y-54021553D01*
X127743638Y-53984428D01*
X127520345Y-53784079D01*
X127478501Y-53742653D01*
X127440919Y-53697326D01*
X127407961Y-53648533D01*
X127379945Y-53596744D01*
X127357139Y-53542459D01*
X127339764Y-53486199D01*
X127327987Y-53428508D01*
X127321922Y-53369940D01*
X127321627Y-53311059D01*
X127327104Y-53252433D01*
X127338301Y-53194627D01*
X127355110Y-53138196D01*
X127377370Y-53083684D01*
X127404865Y-53031617D01*
X127437332Y-52982496D01*
X127474457Y-52936793D01*
X127875156Y-52490206D01*
X127916582Y-52448362D01*
X127961909Y-52410780D01*
X128010703Y-52377822D01*
X128062491Y-52349806D01*
X128116777Y-52327000D01*
X128173036Y-52309625D01*
X128230727Y-52297848D01*
X128289295Y-52291783D01*
X128348176Y-52291488D01*
X128406802Y-52296965D01*
X128406802Y-52296965D01*
G37*
D16*
X128233040Y-53214373D03*
D17*
X130810000Y-52444167D03*
D18*
X136505005Y-53879996D03*
D19*
X137276871Y-54740255D02*
X135733139Y-53019737D01*
D13*
X151130000Y-52070000D03*
D14*
X156845000Y-53975000D03*
D15*
G36*
X157384114Y-53827162D02*
G01*
X156639802Y-54494994D01*
X156305886Y-54122838D01*
X157050198Y-53455006D01*
X157384114Y-53827162D01*
X157384114Y-53827162D01*
G37*
G36*
X157460705Y-52291783D02*
G01*
X157519273Y-52297848D01*
X157576964Y-52309625D01*
X157633224Y-52327000D01*
X157687509Y-52349806D01*
X157739298Y-52377822D01*
X157788091Y-52410780D01*
X157833418Y-52448362D01*
X157874844Y-52490206D01*
X158275543Y-52936793D01*
X158312668Y-52982495D01*
X158345135Y-53031617D01*
X158372630Y-53083684D01*
X158394890Y-53138196D01*
X158411699Y-53194627D01*
X158422896Y-53252433D01*
X158428373Y-53311059D01*
X158428078Y-53369940D01*
X158422013Y-53428508D01*
X158410236Y-53486199D01*
X158392861Y-53542458D01*
X158370055Y-53596744D01*
X158342039Y-53648532D01*
X158309081Y-53697326D01*
X158271499Y-53742653D01*
X158229655Y-53784079D01*
X158006362Y-53984428D01*
X157960659Y-54021553D01*
X157911538Y-54054020D01*
X157859471Y-54081515D01*
X157804959Y-54103775D01*
X157748528Y-54120584D01*
X157690722Y-54131781D01*
X157632096Y-54137258D01*
X157573215Y-54136963D01*
X157514647Y-54130898D01*
X157456956Y-54119121D01*
X157400696Y-54101746D01*
X157346411Y-54078940D01*
X157294622Y-54050924D01*
X157245829Y-54017966D01*
X157200502Y-53980384D01*
X157159076Y-53938540D01*
X156758377Y-53491953D01*
X156721252Y-53446251D01*
X156688785Y-53397129D01*
X156661290Y-53345062D01*
X156639030Y-53290550D01*
X156622221Y-53234119D01*
X156611024Y-53176313D01*
X156605547Y-53117687D01*
X156605842Y-53058806D01*
X156611907Y-53000238D01*
X156623684Y-52942547D01*
X156641059Y-52886288D01*
X156663865Y-52832002D01*
X156691881Y-52780214D01*
X156724839Y-52731420D01*
X156762421Y-52686093D01*
X156804265Y-52644667D01*
X157027558Y-52444318D01*
X157073261Y-52407193D01*
X157122382Y-52374726D01*
X157174449Y-52347231D01*
X157228961Y-52324971D01*
X157285392Y-52308162D01*
X157343198Y-52296965D01*
X157401824Y-52291488D01*
X157460705Y-52291783D01*
X157460705Y-52291783D01*
G37*
D16*
X157516960Y-53214373D03*
D17*
X154940000Y-52444167D03*
D18*
X149244995Y-53879996D03*
D19*
X148473129Y-54740255D02*
X150016861Y-53019737D01*
D20*
X152400000Y-51863495D03*
D15*
G36*
X147456802Y-52296965D02*
G01*
X147514608Y-52308162D01*
X147571039Y-52324971D01*
X147625551Y-52347231D01*
X147677618Y-52374726D01*
X147726740Y-52407193D01*
X147772442Y-52444318D01*
X147995735Y-52644667D01*
X148037579Y-52686093D01*
X148075161Y-52731420D01*
X148108119Y-52780213D01*
X148136135Y-52832002D01*
X148158941Y-52886287D01*
X148176316Y-52942547D01*
X148188093Y-53000238D01*
X148194158Y-53058806D01*
X148194453Y-53117687D01*
X148188976Y-53176313D01*
X148177779Y-53234119D01*
X148160970Y-53290550D01*
X148138710Y-53345062D01*
X148111215Y-53397129D01*
X148078748Y-53446250D01*
X148041623Y-53491953D01*
X147640924Y-53938540D01*
X147599498Y-53980384D01*
X147554171Y-54017966D01*
X147505377Y-54050924D01*
X147453589Y-54078940D01*
X147399303Y-54101746D01*
X147343044Y-54119121D01*
X147285353Y-54130898D01*
X147226785Y-54136963D01*
X147167904Y-54137258D01*
X147109278Y-54131781D01*
X147051472Y-54120584D01*
X146995041Y-54103775D01*
X146940529Y-54081515D01*
X146888462Y-54054020D01*
X146839340Y-54021553D01*
X146793638Y-53984428D01*
X146570345Y-53784079D01*
X146528501Y-53742653D01*
X146490919Y-53697326D01*
X146457961Y-53648533D01*
X146429945Y-53596744D01*
X146407139Y-53542459D01*
X146389764Y-53486199D01*
X146377987Y-53428508D01*
X146371922Y-53369940D01*
X146371627Y-53311059D01*
X146377104Y-53252433D01*
X146388301Y-53194627D01*
X146405110Y-53138196D01*
X146427370Y-53083684D01*
X146454865Y-53031617D01*
X146487332Y-52982496D01*
X146524457Y-52936793D01*
X146925156Y-52490206D01*
X146966582Y-52448362D01*
X147011909Y-52410780D01*
X147060703Y-52377822D01*
X147112491Y-52349806D01*
X147166777Y-52327000D01*
X147223036Y-52309625D01*
X147280727Y-52297848D01*
X147339295Y-52291783D01*
X147398176Y-52291488D01*
X147456802Y-52296965D01*
X147456802Y-52296965D01*
G37*
D16*
X147283040Y-53214373D03*
D17*
X149860000Y-52444167D03*
D18*
X155555005Y-53879996D03*
D19*
X156326871Y-54740255D02*
X154783139Y-53019737D01*
D13*
X170180000Y-52070000D03*
D14*
X175895000Y-53975000D03*
D15*
G36*
X176434114Y-53827162D02*
G01*
X175689802Y-54494994D01*
X175355886Y-54122838D01*
X176100198Y-53455006D01*
X176434114Y-53827162D01*
X176434114Y-53827162D01*
G37*
G36*
X176510705Y-52291783D02*
G01*
X176569273Y-52297848D01*
X176626964Y-52309625D01*
X176683224Y-52327000D01*
X176737509Y-52349806D01*
X176789298Y-52377822D01*
X176838091Y-52410780D01*
X176883418Y-52448362D01*
X176924844Y-52490206D01*
X177325543Y-52936793D01*
X177362668Y-52982495D01*
X177395135Y-53031617D01*
X177422630Y-53083684D01*
X177444890Y-53138196D01*
X177461699Y-53194627D01*
X177472896Y-53252433D01*
X177478373Y-53311059D01*
X177478078Y-53369940D01*
X177472013Y-53428508D01*
X177460236Y-53486199D01*
X177442861Y-53542458D01*
X177420055Y-53596744D01*
X177392039Y-53648532D01*
X177359081Y-53697326D01*
X177321499Y-53742653D01*
X177279655Y-53784079D01*
X177056362Y-53984428D01*
X177010659Y-54021553D01*
X176961538Y-54054020D01*
X176909471Y-54081515D01*
X176854959Y-54103775D01*
X176798528Y-54120584D01*
X176740722Y-54131781D01*
X176682096Y-54137258D01*
X176623215Y-54136963D01*
X176564647Y-54130898D01*
X176506956Y-54119121D01*
X176450696Y-54101746D01*
X176396411Y-54078940D01*
X176344622Y-54050924D01*
X176295829Y-54017966D01*
X176250502Y-53980384D01*
X176209076Y-53938540D01*
X175808377Y-53491953D01*
X175771252Y-53446251D01*
X175738785Y-53397129D01*
X175711290Y-53345062D01*
X175689030Y-53290550D01*
X175672221Y-53234119D01*
X175661024Y-53176313D01*
X175655547Y-53117687D01*
X175655842Y-53058806D01*
X175661907Y-53000238D01*
X175673684Y-52942547D01*
X175691059Y-52886288D01*
X175713865Y-52832002D01*
X175741881Y-52780214D01*
X175774839Y-52731420D01*
X175812421Y-52686093D01*
X175854265Y-52644667D01*
X176077558Y-52444318D01*
X176123261Y-52407193D01*
X176172382Y-52374726D01*
X176224449Y-52347231D01*
X176278961Y-52324971D01*
X176335392Y-52308162D01*
X176393198Y-52296965D01*
X176451824Y-52291488D01*
X176510705Y-52291783D01*
X176510705Y-52291783D01*
G37*
D16*
X176566960Y-53214373D03*
D17*
X173990000Y-52444167D03*
D18*
X168294995Y-53879996D03*
D19*
X167523129Y-54740255D02*
X169066861Y-53019737D01*
D20*
X171450000Y-51863495D03*
D15*
G36*
X166506802Y-52296965D02*
G01*
X166564608Y-52308162D01*
X166621039Y-52324971D01*
X166675551Y-52347231D01*
X166727618Y-52374726D01*
X166776740Y-52407193D01*
X166822442Y-52444318D01*
X167045735Y-52644667D01*
X167087579Y-52686093D01*
X167125161Y-52731420D01*
X167158119Y-52780213D01*
X167186135Y-52832002D01*
X167208941Y-52886287D01*
X167226316Y-52942547D01*
X167238093Y-53000238D01*
X167244158Y-53058806D01*
X167244453Y-53117687D01*
X167238976Y-53176313D01*
X167227779Y-53234119D01*
X167210970Y-53290550D01*
X167188710Y-53345062D01*
X167161215Y-53397129D01*
X167128748Y-53446250D01*
X167091623Y-53491953D01*
X166690924Y-53938540D01*
X166649498Y-53980384D01*
X166604171Y-54017966D01*
X166555377Y-54050924D01*
X166503589Y-54078940D01*
X166449303Y-54101746D01*
X166393044Y-54119121D01*
X166335353Y-54130898D01*
X166276785Y-54136963D01*
X166217904Y-54137258D01*
X166159278Y-54131781D01*
X166101472Y-54120584D01*
X166045041Y-54103775D01*
X165990529Y-54081515D01*
X165938462Y-54054020D01*
X165889340Y-54021553D01*
X165843638Y-53984428D01*
X165620345Y-53784079D01*
X165578501Y-53742653D01*
X165540919Y-53697326D01*
X165507961Y-53648533D01*
X165479945Y-53596744D01*
X165457139Y-53542459D01*
X165439764Y-53486199D01*
X165427987Y-53428508D01*
X165421922Y-53369940D01*
X165421627Y-53311059D01*
X165427104Y-53252433D01*
X165438301Y-53194627D01*
X165455110Y-53138196D01*
X165477370Y-53083684D01*
X165504865Y-53031617D01*
X165537332Y-52982496D01*
X165574457Y-52936793D01*
X165975156Y-52490206D01*
X166016582Y-52448362D01*
X166061909Y-52410780D01*
X166110703Y-52377822D01*
X166162491Y-52349806D01*
X166216777Y-52327000D01*
X166273036Y-52309625D01*
X166330727Y-52297848D01*
X166389295Y-52291783D01*
X166448176Y-52291488D01*
X166506802Y-52296965D01*
X166506802Y-52296965D01*
G37*
D16*
X166333040Y-53214373D03*
D17*
X168910000Y-52444167D03*
D18*
X174605005Y-53879996D03*
D19*
X175376871Y-54740255D02*
X173833139Y-53019737D01*
D13*
X189230000Y-52070000D03*
D14*
X194945000Y-53975000D03*
D15*
G36*
X195484114Y-53827162D02*
G01*
X194739802Y-54494994D01*
X194405886Y-54122838D01*
X195150198Y-53455006D01*
X195484114Y-53827162D01*
X195484114Y-53827162D01*
G37*
G36*
X195560705Y-52291783D02*
G01*
X195619273Y-52297848D01*
X195676964Y-52309625D01*
X195733224Y-52327000D01*
X195787509Y-52349806D01*
X195839298Y-52377822D01*
X195888091Y-52410780D01*
X195933418Y-52448362D01*
X195974844Y-52490206D01*
X196375543Y-52936793D01*
X196412668Y-52982495D01*
X196445135Y-53031617D01*
X196472630Y-53083684D01*
X196494890Y-53138196D01*
X196511699Y-53194627D01*
X196522896Y-53252433D01*
X196528373Y-53311059D01*
X196528078Y-53369940D01*
X196522013Y-53428508D01*
X196510236Y-53486199D01*
X196492861Y-53542458D01*
X196470055Y-53596744D01*
X196442039Y-53648532D01*
X196409081Y-53697326D01*
X196371499Y-53742653D01*
X196329655Y-53784079D01*
X196106362Y-53984428D01*
X196060659Y-54021553D01*
X196011538Y-54054020D01*
X195959471Y-54081515D01*
X195904959Y-54103775D01*
X195848528Y-54120584D01*
X195790722Y-54131781D01*
X195732096Y-54137258D01*
X195673215Y-54136963D01*
X195614647Y-54130898D01*
X195556956Y-54119121D01*
X195500696Y-54101746D01*
X195446411Y-54078940D01*
X195394622Y-54050924D01*
X195345829Y-54017966D01*
X195300502Y-53980384D01*
X195259076Y-53938540D01*
X194858377Y-53491953D01*
X194821252Y-53446251D01*
X194788785Y-53397129D01*
X194761290Y-53345062D01*
X194739030Y-53290550D01*
X194722221Y-53234119D01*
X194711024Y-53176313D01*
X194705547Y-53117687D01*
X194705842Y-53058806D01*
X194711907Y-53000238D01*
X194723684Y-52942547D01*
X194741059Y-52886288D01*
X194763865Y-52832002D01*
X194791881Y-52780214D01*
X194824839Y-52731420D01*
X194862421Y-52686093D01*
X194904265Y-52644667D01*
X195127558Y-52444318D01*
X195173261Y-52407193D01*
X195222382Y-52374726D01*
X195274449Y-52347231D01*
X195328961Y-52324971D01*
X195385392Y-52308162D01*
X195443198Y-52296965D01*
X195501824Y-52291488D01*
X195560705Y-52291783D01*
X195560705Y-52291783D01*
G37*
D16*
X195616960Y-53214373D03*
D17*
X193040000Y-52444167D03*
D18*
X187344995Y-53879996D03*
D19*
X186573129Y-54740255D02*
X188116861Y-53019737D01*
D20*
X190500000Y-51863495D03*
D15*
G36*
X185556802Y-52296965D02*
G01*
X185614608Y-52308162D01*
X185671039Y-52324971D01*
X185725551Y-52347231D01*
X185777618Y-52374726D01*
X185826740Y-52407193D01*
X185872442Y-52444318D01*
X186095735Y-52644667D01*
X186137579Y-52686093D01*
X186175161Y-52731420D01*
X186208119Y-52780213D01*
X186236135Y-52832002D01*
X186258941Y-52886287D01*
X186276316Y-52942547D01*
X186288093Y-53000238D01*
X186294158Y-53058806D01*
X186294453Y-53117687D01*
X186288976Y-53176313D01*
X186277779Y-53234119D01*
X186260970Y-53290550D01*
X186238710Y-53345062D01*
X186211215Y-53397129D01*
X186178748Y-53446250D01*
X186141623Y-53491953D01*
X185740924Y-53938540D01*
X185699498Y-53980384D01*
X185654171Y-54017966D01*
X185605377Y-54050924D01*
X185553589Y-54078940D01*
X185499303Y-54101746D01*
X185443044Y-54119121D01*
X185385353Y-54130898D01*
X185326785Y-54136963D01*
X185267904Y-54137258D01*
X185209278Y-54131781D01*
X185151472Y-54120584D01*
X185095041Y-54103775D01*
X185040529Y-54081515D01*
X184988462Y-54054020D01*
X184939340Y-54021553D01*
X184893638Y-53984428D01*
X184670345Y-53784079D01*
X184628501Y-53742653D01*
X184590919Y-53697326D01*
X184557961Y-53648533D01*
X184529945Y-53596744D01*
X184507139Y-53542459D01*
X184489764Y-53486199D01*
X184477987Y-53428508D01*
X184471922Y-53369940D01*
X184471627Y-53311059D01*
X184477104Y-53252433D01*
X184488301Y-53194627D01*
X184505110Y-53138196D01*
X184527370Y-53083684D01*
X184554865Y-53031617D01*
X184587332Y-52982496D01*
X184624457Y-52936793D01*
X185025156Y-52490206D01*
X185066582Y-52448362D01*
X185111909Y-52410780D01*
X185160703Y-52377822D01*
X185212491Y-52349806D01*
X185266777Y-52327000D01*
X185323036Y-52309625D01*
X185380727Y-52297848D01*
X185439295Y-52291783D01*
X185498176Y-52291488D01*
X185556802Y-52296965D01*
X185556802Y-52296965D01*
G37*
D16*
X185383040Y-53214373D03*
D17*
X187960000Y-52444167D03*
D18*
X193655005Y-53879996D03*
D19*
X194426871Y-54740255D02*
X192883139Y-53019737D01*
D13*
X208280000Y-52070000D03*
D14*
X213995000Y-53975000D03*
D15*
G36*
X214534114Y-53827162D02*
G01*
X213789802Y-54494994D01*
X213455886Y-54122838D01*
X214200198Y-53455006D01*
X214534114Y-53827162D01*
X214534114Y-53827162D01*
G37*
G36*
X214610705Y-52291783D02*
G01*
X214669273Y-52297848D01*
X214726964Y-52309625D01*
X214783224Y-52327000D01*
X214837509Y-52349806D01*
X214889298Y-52377822D01*
X214938091Y-52410780D01*
X214983418Y-52448362D01*
X215024844Y-52490206D01*
X215425543Y-52936793D01*
X215462668Y-52982495D01*
X215495135Y-53031617D01*
X215522630Y-53083684D01*
X215544890Y-53138196D01*
X215561699Y-53194627D01*
X215572896Y-53252433D01*
X215578373Y-53311059D01*
X215578078Y-53369940D01*
X215572013Y-53428508D01*
X215560236Y-53486199D01*
X215542861Y-53542458D01*
X215520055Y-53596744D01*
X215492039Y-53648532D01*
X215459081Y-53697326D01*
X215421499Y-53742653D01*
X215379655Y-53784079D01*
X215156362Y-53984428D01*
X215110659Y-54021553D01*
X215061538Y-54054020D01*
X215009471Y-54081515D01*
X214954959Y-54103775D01*
X214898528Y-54120584D01*
X214840722Y-54131781D01*
X214782096Y-54137258D01*
X214723215Y-54136963D01*
X214664647Y-54130898D01*
X214606956Y-54119121D01*
X214550696Y-54101746D01*
X214496411Y-54078940D01*
X214444622Y-54050924D01*
X214395829Y-54017966D01*
X214350502Y-53980384D01*
X214309076Y-53938540D01*
X213908377Y-53491953D01*
X213871252Y-53446251D01*
X213838785Y-53397129D01*
X213811290Y-53345062D01*
X213789030Y-53290550D01*
X213772221Y-53234119D01*
X213761024Y-53176313D01*
X213755547Y-53117687D01*
X213755842Y-53058806D01*
X213761907Y-53000238D01*
X213773684Y-52942547D01*
X213791059Y-52886288D01*
X213813865Y-52832002D01*
X213841881Y-52780214D01*
X213874839Y-52731420D01*
X213912421Y-52686093D01*
X213954265Y-52644667D01*
X214177558Y-52444318D01*
X214223261Y-52407193D01*
X214272382Y-52374726D01*
X214324449Y-52347231D01*
X214378961Y-52324971D01*
X214435392Y-52308162D01*
X214493198Y-52296965D01*
X214551824Y-52291488D01*
X214610705Y-52291783D01*
X214610705Y-52291783D01*
G37*
D16*
X214666960Y-53214373D03*
D17*
X212090000Y-52444167D03*
D18*
X206394995Y-53879996D03*
D19*
X205623129Y-54740255D02*
X207166861Y-53019737D01*
D20*
X209550000Y-51863495D03*
D15*
G36*
X204606802Y-52296965D02*
G01*
X204664608Y-52308162D01*
X204721039Y-52324971D01*
X204775551Y-52347231D01*
X204827618Y-52374726D01*
X204876740Y-52407193D01*
X204922442Y-52444318D01*
X205145735Y-52644667D01*
X205187579Y-52686093D01*
X205225161Y-52731420D01*
X205258119Y-52780213D01*
X205286135Y-52832002D01*
X205308941Y-52886287D01*
X205326316Y-52942547D01*
X205338093Y-53000238D01*
X205344158Y-53058806D01*
X205344453Y-53117687D01*
X205338976Y-53176313D01*
X205327779Y-53234119D01*
X205310970Y-53290550D01*
X205288710Y-53345062D01*
X205261215Y-53397129D01*
X205228748Y-53446250D01*
X205191623Y-53491953D01*
X204790924Y-53938540D01*
X204749498Y-53980384D01*
X204704171Y-54017966D01*
X204655377Y-54050924D01*
X204603589Y-54078940D01*
X204549303Y-54101746D01*
X204493044Y-54119121D01*
X204435353Y-54130898D01*
X204376785Y-54136963D01*
X204317904Y-54137258D01*
X204259278Y-54131781D01*
X204201472Y-54120584D01*
X204145041Y-54103775D01*
X204090529Y-54081515D01*
X204038462Y-54054020D01*
X203989340Y-54021553D01*
X203943638Y-53984428D01*
X203720345Y-53784079D01*
X203678501Y-53742653D01*
X203640919Y-53697326D01*
X203607961Y-53648533D01*
X203579945Y-53596744D01*
X203557139Y-53542459D01*
X203539764Y-53486199D01*
X203527987Y-53428508D01*
X203521922Y-53369940D01*
X203521627Y-53311059D01*
X203527104Y-53252433D01*
X203538301Y-53194627D01*
X203555110Y-53138196D01*
X203577370Y-53083684D01*
X203604865Y-53031617D01*
X203637332Y-52982496D01*
X203674457Y-52936793D01*
X204075156Y-52490206D01*
X204116582Y-52448362D01*
X204161909Y-52410780D01*
X204210703Y-52377822D01*
X204262491Y-52349806D01*
X204316777Y-52327000D01*
X204373036Y-52309625D01*
X204430727Y-52297848D01*
X204489295Y-52291783D01*
X204548176Y-52291488D01*
X204606802Y-52296965D01*
X204606802Y-52296965D01*
G37*
D16*
X204433040Y-53214373D03*
D17*
X207010000Y-52444167D03*
D18*
X212705005Y-53879996D03*
D19*
X213476871Y-54740255D02*
X211933139Y-53019737D01*
D13*
X246380000Y-52070000D03*
D14*
X252095000Y-53975000D03*
D15*
G36*
X252634114Y-53827162D02*
G01*
X251889802Y-54494994D01*
X251555886Y-54122838D01*
X252300198Y-53455006D01*
X252634114Y-53827162D01*
X252634114Y-53827162D01*
G37*
G36*
X252710705Y-52291783D02*
G01*
X252769273Y-52297848D01*
X252826964Y-52309625D01*
X252883224Y-52327000D01*
X252937509Y-52349806D01*
X252989298Y-52377822D01*
X253038091Y-52410780D01*
X253083418Y-52448362D01*
X253124844Y-52490206D01*
X253525543Y-52936793D01*
X253562668Y-52982495D01*
X253595135Y-53031617D01*
X253622630Y-53083684D01*
X253644890Y-53138196D01*
X253661699Y-53194627D01*
X253672896Y-53252433D01*
X253678373Y-53311059D01*
X253678078Y-53369940D01*
X253672013Y-53428508D01*
X253660236Y-53486199D01*
X253642861Y-53542458D01*
X253620055Y-53596744D01*
X253592039Y-53648532D01*
X253559081Y-53697326D01*
X253521499Y-53742653D01*
X253479655Y-53784079D01*
X253256362Y-53984428D01*
X253210659Y-54021553D01*
X253161538Y-54054020D01*
X253109471Y-54081515D01*
X253054959Y-54103775D01*
X252998528Y-54120584D01*
X252940722Y-54131781D01*
X252882096Y-54137258D01*
X252823215Y-54136963D01*
X252764647Y-54130898D01*
X252706956Y-54119121D01*
X252650696Y-54101746D01*
X252596411Y-54078940D01*
X252544622Y-54050924D01*
X252495829Y-54017966D01*
X252450502Y-53980384D01*
X252409076Y-53938540D01*
X252008377Y-53491953D01*
X251971252Y-53446251D01*
X251938785Y-53397129D01*
X251911290Y-53345062D01*
X251889030Y-53290550D01*
X251872221Y-53234119D01*
X251861024Y-53176313D01*
X251855547Y-53117687D01*
X251855842Y-53058806D01*
X251861907Y-53000238D01*
X251873684Y-52942547D01*
X251891059Y-52886288D01*
X251913865Y-52832002D01*
X251941881Y-52780214D01*
X251974839Y-52731420D01*
X252012421Y-52686093D01*
X252054265Y-52644667D01*
X252277558Y-52444318D01*
X252323261Y-52407193D01*
X252372382Y-52374726D01*
X252424449Y-52347231D01*
X252478961Y-52324971D01*
X252535392Y-52308162D01*
X252593198Y-52296965D01*
X252651824Y-52291488D01*
X252710705Y-52291783D01*
X252710705Y-52291783D01*
G37*
D16*
X252766960Y-53214373D03*
D17*
X250190000Y-52444167D03*
D18*
X244494995Y-53879996D03*
D19*
X243723129Y-54740255D02*
X245266861Y-53019737D01*
D20*
X247650000Y-51863495D03*
D15*
G36*
X242706802Y-52296965D02*
G01*
X242764608Y-52308162D01*
X242821039Y-52324971D01*
X242875551Y-52347231D01*
X242927618Y-52374726D01*
X242976740Y-52407193D01*
X243022442Y-52444318D01*
X243245735Y-52644667D01*
X243287579Y-52686093D01*
X243325161Y-52731420D01*
X243358119Y-52780213D01*
X243386135Y-52832002D01*
X243408941Y-52886287D01*
X243426316Y-52942547D01*
X243438093Y-53000238D01*
X243444158Y-53058806D01*
X243444453Y-53117687D01*
X243438976Y-53176313D01*
X243427779Y-53234119D01*
X243410970Y-53290550D01*
X243388710Y-53345062D01*
X243361215Y-53397129D01*
X243328748Y-53446250D01*
X243291623Y-53491953D01*
X242890924Y-53938540D01*
X242849498Y-53980384D01*
X242804171Y-54017966D01*
X242755377Y-54050924D01*
X242703589Y-54078940D01*
X242649303Y-54101746D01*
X242593044Y-54119121D01*
X242535353Y-54130898D01*
X242476785Y-54136963D01*
X242417904Y-54137258D01*
X242359278Y-54131781D01*
X242301472Y-54120584D01*
X242245041Y-54103775D01*
X242190529Y-54081515D01*
X242138462Y-54054020D01*
X242089340Y-54021553D01*
X242043638Y-53984428D01*
X241820345Y-53784079D01*
X241778501Y-53742653D01*
X241740919Y-53697326D01*
X241707961Y-53648533D01*
X241679945Y-53596744D01*
X241657139Y-53542459D01*
X241639764Y-53486199D01*
X241627987Y-53428508D01*
X241621922Y-53369940D01*
X241621627Y-53311059D01*
X241627104Y-53252433D01*
X241638301Y-53194627D01*
X241655110Y-53138196D01*
X241677370Y-53083684D01*
X241704865Y-53031617D01*
X241737332Y-52982496D01*
X241774457Y-52936793D01*
X242175156Y-52490206D01*
X242216582Y-52448362D01*
X242261909Y-52410780D01*
X242310703Y-52377822D01*
X242362491Y-52349806D01*
X242416777Y-52327000D01*
X242473036Y-52309625D01*
X242530727Y-52297848D01*
X242589295Y-52291783D01*
X242648176Y-52291488D01*
X242706802Y-52296965D01*
X242706802Y-52296965D01*
G37*
D16*
X242533040Y-53214373D03*
D17*
X245110000Y-52444167D03*
D18*
X250805005Y-53879996D03*
D19*
X251576871Y-54740255D02*
X250033139Y-53019737D01*
D13*
X132080000Y-71120000D03*
D14*
X137795000Y-73025000D03*
D15*
G36*
X138334114Y-72877162D02*
G01*
X137589802Y-73544994D01*
X137255886Y-73172838D01*
X138000198Y-72505006D01*
X138334114Y-72877162D01*
X138334114Y-72877162D01*
G37*
G36*
X138410705Y-71341783D02*
G01*
X138469273Y-71347848D01*
X138526964Y-71359625D01*
X138583224Y-71377000D01*
X138637509Y-71399806D01*
X138689298Y-71427822D01*
X138738091Y-71460780D01*
X138783418Y-71498362D01*
X138824844Y-71540206D01*
X139225543Y-71986793D01*
X139262668Y-72032495D01*
X139295135Y-72081617D01*
X139322630Y-72133684D01*
X139344890Y-72188196D01*
X139361699Y-72244627D01*
X139372896Y-72302433D01*
X139378373Y-72361059D01*
X139378078Y-72419940D01*
X139372013Y-72478508D01*
X139360236Y-72536199D01*
X139342861Y-72592458D01*
X139320055Y-72646744D01*
X139292039Y-72698532D01*
X139259081Y-72747326D01*
X139221499Y-72792653D01*
X139179655Y-72834079D01*
X138956362Y-73034428D01*
X138910659Y-73071553D01*
X138861538Y-73104020D01*
X138809471Y-73131515D01*
X138754959Y-73153775D01*
X138698528Y-73170584D01*
X138640722Y-73181781D01*
X138582096Y-73187258D01*
X138523215Y-73186963D01*
X138464647Y-73180898D01*
X138406956Y-73169121D01*
X138350696Y-73151746D01*
X138296411Y-73128940D01*
X138244622Y-73100924D01*
X138195829Y-73067966D01*
X138150502Y-73030384D01*
X138109076Y-72988540D01*
X137708377Y-72541953D01*
X137671252Y-72496251D01*
X137638785Y-72447129D01*
X137611290Y-72395062D01*
X137589030Y-72340550D01*
X137572221Y-72284119D01*
X137561024Y-72226313D01*
X137555547Y-72167687D01*
X137555842Y-72108806D01*
X137561907Y-72050238D01*
X137573684Y-71992547D01*
X137591059Y-71936288D01*
X137613865Y-71882002D01*
X137641881Y-71830214D01*
X137674839Y-71781420D01*
X137712421Y-71736093D01*
X137754265Y-71694667D01*
X137977558Y-71494318D01*
X138023261Y-71457193D01*
X138072382Y-71424726D01*
X138124449Y-71397231D01*
X138178961Y-71374971D01*
X138235392Y-71358162D01*
X138293198Y-71346965D01*
X138351824Y-71341488D01*
X138410705Y-71341783D01*
X138410705Y-71341783D01*
G37*
D16*
X138466960Y-72264373D03*
D17*
X135890000Y-71494167D03*
D18*
X130194995Y-72929996D03*
D19*
X129423129Y-73790255D02*
X130966861Y-72069737D01*
D20*
X133350000Y-70913495D03*
D15*
G36*
X128406802Y-71346965D02*
G01*
X128464608Y-71358162D01*
X128521039Y-71374971D01*
X128575551Y-71397231D01*
X128627618Y-71424726D01*
X128676740Y-71457193D01*
X128722442Y-71494318D01*
X128945735Y-71694667D01*
X128987579Y-71736093D01*
X129025161Y-71781420D01*
X129058119Y-71830213D01*
X129086135Y-71882002D01*
X129108941Y-71936287D01*
X129126316Y-71992547D01*
X129138093Y-72050238D01*
X129144158Y-72108806D01*
X129144453Y-72167687D01*
X129138976Y-72226313D01*
X129127779Y-72284119D01*
X129110970Y-72340550D01*
X129088710Y-72395062D01*
X129061215Y-72447129D01*
X129028748Y-72496250D01*
X128991623Y-72541953D01*
X128590924Y-72988540D01*
X128549498Y-73030384D01*
X128504171Y-73067966D01*
X128455377Y-73100924D01*
X128403589Y-73128940D01*
X128349303Y-73151746D01*
X128293044Y-73169121D01*
X128235353Y-73180898D01*
X128176785Y-73186963D01*
X128117904Y-73187258D01*
X128059278Y-73181781D01*
X128001472Y-73170584D01*
X127945041Y-73153775D01*
X127890529Y-73131515D01*
X127838462Y-73104020D01*
X127789340Y-73071553D01*
X127743638Y-73034428D01*
X127520345Y-72834079D01*
X127478501Y-72792653D01*
X127440919Y-72747326D01*
X127407961Y-72698533D01*
X127379945Y-72646744D01*
X127357139Y-72592459D01*
X127339764Y-72536199D01*
X127327987Y-72478508D01*
X127321922Y-72419940D01*
X127321627Y-72361059D01*
X127327104Y-72302433D01*
X127338301Y-72244627D01*
X127355110Y-72188196D01*
X127377370Y-72133684D01*
X127404865Y-72081617D01*
X127437332Y-72032496D01*
X127474457Y-71986793D01*
X127875156Y-71540206D01*
X127916582Y-71498362D01*
X127961909Y-71460780D01*
X128010703Y-71427822D01*
X128062491Y-71399806D01*
X128116777Y-71377000D01*
X128173036Y-71359625D01*
X128230727Y-71347848D01*
X128289295Y-71341783D01*
X128348176Y-71341488D01*
X128406802Y-71346965D01*
X128406802Y-71346965D01*
G37*
D16*
X128233040Y-72264373D03*
D17*
X130810000Y-71494167D03*
D18*
X136505005Y-72929996D03*
D19*
X137276871Y-73790255D02*
X135733139Y-72069737D01*
D13*
X151130000Y-71120000D03*
D14*
X156845000Y-73025000D03*
D15*
G36*
X157384114Y-72877162D02*
G01*
X156639802Y-73544994D01*
X156305886Y-73172838D01*
X157050198Y-72505006D01*
X157384114Y-72877162D01*
X157384114Y-72877162D01*
G37*
G36*
X157460705Y-71341783D02*
G01*
X157519273Y-71347848D01*
X157576964Y-71359625D01*
X157633224Y-71377000D01*
X157687509Y-71399806D01*
X157739298Y-71427822D01*
X157788091Y-71460780D01*
X157833418Y-71498362D01*
X157874844Y-71540206D01*
X158275543Y-71986793D01*
X158312668Y-72032495D01*
X158345135Y-72081617D01*
X158372630Y-72133684D01*
X158394890Y-72188196D01*
X158411699Y-72244627D01*
X158422896Y-72302433D01*
X158428373Y-72361059D01*
X158428078Y-72419940D01*
X158422013Y-72478508D01*
X158410236Y-72536199D01*
X158392861Y-72592458D01*
X158370055Y-72646744D01*
X158342039Y-72698532D01*
X158309081Y-72747326D01*
X158271499Y-72792653D01*
X158229655Y-72834079D01*
X158006362Y-73034428D01*
X157960659Y-73071553D01*
X157911538Y-73104020D01*
X157859471Y-73131515D01*
X157804959Y-73153775D01*
X157748528Y-73170584D01*
X157690722Y-73181781D01*
X157632096Y-73187258D01*
X157573215Y-73186963D01*
X157514647Y-73180898D01*
X157456956Y-73169121D01*
X157400696Y-73151746D01*
X157346411Y-73128940D01*
X157294622Y-73100924D01*
X157245829Y-73067966D01*
X157200502Y-73030384D01*
X157159076Y-72988540D01*
X156758377Y-72541953D01*
X156721252Y-72496251D01*
X156688785Y-72447129D01*
X156661290Y-72395062D01*
X156639030Y-72340550D01*
X156622221Y-72284119D01*
X156611024Y-72226313D01*
X156605547Y-72167687D01*
X156605842Y-72108806D01*
X156611907Y-72050238D01*
X156623684Y-71992547D01*
X156641059Y-71936288D01*
X156663865Y-71882002D01*
X156691881Y-71830214D01*
X156724839Y-71781420D01*
X156762421Y-71736093D01*
X156804265Y-71694667D01*
X157027558Y-71494318D01*
X157073261Y-71457193D01*
X157122382Y-71424726D01*
X157174449Y-71397231D01*
X157228961Y-71374971D01*
X157285392Y-71358162D01*
X157343198Y-71346965D01*
X157401824Y-71341488D01*
X157460705Y-71341783D01*
X157460705Y-71341783D01*
G37*
D16*
X157516960Y-72264373D03*
D17*
X154940000Y-71494167D03*
D18*
X149244995Y-72929996D03*
D19*
X148473129Y-73790255D02*
X150016861Y-72069737D01*
D20*
X152400000Y-70913495D03*
D15*
G36*
X147456802Y-71346965D02*
G01*
X147514608Y-71358162D01*
X147571039Y-71374971D01*
X147625551Y-71397231D01*
X147677618Y-71424726D01*
X147726740Y-71457193D01*
X147772442Y-71494318D01*
X147995735Y-71694667D01*
X148037579Y-71736093D01*
X148075161Y-71781420D01*
X148108119Y-71830213D01*
X148136135Y-71882002D01*
X148158941Y-71936287D01*
X148176316Y-71992547D01*
X148188093Y-72050238D01*
X148194158Y-72108806D01*
X148194453Y-72167687D01*
X148188976Y-72226313D01*
X148177779Y-72284119D01*
X148160970Y-72340550D01*
X148138710Y-72395062D01*
X148111215Y-72447129D01*
X148078748Y-72496250D01*
X148041623Y-72541953D01*
X147640924Y-72988540D01*
X147599498Y-73030384D01*
X147554171Y-73067966D01*
X147505377Y-73100924D01*
X147453589Y-73128940D01*
X147399303Y-73151746D01*
X147343044Y-73169121D01*
X147285353Y-73180898D01*
X147226785Y-73186963D01*
X147167904Y-73187258D01*
X147109278Y-73181781D01*
X147051472Y-73170584D01*
X146995041Y-73153775D01*
X146940529Y-73131515D01*
X146888462Y-73104020D01*
X146839340Y-73071553D01*
X146793638Y-73034428D01*
X146570345Y-72834079D01*
X146528501Y-72792653D01*
X146490919Y-72747326D01*
X146457961Y-72698533D01*
X146429945Y-72646744D01*
X146407139Y-72592459D01*
X146389764Y-72536199D01*
X146377987Y-72478508D01*
X146371922Y-72419940D01*
X146371627Y-72361059D01*
X146377104Y-72302433D01*
X146388301Y-72244627D01*
X146405110Y-72188196D01*
X146427370Y-72133684D01*
X146454865Y-72081617D01*
X146487332Y-72032496D01*
X146524457Y-71986793D01*
X146925156Y-71540206D01*
X146966582Y-71498362D01*
X147011909Y-71460780D01*
X147060703Y-71427822D01*
X147112491Y-71399806D01*
X147166777Y-71377000D01*
X147223036Y-71359625D01*
X147280727Y-71347848D01*
X147339295Y-71341783D01*
X147398176Y-71341488D01*
X147456802Y-71346965D01*
X147456802Y-71346965D01*
G37*
D16*
X147283040Y-72264373D03*
D17*
X149860000Y-71494167D03*
D18*
X155555005Y-72929996D03*
D19*
X156326871Y-73790255D02*
X154783139Y-72069737D01*
D13*
X170180000Y-71120000D03*
D14*
X175895000Y-73025000D03*
D15*
G36*
X176434114Y-72877162D02*
G01*
X175689802Y-73544994D01*
X175355886Y-73172838D01*
X176100198Y-72505006D01*
X176434114Y-72877162D01*
X176434114Y-72877162D01*
G37*
G36*
X176510705Y-71341783D02*
G01*
X176569273Y-71347848D01*
X176626964Y-71359625D01*
X176683224Y-71377000D01*
X176737509Y-71399806D01*
X176789298Y-71427822D01*
X176838091Y-71460780D01*
X176883418Y-71498362D01*
X176924844Y-71540206D01*
X177325543Y-71986793D01*
X177362668Y-72032495D01*
X177395135Y-72081617D01*
X177422630Y-72133684D01*
X177444890Y-72188196D01*
X177461699Y-72244627D01*
X177472896Y-72302433D01*
X177478373Y-72361059D01*
X177478078Y-72419940D01*
X177472013Y-72478508D01*
X177460236Y-72536199D01*
X177442861Y-72592458D01*
X177420055Y-72646744D01*
X177392039Y-72698532D01*
X177359081Y-72747326D01*
X177321499Y-72792653D01*
X177279655Y-72834079D01*
X177056362Y-73034428D01*
X177010659Y-73071553D01*
X176961538Y-73104020D01*
X176909471Y-73131515D01*
X176854959Y-73153775D01*
X176798528Y-73170584D01*
X176740722Y-73181781D01*
X176682096Y-73187258D01*
X176623215Y-73186963D01*
X176564647Y-73180898D01*
X176506956Y-73169121D01*
X176450696Y-73151746D01*
X176396411Y-73128940D01*
X176344622Y-73100924D01*
X176295829Y-73067966D01*
X176250502Y-73030384D01*
X176209076Y-72988540D01*
X175808377Y-72541953D01*
X175771252Y-72496251D01*
X175738785Y-72447129D01*
X175711290Y-72395062D01*
X175689030Y-72340550D01*
X175672221Y-72284119D01*
X175661024Y-72226313D01*
X175655547Y-72167687D01*
X175655842Y-72108806D01*
X175661907Y-72050238D01*
X175673684Y-71992547D01*
X175691059Y-71936288D01*
X175713865Y-71882002D01*
X175741881Y-71830214D01*
X175774839Y-71781420D01*
X175812421Y-71736093D01*
X175854265Y-71694667D01*
X176077558Y-71494318D01*
X176123261Y-71457193D01*
X176172382Y-71424726D01*
X176224449Y-71397231D01*
X176278961Y-71374971D01*
X176335392Y-71358162D01*
X176393198Y-71346965D01*
X176451824Y-71341488D01*
X176510705Y-71341783D01*
X176510705Y-71341783D01*
G37*
D16*
X176566960Y-72264373D03*
D17*
X173990000Y-71494167D03*
D18*
X168294995Y-72929996D03*
D19*
X167523129Y-73790255D02*
X169066861Y-72069737D01*
D20*
X171450000Y-70913495D03*
D15*
G36*
X166506802Y-71346965D02*
G01*
X166564608Y-71358162D01*
X166621039Y-71374971D01*
X166675551Y-71397231D01*
X166727618Y-71424726D01*
X166776740Y-71457193D01*
X166822442Y-71494318D01*
X167045735Y-71694667D01*
X167087579Y-71736093D01*
X167125161Y-71781420D01*
X167158119Y-71830213D01*
X167186135Y-71882002D01*
X167208941Y-71936287D01*
X167226316Y-71992547D01*
X167238093Y-72050238D01*
X167244158Y-72108806D01*
X167244453Y-72167687D01*
X167238976Y-72226313D01*
X167227779Y-72284119D01*
X167210970Y-72340550D01*
X167188710Y-72395062D01*
X167161215Y-72447129D01*
X167128748Y-72496250D01*
X167091623Y-72541953D01*
X166690924Y-72988540D01*
X166649498Y-73030384D01*
X166604171Y-73067966D01*
X166555377Y-73100924D01*
X166503589Y-73128940D01*
X166449303Y-73151746D01*
X166393044Y-73169121D01*
X166335353Y-73180898D01*
X166276785Y-73186963D01*
X166217904Y-73187258D01*
X166159278Y-73181781D01*
X166101472Y-73170584D01*
X166045041Y-73153775D01*
X165990529Y-73131515D01*
X165938462Y-73104020D01*
X165889340Y-73071553D01*
X165843638Y-73034428D01*
X165620345Y-72834079D01*
X165578501Y-72792653D01*
X165540919Y-72747326D01*
X165507961Y-72698533D01*
X165479945Y-72646744D01*
X165457139Y-72592459D01*
X165439764Y-72536199D01*
X165427987Y-72478508D01*
X165421922Y-72419940D01*
X165421627Y-72361059D01*
X165427104Y-72302433D01*
X165438301Y-72244627D01*
X165455110Y-72188196D01*
X165477370Y-72133684D01*
X165504865Y-72081617D01*
X165537332Y-72032496D01*
X165574457Y-71986793D01*
X165975156Y-71540206D01*
X166016582Y-71498362D01*
X166061909Y-71460780D01*
X166110703Y-71427822D01*
X166162491Y-71399806D01*
X166216777Y-71377000D01*
X166273036Y-71359625D01*
X166330727Y-71347848D01*
X166389295Y-71341783D01*
X166448176Y-71341488D01*
X166506802Y-71346965D01*
X166506802Y-71346965D01*
G37*
D16*
X166333040Y-72264373D03*
D17*
X168910000Y-71494167D03*
D18*
X174605005Y-72929996D03*
D19*
X175376871Y-73790255D02*
X173833139Y-72069737D01*
D13*
X189230000Y-71120000D03*
D14*
X194945000Y-73025000D03*
D15*
G36*
X195484114Y-72877162D02*
G01*
X194739802Y-73544994D01*
X194405886Y-73172838D01*
X195150198Y-72505006D01*
X195484114Y-72877162D01*
X195484114Y-72877162D01*
G37*
G36*
X195560705Y-71341783D02*
G01*
X195619273Y-71347848D01*
X195676964Y-71359625D01*
X195733224Y-71377000D01*
X195787509Y-71399806D01*
X195839298Y-71427822D01*
X195888091Y-71460780D01*
X195933418Y-71498362D01*
X195974844Y-71540206D01*
X196375543Y-71986793D01*
X196412668Y-72032495D01*
X196445135Y-72081617D01*
X196472630Y-72133684D01*
X196494890Y-72188196D01*
X196511699Y-72244627D01*
X196522896Y-72302433D01*
X196528373Y-72361059D01*
X196528078Y-72419940D01*
X196522013Y-72478508D01*
X196510236Y-72536199D01*
X196492861Y-72592458D01*
X196470055Y-72646744D01*
X196442039Y-72698532D01*
X196409081Y-72747326D01*
X196371499Y-72792653D01*
X196329655Y-72834079D01*
X196106362Y-73034428D01*
X196060659Y-73071553D01*
X196011538Y-73104020D01*
X195959471Y-73131515D01*
X195904959Y-73153775D01*
X195848528Y-73170584D01*
X195790722Y-73181781D01*
X195732096Y-73187258D01*
X195673215Y-73186963D01*
X195614647Y-73180898D01*
X195556956Y-73169121D01*
X195500696Y-73151746D01*
X195446411Y-73128940D01*
X195394622Y-73100924D01*
X195345829Y-73067966D01*
X195300502Y-73030384D01*
X195259076Y-72988540D01*
X194858377Y-72541953D01*
X194821252Y-72496251D01*
X194788785Y-72447129D01*
X194761290Y-72395062D01*
X194739030Y-72340550D01*
X194722221Y-72284119D01*
X194711024Y-72226313D01*
X194705547Y-72167687D01*
X194705842Y-72108806D01*
X194711907Y-72050238D01*
X194723684Y-71992547D01*
X194741059Y-71936288D01*
X194763865Y-71882002D01*
X194791881Y-71830214D01*
X194824839Y-71781420D01*
X194862421Y-71736093D01*
X194904265Y-71694667D01*
X195127558Y-71494318D01*
X195173261Y-71457193D01*
X195222382Y-71424726D01*
X195274449Y-71397231D01*
X195328961Y-71374971D01*
X195385392Y-71358162D01*
X195443198Y-71346965D01*
X195501824Y-71341488D01*
X195560705Y-71341783D01*
X195560705Y-71341783D01*
G37*
D16*
X195616960Y-72264373D03*
D17*
X193040000Y-71494167D03*
D18*
X187344995Y-72929996D03*
D19*
X186573129Y-73790255D02*
X188116861Y-72069737D01*
D20*
X190500000Y-70913495D03*
D15*
G36*
X185556802Y-71346965D02*
G01*
X185614608Y-71358162D01*
X185671039Y-71374971D01*
X185725551Y-71397231D01*
X185777618Y-71424726D01*
X185826740Y-71457193D01*
X185872442Y-71494318D01*
X186095735Y-71694667D01*
X186137579Y-71736093D01*
X186175161Y-71781420D01*
X186208119Y-71830213D01*
X186236135Y-71882002D01*
X186258941Y-71936287D01*
X186276316Y-71992547D01*
X186288093Y-72050238D01*
X186294158Y-72108806D01*
X186294453Y-72167687D01*
X186288976Y-72226313D01*
X186277779Y-72284119D01*
X186260970Y-72340550D01*
X186238710Y-72395062D01*
X186211215Y-72447129D01*
X186178748Y-72496250D01*
X186141623Y-72541953D01*
X185740924Y-72988540D01*
X185699498Y-73030384D01*
X185654171Y-73067966D01*
X185605377Y-73100924D01*
X185553589Y-73128940D01*
X185499303Y-73151746D01*
X185443044Y-73169121D01*
X185385353Y-73180898D01*
X185326785Y-73186963D01*
X185267904Y-73187258D01*
X185209278Y-73181781D01*
X185151472Y-73170584D01*
X185095041Y-73153775D01*
X185040529Y-73131515D01*
X184988462Y-73104020D01*
X184939340Y-73071553D01*
X184893638Y-73034428D01*
X184670345Y-72834079D01*
X184628501Y-72792653D01*
X184590919Y-72747326D01*
X184557961Y-72698533D01*
X184529945Y-72646744D01*
X184507139Y-72592459D01*
X184489764Y-72536199D01*
X184477987Y-72478508D01*
X184471922Y-72419940D01*
X184471627Y-72361059D01*
X184477104Y-72302433D01*
X184488301Y-72244627D01*
X184505110Y-72188196D01*
X184527370Y-72133684D01*
X184554865Y-72081617D01*
X184587332Y-72032496D01*
X184624457Y-71986793D01*
X185025156Y-71540206D01*
X185066582Y-71498362D01*
X185111909Y-71460780D01*
X185160703Y-71427822D01*
X185212491Y-71399806D01*
X185266777Y-71377000D01*
X185323036Y-71359625D01*
X185380727Y-71347848D01*
X185439295Y-71341783D01*
X185498176Y-71341488D01*
X185556802Y-71346965D01*
X185556802Y-71346965D01*
G37*
D16*
X185383040Y-72264373D03*
D17*
X187960000Y-71494167D03*
D18*
X193655005Y-72929996D03*
D19*
X194426871Y-73790255D02*
X192883139Y-72069737D01*
D13*
X208280000Y-71120000D03*
D14*
X213995000Y-73025000D03*
D15*
G36*
X214534114Y-72877162D02*
G01*
X213789802Y-73544994D01*
X213455886Y-73172838D01*
X214200198Y-72505006D01*
X214534114Y-72877162D01*
X214534114Y-72877162D01*
G37*
G36*
X214610705Y-71341783D02*
G01*
X214669273Y-71347848D01*
X214726964Y-71359625D01*
X214783224Y-71377000D01*
X214837509Y-71399806D01*
X214889298Y-71427822D01*
X214938091Y-71460780D01*
X214983418Y-71498362D01*
X215024844Y-71540206D01*
X215425543Y-71986793D01*
X215462668Y-72032495D01*
X215495135Y-72081617D01*
X215522630Y-72133684D01*
X215544890Y-72188196D01*
X215561699Y-72244627D01*
X215572896Y-72302433D01*
X215578373Y-72361059D01*
X215578078Y-72419940D01*
X215572013Y-72478508D01*
X215560236Y-72536199D01*
X215542861Y-72592458D01*
X215520055Y-72646744D01*
X215492039Y-72698532D01*
X215459081Y-72747326D01*
X215421499Y-72792653D01*
X215379655Y-72834079D01*
X215156362Y-73034428D01*
X215110659Y-73071553D01*
X215061538Y-73104020D01*
X215009471Y-73131515D01*
X214954959Y-73153775D01*
X214898528Y-73170584D01*
X214840722Y-73181781D01*
X214782096Y-73187258D01*
X214723215Y-73186963D01*
X214664647Y-73180898D01*
X214606956Y-73169121D01*
X214550696Y-73151746D01*
X214496411Y-73128940D01*
X214444622Y-73100924D01*
X214395829Y-73067966D01*
X214350502Y-73030384D01*
X214309076Y-72988540D01*
X213908377Y-72541953D01*
X213871252Y-72496251D01*
X213838785Y-72447129D01*
X213811290Y-72395062D01*
X213789030Y-72340550D01*
X213772221Y-72284119D01*
X213761024Y-72226313D01*
X213755547Y-72167687D01*
X213755842Y-72108806D01*
X213761907Y-72050238D01*
X213773684Y-71992547D01*
X213791059Y-71936288D01*
X213813865Y-71882002D01*
X213841881Y-71830214D01*
X213874839Y-71781420D01*
X213912421Y-71736093D01*
X213954265Y-71694667D01*
X214177558Y-71494318D01*
X214223261Y-71457193D01*
X214272382Y-71424726D01*
X214324449Y-71397231D01*
X214378961Y-71374971D01*
X214435392Y-71358162D01*
X214493198Y-71346965D01*
X214551824Y-71341488D01*
X214610705Y-71341783D01*
X214610705Y-71341783D01*
G37*
D16*
X214666960Y-72264373D03*
D17*
X212090000Y-71494167D03*
D18*
X206394995Y-72929996D03*
D19*
X205623129Y-73790255D02*
X207166861Y-72069737D01*
D20*
X209550000Y-70913495D03*
D15*
G36*
X204606802Y-71346965D02*
G01*
X204664608Y-71358162D01*
X204721039Y-71374971D01*
X204775551Y-71397231D01*
X204827618Y-71424726D01*
X204876740Y-71457193D01*
X204922442Y-71494318D01*
X205145735Y-71694667D01*
X205187579Y-71736093D01*
X205225161Y-71781420D01*
X205258119Y-71830213D01*
X205286135Y-71882002D01*
X205308941Y-71936287D01*
X205326316Y-71992547D01*
X205338093Y-72050238D01*
X205344158Y-72108806D01*
X205344453Y-72167687D01*
X205338976Y-72226313D01*
X205327779Y-72284119D01*
X205310970Y-72340550D01*
X205288710Y-72395062D01*
X205261215Y-72447129D01*
X205228748Y-72496250D01*
X205191623Y-72541953D01*
X204790924Y-72988540D01*
X204749498Y-73030384D01*
X204704171Y-73067966D01*
X204655377Y-73100924D01*
X204603589Y-73128940D01*
X204549303Y-73151746D01*
X204493044Y-73169121D01*
X204435353Y-73180898D01*
X204376785Y-73186963D01*
X204317904Y-73187258D01*
X204259278Y-73181781D01*
X204201472Y-73170584D01*
X204145041Y-73153775D01*
X204090529Y-73131515D01*
X204038462Y-73104020D01*
X203989340Y-73071553D01*
X203943638Y-73034428D01*
X203720345Y-72834079D01*
X203678501Y-72792653D01*
X203640919Y-72747326D01*
X203607961Y-72698533D01*
X203579945Y-72646744D01*
X203557139Y-72592459D01*
X203539764Y-72536199D01*
X203527987Y-72478508D01*
X203521922Y-72419940D01*
X203521627Y-72361059D01*
X203527104Y-72302433D01*
X203538301Y-72244627D01*
X203555110Y-72188196D01*
X203577370Y-72133684D01*
X203604865Y-72081617D01*
X203637332Y-72032496D01*
X203674457Y-71986793D01*
X204075156Y-71540206D01*
X204116582Y-71498362D01*
X204161909Y-71460780D01*
X204210703Y-71427822D01*
X204262491Y-71399806D01*
X204316777Y-71377000D01*
X204373036Y-71359625D01*
X204430727Y-71347848D01*
X204489295Y-71341783D01*
X204548176Y-71341488D01*
X204606802Y-71346965D01*
X204606802Y-71346965D01*
G37*
D16*
X204433040Y-72264373D03*
D17*
X207010000Y-71494167D03*
D18*
X212705005Y-72929996D03*
D19*
X213476871Y-73790255D02*
X211933139Y-72069737D01*
D13*
X246380000Y-71120000D03*
D14*
X252095000Y-73025000D03*
D15*
G36*
X252634114Y-72877162D02*
G01*
X251889802Y-73544994D01*
X251555886Y-73172838D01*
X252300198Y-72505006D01*
X252634114Y-72877162D01*
X252634114Y-72877162D01*
G37*
G36*
X252710705Y-71341783D02*
G01*
X252769273Y-71347848D01*
X252826964Y-71359625D01*
X252883224Y-71377000D01*
X252937509Y-71399806D01*
X252989298Y-71427822D01*
X253038091Y-71460780D01*
X253083418Y-71498362D01*
X253124844Y-71540206D01*
X253525543Y-71986793D01*
X253562668Y-72032495D01*
X253595135Y-72081617D01*
X253622630Y-72133684D01*
X253644890Y-72188196D01*
X253661699Y-72244627D01*
X253672896Y-72302433D01*
X253678373Y-72361059D01*
X253678078Y-72419940D01*
X253672013Y-72478508D01*
X253660236Y-72536199D01*
X253642861Y-72592458D01*
X253620055Y-72646744D01*
X253592039Y-72698532D01*
X253559081Y-72747326D01*
X253521499Y-72792653D01*
X253479655Y-72834079D01*
X253256362Y-73034428D01*
X253210659Y-73071553D01*
X253161538Y-73104020D01*
X253109471Y-73131515D01*
X253054959Y-73153775D01*
X252998528Y-73170584D01*
X252940722Y-73181781D01*
X252882096Y-73187258D01*
X252823215Y-73186963D01*
X252764647Y-73180898D01*
X252706956Y-73169121D01*
X252650696Y-73151746D01*
X252596411Y-73128940D01*
X252544622Y-73100924D01*
X252495829Y-73067966D01*
X252450502Y-73030384D01*
X252409076Y-72988540D01*
X252008377Y-72541953D01*
X251971252Y-72496251D01*
X251938785Y-72447129D01*
X251911290Y-72395062D01*
X251889030Y-72340550D01*
X251872221Y-72284119D01*
X251861024Y-72226313D01*
X251855547Y-72167687D01*
X251855842Y-72108806D01*
X251861907Y-72050238D01*
X251873684Y-71992547D01*
X251891059Y-71936288D01*
X251913865Y-71882002D01*
X251941881Y-71830214D01*
X251974839Y-71781420D01*
X252012421Y-71736093D01*
X252054265Y-71694667D01*
X252277558Y-71494318D01*
X252323261Y-71457193D01*
X252372382Y-71424726D01*
X252424449Y-71397231D01*
X252478961Y-71374971D01*
X252535392Y-71358162D01*
X252593198Y-71346965D01*
X252651824Y-71341488D01*
X252710705Y-71341783D01*
X252710705Y-71341783D01*
G37*
D16*
X252766960Y-72264373D03*
D17*
X250190000Y-71494167D03*
D18*
X244494995Y-72929996D03*
D19*
X243723129Y-73790255D02*
X245266861Y-72069737D01*
D20*
X247650000Y-70913495D03*
D15*
G36*
X242706802Y-71346965D02*
G01*
X242764608Y-71358162D01*
X242821039Y-71374971D01*
X242875551Y-71397231D01*
X242927618Y-71424726D01*
X242976740Y-71457193D01*
X243022442Y-71494318D01*
X243245735Y-71694667D01*
X243287579Y-71736093D01*
X243325161Y-71781420D01*
X243358119Y-71830213D01*
X243386135Y-71882002D01*
X243408941Y-71936287D01*
X243426316Y-71992547D01*
X243438093Y-72050238D01*
X243444158Y-72108806D01*
X243444453Y-72167687D01*
X243438976Y-72226313D01*
X243427779Y-72284119D01*
X243410970Y-72340550D01*
X243388710Y-72395062D01*
X243361215Y-72447129D01*
X243328748Y-72496250D01*
X243291623Y-72541953D01*
X242890924Y-72988540D01*
X242849498Y-73030384D01*
X242804171Y-73067966D01*
X242755377Y-73100924D01*
X242703589Y-73128940D01*
X242649303Y-73151746D01*
X242593044Y-73169121D01*
X242535353Y-73180898D01*
X242476785Y-73186963D01*
X242417904Y-73187258D01*
X242359278Y-73181781D01*
X242301472Y-73170584D01*
X242245041Y-73153775D01*
X242190529Y-73131515D01*
X242138462Y-73104020D01*
X242089340Y-73071553D01*
X242043638Y-73034428D01*
X241820345Y-72834079D01*
X241778501Y-72792653D01*
X241740919Y-72747326D01*
X241707961Y-72698533D01*
X241679945Y-72646744D01*
X241657139Y-72592459D01*
X241639764Y-72536199D01*
X241627987Y-72478508D01*
X241621922Y-72419940D01*
X241621627Y-72361059D01*
X241627104Y-72302433D01*
X241638301Y-72244627D01*
X241655110Y-72188196D01*
X241677370Y-72133684D01*
X241704865Y-72081617D01*
X241737332Y-72032496D01*
X241774457Y-71986793D01*
X242175156Y-71540206D01*
X242216582Y-71498362D01*
X242261909Y-71460780D01*
X242310703Y-71427822D01*
X242362491Y-71399806D01*
X242416777Y-71377000D01*
X242473036Y-71359625D01*
X242530727Y-71347848D01*
X242589295Y-71341783D01*
X242648176Y-71341488D01*
X242706802Y-71346965D01*
X242706802Y-71346965D01*
G37*
D16*
X242533040Y-72264373D03*
D17*
X245110000Y-71494167D03*
D18*
X250805005Y-72929996D03*
D19*
X251576871Y-73790255D02*
X250033139Y-72069737D01*
D13*
X132080000Y-90170000D03*
D14*
X137795000Y-92075000D03*
D15*
G36*
X138334114Y-91927162D02*
G01*
X137589802Y-92594994D01*
X137255886Y-92222838D01*
X138000198Y-91555006D01*
X138334114Y-91927162D01*
X138334114Y-91927162D01*
G37*
G36*
X138410705Y-90391783D02*
G01*
X138469273Y-90397848D01*
X138526964Y-90409625D01*
X138583224Y-90427000D01*
X138637509Y-90449806D01*
X138689298Y-90477822D01*
X138738091Y-90510780D01*
X138783418Y-90548362D01*
X138824844Y-90590206D01*
X139225543Y-91036793D01*
X139262668Y-91082495D01*
X139295135Y-91131617D01*
X139322630Y-91183684D01*
X139344890Y-91238196D01*
X139361699Y-91294627D01*
X139372896Y-91352433D01*
X139378373Y-91411059D01*
X139378078Y-91469940D01*
X139372013Y-91528508D01*
X139360236Y-91586199D01*
X139342861Y-91642458D01*
X139320055Y-91696744D01*
X139292039Y-91748532D01*
X139259081Y-91797326D01*
X139221499Y-91842653D01*
X139179655Y-91884079D01*
X138956362Y-92084428D01*
X138910659Y-92121553D01*
X138861538Y-92154020D01*
X138809471Y-92181515D01*
X138754959Y-92203775D01*
X138698528Y-92220584D01*
X138640722Y-92231781D01*
X138582096Y-92237258D01*
X138523215Y-92236963D01*
X138464647Y-92230898D01*
X138406956Y-92219121D01*
X138350696Y-92201746D01*
X138296411Y-92178940D01*
X138244622Y-92150924D01*
X138195829Y-92117966D01*
X138150502Y-92080384D01*
X138109076Y-92038540D01*
X137708377Y-91591953D01*
X137671252Y-91546251D01*
X137638785Y-91497129D01*
X137611290Y-91445062D01*
X137589030Y-91390550D01*
X137572221Y-91334119D01*
X137561024Y-91276313D01*
X137555547Y-91217687D01*
X137555842Y-91158806D01*
X137561907Y-91100238D01*
X137573684Y-91042547D01*
X137591059Y-90986288D01*
X137613865Y-90932002D01*
X137641881Y-90880214D01*
X137674839Y-90831420D01*
X137712421Y-90786093D01*
X137754265Y-90744667D01*
X137977558Y-90544318D01*
X138023261Y-90507193D01*
X138072382Y-90474726D01*
X138124449Y-90447231D01*
X138178961Y-90424971D01*
X138235392Y-90408162D01*
X138293198Y-90396965D01*
X138351824Y-90391488D01*
X138410705Y-90391783D01*
X138410705Y-90391783D01*
G37*
D16*
X138466960Y-91314373D03*
D17*
X135890000Y-90544167D03*
D18*
X130194995Y-91979996D03*
D19*
X129423129Y-92840255D02*
X130966861Y-91119737D01*
D20*
X133350000Y-89963495D03*
D15*
G36*
X128406802Y-90396965D02*
G01*
X128464608Y-90408162D01*
X128521039Y-90424971D01*
X128575551Y-90447231D01*
X128627618Y-90474726D01*
X128676740Y-90507193D01*
X128722442Y-90544318D01*
X128945735Y-90744667D01*
X128987579Y-90786093D01*
X129025161Y-90831420D01*
X129058119Y-90880213D01*
X129086135Y-90932002D01*
X129108941Y-90986287D01*
X129126316Y-91042547D01*
X129138093Y-91100238D01*
X129144158Y-91158806D01*
X129144453Y-91217687D01*
X129138976Y-91276313D01*
X129127779Y-91334119D01*
X129110970Y-91390550D01*
X129088710Y-91445062D01*
X129061215Y-91497129D01*
X129028748Y-91546250D01*
X128991623Y-91591953D01*
X128590924Y-92038540D01*
X128549498Y-92080384D01*
X128504171Y-92117966D01*
X128455377Y-92150924D01*
X128403589Y-92178940D01*
X128349303Y-92201746D01*
X128293044Y-92219121D01*
X128235353Y-92230898D01*
X128176785Y-92236963D01*
X128117904Y-92237258D01*
X128059278Y-92231781D01*
X128001472Y-92220584D01*
X127945041Y-92203775D01*
X127890529Y-92181515D01*
X127838462Y-92154020D01*
X127789340Y-92121553D01*
X127743638Y-92084428D01*
X127520345Y-91884079D01*
X127478501Y-91842653D01*
X127440919Y-91797326D01*
X127407961Y-91748533D01*
X127379945Y-91696744D01*
X127357139Y-91642459D01*
X127339764Y-91586199D01*
X127327987Y-91528508D01*
X127321922Y-91469940D01*
X127321627Y-91411059D01*
X127327104Y-91352433D01*
X127338301Y-91294627D01*
X127355110Y-91238196D01*
X127377370Y-91183684D01*
X127404865Y-91131617D01*
X127437332Y-91082496D01*
X127474457Y-91036793D01*
X127875156Y-90590206D01*
X127916582Y-90548362D01*
X127961909Y-90510780D01*
X128010703Y-90477822D01*
X128062491Y-90449806D01*
X128116777Y-90427000D01*
X128173036Y-90409625D01*
X128230727Y-90397848D01*
X128289295Y-90391783D01*
X128348176Y-90391488D01*
X128406802Y-90396965D01*
X128406802Y-90396965D01*
G37*
D16*
X128233040Y-91314373D03*
D17*
X130810000Y-90544167D03*
D18*
X136505005Y-91979996D03*
D19*
X137276871Y-92840255D02*
X135733139Y-91119737D01*
D13*
X151130000Y-90170000D03*
D14*
X156845000Y-92075000D03*
D15*
G36*
X157384114Y-91927162D02*
G01*
X156639802Y-92594994D01*
X156305886Y-92222838D01*
X157050198Y-91555006D01*
X157384114Y-91927162D01*
X157384114Y-91927162D01*
G37*
G36*
X157460705Y-90391783D02*
G01*
X157519273Y-90397848D01*
X157576964Y-90409625D01*
X157633224Y-90427000D01*
X157687509Y-90449806D01*
X157739298Y-90477822D01*
X157788091Y-90510780D01*
X157833418Y-90548362D01*
X157874844Y-90590206D01*
X158275543Y-91036793D01*
X158312668Y-91082495D01*
X158345135Y-91131617D01*
X158372630Y-91183684D01*
X158394890Y-91238196D01*
X158411699Y-91294627D01*
X158422896Y-91352433D01*
X158428373Y-91411059D01*
X158428078Y-91469940D01*
X158422013Y-91528508D01*
X158410236Y-91586199D01*
X158392861Y-91642458D01*
X158370055Y-91696744D01*
X158342039Y-91748532D01*
X158309081Y-91797326D01*
X158271499Y-91842653D01*
X158229655Y-91884079D01*
X158006362Y-92084428D01*
X157960659Y-92121553D01*
X157911538Y-92154020D01*
X157859471Y-92181515D01*
X157804959Y-92203775D01*
X157748528Y-92220584D01*
X157690722Y-92231781D01*
X157632096Y-92237258D01*
X157573215Y-92236963D01*
X157514647Y-92230898D01*
X157456956Y-92219121D01*
X157400696Y-92201746D01*
X157346411Y-92178940D01*
X157294622Y-92150924D01*
X157245829Y-92117966D01*
X157200502Y-92080384D01*
X157159076Y-92038540D01*
X156758377Y-91591953D01*
X156721252Y-91546251D01*
X156688785Y-91497129D01*
X156661290Y-91445062D01*
X156639030Y-91390550D01*
X156622221Y-91334119D01*
X156611024Y-91276313D01*
X156605547Y-91217687D01*
X156605842Y-91158806D01*
X156611907Y-91100238D01*
X156623684Y-91042547D01*
X156641059Y-90986288D01*
X156663865Y-90932002D01*
X156691881Y-90880214D01*
X156724839Y-90831420D01*
X156762421Y-90786093D01*
X156804265Y-90744667D01*
X157027558Y-90544318D01*
X157073261Y-90507193D01*
X157122382Y-90474726D01*
X157174449Y-90447231D01*
X157228961Y-90424971D01*
X157285392Y-90408162D01*
X157343198Y-90396965D01*
X157401824Y-90391488D01*
X157460705Y-90391783D01*
X157460705Y-90391783D01*
G37*
D16*
X157516960Y-91314373D03*
D17*
X154940000Y-90544167D03*
D18*
X149244995Y-91979996D03*
D19*
X148473129Y-92840255D02*
X150016861Y-91119737D01*
D20*
X152400000Y-89963495D03*
D15*
G36*
X147456802Y-90396965D02*
G01*
X147514608Y-90408162D01*
X147571039Y-90424971D01*
X147625551Y-90447231D01*
X147677618Y-90474726D01*
X147726740Y-90507193D01*
X147772442Y-90544318D01*
X147995735Y-90744667D01*
X148037579Y-90786093D01*
X148075161Y-90831420D01*
X148108119Y-90880213D01*
X148136135Y-90932002D01*
X148158941Y-90986287D01*
X148176316Y-91042547D01*
X148188093Y-91100238D01*
X148194158Y-91158806D01*
X148194453Y-91217687D01*
X148188976Y-91276313D01*
X148177779Y-91334119D01*
X148160970Y-91390550D01*
X148138710Y-91445062D01*
X148111215Y-91497129D01*
X148078748Y-91546250D01*
X148041623Y-91591953D01*
X147640924Y-92038540D01*
X147599498Y-92080384D01*
X147554171Y-92117966D01*
X147505377Y-92150924D01*
X147453589Y-92178940D01*
X147399303Y-92201746D01*
X147343044Y-92219121D01*
X147285353Y-92230898D01*
X147226785Y-92236963D01*
X147167904Y-92237258D01*
X147109278Y-92231781D01*
X147051472Y-92220584D01*
X146995041Y-92203775D01*
X146940529Y-92181515D01*
X146888462Y-92154020D01*
X146839340Y-92121553D01*
X146793638Y-92084428D01*
X146570345Y-91884079D01*
X146528501Y-91842653D01*
X146490919Y-91797326D01*
X146457961Y-91748533D01*
X146429945Y-91696744D01*
X146407139Y-91642459D01*
X146389764Y-91586199D01*
X146377987Y-91528508D01*
X146371922Y-91469940D01*
X146371627Y-91411059D01*
X146377104Y-91352433D01*
X146388301Y-91294627D01*
X146405110Y-91238196D01*
X146427370Y-91183684D01*
X146454865Y-91131617D01*
X146487332Y-91082496D01*
X146524457Y-91036793D01*
X146925156Y-90590206D01*
X146966582Y-90548362D01*
X147011909Y-90510780D01*
X147060703Y-90477822D01*
X147112491Y-90449806D01*
X147166777Y-90427000D01*
X147223036Y-90409625D01*
X147280727Y-90397848D01*
X147339295Y-90391783D01*
X147398176Y-90391488D01*
X147456802Y-90396965D01*
X147456802Y-90396965D01*
G37*
D16*
X147283040Y-91314373D03*
D17*
X149860000Y-90544167D03*
D18*
X155555005Y-91979996D03*
D19*
X156326871Y-92840255D02*
X154783139Y-91119737D01*
D13*
X170180000Y-90170000D03*
D14*
X175895000Y-92075000D03*
D15*
G36*
X176434114Y-91927162D02*
G01*
X175689802Y-92594994D01*
X175355886Y-92222838D01*
X176100198Y-91555006D01*
X176434114Y-91927162D01*
X176434114Y-91927162D01*
G37*
G36*
X176510705Y-90391783D02*
G01*
X176569273Y-90397848D01*
X176626964Y-90409625D01*
X176683224Y-90427000D01*
X176737509Y-90449806D01*
X176789298Y-90477822D01*
X176838091Y-90510780D01*
X176883418Y-90548362D01*
X176924844Y-90590206D01*
X177325543Y-91036793D01*
X177362668Y-91082495D01*
X177395135Y-91131617D01*
X177422630Y-91183684D01*
X177444890Y-91238196D01*
X177461699Y-91294627D01*
X177472896Y-91352433D01*
X177478373Y-91411059D01*
X177478078Y-91469940D01*
X177472013Y-91528508D01*
X177460236Y-91586199D01*
X177442861Y-91642458D01*
X177420055Y-91696744D01*
X177392039Y-91748532D01*
X177359081Y-91797326D01*
X177321499Y-91842653D01*
X177279655Y-91884079D01*
X177056362Y-92084428D01*
X177010659Y-92121553D01*
X176961538Y-92154020D01*
X176909471Y-92181515D01*
X176854959Y-92203775D01*
X176798528Y-92220584D01*
X176740722Y-92231781D01*
X176682096Y-92237258D01*
X176623215Y-92236963D01*
X176564647Y-92230898D01*
X176506956Y-92219121D01*
X176450696Y-92201746D01*
X176396411Y-92178940D01*
X176344622Y-92150924D01*
X176295829Y-92117966D01*
X176250502Y-92080384D01*
X176209076Y-92038540D01*
X175808377Y-91591953D01*
X175771252Y-91546251D01*
X175738785Y-91497129D01*
X175711290Y-91445062D01*
X175689030Y-91390550D01*
X175672221Y-91334119D01*
X175661024Y-91276313D01*
X175655547Y-91217687D01*
X175655842Y-91158806D01*
X175661907Y-91100238D01*
X175673684Y-91042547D01*
X175691059Y-90986288D01*
X175713865Y-90932002D01*
X175741881Y-90880214D01*
X175774839Y-90831420D01*
X175812421Y-90786093D01*
X175854265Y-90744667D01*
X176077558Y-90544318D01*
X176123261Y-90507193D01*
X176172382Y-90474726D01*
X176224449Y-90447231D01*
X176278961Y-90424971D01*
X176335392Y-90408162D01*
X176393198Y-90396965D01*
X176451824Y-90391488D01*
X176510705Y-90391783D01*
X176510705Y-90391783D01*
G37*
D16*
X176566960Y-91314373D03*
D17*
X173990000Y-90544167D03*
D18*
X168294995Y-91979996D03*
D19*
X167523129Y-92840255D02*
X169066861Y-91119737D01*
D20*
X171450000Y-89963495D03*
D15*
G36*
X166506802Y-90396965D02*
G01*
X166564608Y-90408162D01*
X166621039Y-90424971D01*
X166675551Y-90447231D01*
X166727618Y-90474726D01*
X166776740Y-90507193D01*
X166822442Y-90544318D01*
X167045735Y-90744667D01*
X167087579Y-90786093D01*
X167125161Y-90831420D01*
X167158119Y-90880213D01*
X167186135Y-90932002D01*
X167208941Y-90986287D01*
X167226316Y-91042547D01*
X167238093Y-91100238D01*
X167244158Y-91158806D01*
X167244453Y-91217687D01*
X167238976Y-91276313D01*
X167227779Y-91334119D01*
X167210970Y-91390550D01*
X167188710Y-91445062D01*
X167161215Y-91497129D01*
X167128748Y-91546250D01*
X167091623Y-91591953D01*
X166690924Y-92038540D01*
X166649498Y-92080384D01*
X166604171Y-92117966D01*
X166555377Y-92150924D01*
X166503589Y-92178940D01*
X166449303Y-92201746D01*
X166393044Y-92219121D01*
X166335353Y-92230898D01*
X166276785Y-92236963D01*
X166217904Y-92237258D01*
X166159278Y-92231781D01*
X166101472Y-92220584D01*
X166045041Y-92203775D01*
X165990529Y-92181515D01*
X165938462Y-92154020D01*
X165889340Y-92121553D01*
X165843638Y-92084428D01*
X165620345Y-91884079D01*
X165578501Y-91842653D01*
X165540919Y-91797326D01*
X165507961Y-91748533D01*
X165479945Y-91696744D01*
X165457139Y-91642459D01*
X165439764Y-91586199D01*
X165427987Y-91528508D01*
X165421922Y-91469940D01*
X165421627Y-91411059D01*
X165427104Y-91352433D01*
X165438301Y-91294627D01*
X165455110Y-91238196D01*
X165477370Y-91183684D01*
X165504865Y-91131617D01*
X165537332Y-91082496D01*
X165574457Y-91036793D01*
X165975156Y-90590206D01*
X166016582Y-90548362D01*
X166061909Y-90510780D01*
X166110703Y-90477822D01*
X166162491Y-90449806D01*
X166216777Y-90427000D01*
X166273036Y-90409625D01*
X166330727Y-90397848D01*
X166389295Y-90391783D01*
X166448176Y-90391488D01*
X166506802Y-90396965D01*
X166506802Y-90396965D01*
G37*
D16*
X166333040Y-91314373D03*
D17*
X168910000Y-90544167D03*
D18*
X174605005Y-91979996D03*
D19*
X175376871Y-92840255D02*
X173833139Y-91119737D01*
D13*
X189230000Y-90170000D03*
D14*
X194945000Y-92075000D03*
D15*
G36*
X195484114Y-91927162D02*
G01*
X194739802Y-92594994D01*
X194405886Y-92222838D01*
X195150198Y-91555006D01*
X195484114Y-91927162D01*
X195484114Y-91927162D01*
G37*
G36*
X195560705Y-90391783D02*
G01*
X195619273Y-90397848D01*
X195676964Y-90409625D01*
X195733224Y-90427000D01*
X195787509Y-90449806D01*
X195839298Y-90477822D01*
X195888091Y-90510780D01*
X195933418Y-90548362D01*
X195974844Y-90590206D01*
X196375543Y-91036793D01*
X196412668Y-91082495D01*
X196445135Y-91131617D01*
X196472630Y-91183684D01*
X196494890Y-91238196D01*
X196511699Y-91294627D01*
X196522896Y-91352433D01*
X196528373Y-91411059D01*
X196528078Y-91469940D01*
X196522013Y-91528508D01*
X196510236Y-91586199D01*
X196492861Y-91642458D01*
X196470055Y-91696744D01*
X196442039Y-91748532D01*
X196409081Y-91797326D01*
X196371499Y-91842653D01*
X196329655Y-91884079D01*
X196106362Y-92084428D01*
X196060659Y-92121553D01*
X196011538Y-92154020D01*
X195959471Y-92181515D01*
X195904959Y-92203775D01*
X195848528Y-92220584D01*
X195790722Y-92231781D01*
X195732096Y-92237258D01*
X195673215Y-92236963D01*
X195614647Y-92230898D01*
X195556956Y-92219121D01*
X195500696Y-92201746D01*
X195446411Y-92178940D01*
X195394622Y-92150924D01*
X195345829Y-92117966D01*
X195300502Y-92080384D01*
X195259076Y-92038540D01*
X194858377Y-91591953D01*
X194821252Y-91546251D01*
X194788785Y-91497129D01*
X194761290Y-91445062D01*
X194739030Y-91390550D01*
X194722221Y-91334119D01*
X194711024Y-91276313D01*
X194705547Y-91217687D01*
X194705842Y-91158806D01*
X194711907Y-91100238D01*
X194723684Y-91042547D01*
X194741059Y-90986288D01*
X194763865Y-90932002D01*
X194791881Y-90880214D01*
X194824839Y-90831420D01*
X194862421Y-90786093D01*
X194904265Y-90744667D01*
X195127558Y-90544318D01*
X195173261Y-90507193D01*
X195222382Y-90474726D01*
X195274449Y-90447231D01*
X195328961Y-90424971D01*
X195385392Y-90408162D01*
X195443198Y-90396965D01*
X195501824Y-90391488D01*
X195560705Y-90391783D01*
X195560705Y-90391783D01*
G37*
D16*
X195616960Y-91314373D03*
D17*
X193040000Y-90544167D03*
D18*
X187344995Y-91979996D03*
D19*
X186573129Y-92840255D02*
X188116861Y-91119737D01*
D20*
X190500000Y-89963495D03*
D15*
G36*
X185556802Y-90396965D02*
G01*
X185614608Y-90408162D01*
X185671039Y-90424971D01*
X185725551Y-90447231D01*
X185777618Y-90474726D01*
X185826740Y-90507193D01*
X185872442Y-90544318D01*
X186095735Y-90744667D01*
X186137579Y-90786093D01*
X186175161Y-90831420D01*
X186208119Y-90880213D01*
X186236135Y-90932002D01*
X186258941Y-90986287D01*
X186276316Y-91042547D01*
X186288093Y-91100238D01*
X186294158Y-91158806D01*
X186294453Y-91217687D01*
X186288976Y-91276313D01*
X186277779Y-91334119D01*
X186260970Y-91390550D01*
X186238710Y-91445062D01*
X186211215Y-91497129D01*
X186178748Y-91546250D01*
X186141623Y-91591953D01*
X185740924Y-92038540D01*
X185699498Y-92080384D01*
X185654171Y-92117966D01*
X185605377Y-92150924D01*
X185553589Y-92178940D01*
X185499303Y-92201746D01*
X185443044Y-92219121D01*
X185385353Y-92230898D01*
X185326785Y-92236963D01*
X185267904Y-92237258D01*
X185209278Y-92231781D01*
X185151472Y-92220584D01*
X185095041Y-92203775D01*
X185040529Y-92181515D01*
X184988462Y-92154020D01*
X184939340Y-92121553D01*
X184893638Y-92084428D01*
X184670345Y-91884079D01*
X184628501Y-91842653D01*
X184590919Y-91797326D01*
X184557961Y-91748533D01*
X184529945Y-91696744D01*
X184507139Y-91642459D01*
X184489764Y-91586199D01*
X184477987Y-91528508D01*
X184471922Y-91469940D01*
X184471627Y-91411059D01*
X184477104Y-91352433D01*
X184488301Y-91294627D01*
X184505110Y-91238196D01*
X184527370Y-91183684D01*
X184554865Y-91131617D01*
X184587332Y-91082496D01*
X184624457Y-91036793D01*
X185025156Y-90590206D01*
X185066582Y-90548362D01*
X185111909Y-90510780D01*
X185160703Y-90477822D01*
X185212491Y-90449806D01*
X185266777Y-90427000D01*
X185323036Y-90409625D01*
X185380727Y-90397848D01*
X185439295Y-90391783D01*
X185498176Y-90391488D01*
X185556802Y-90396965D01*
X185556802Y-90396965D01*
G37*
D16*
X185383040Y-91314373D03*
D17*
X187960000Y-90544167D03*
D18*
X193655005Y-91979996D03*
D19*
X194426871Y-92840255D02*
X192883139Y-91119737D01*
D13*
X208280000Y-90170000D03*
D14*
X213995000Y-92075000D03*
D15*
G36*
X214534114Y-91927162D02*
G01*
X213789802Y-92594994D01*
X213455886Y-92222838D01*
X214200198Y-91555006D01*
X214534114Y-91927162D01*
X214534114Y-91927162D01*
G37*
G36*
X214610705Y-90391783D02*
G01*
X214669273Y-90397848D01*
X214726964Y-90409625D01*
X214783224Y-90427000D01*
X214837509Y-90449806D01*
X214889298Y-90477822D01*
X214938091Y-90510780D01*
X214983418Y-90548362D01*
X215024844Y-90590206D01*
X215425543Y-91036793D01*
X215462668Y-91082495D01*
X215495135Y-91131617D01*
X215522630Y-91183684D01*
X215544890Y-91238196D01*
X215561699Y-91294627D01*
X215572896Y-91352433D01*
X215578373Y-91411059D01*
X215578078Y-91469940D01*
X215572013Y-91528508D01*
X215560236Y-91586199D01*
X215542861Y-91642458D01*
X215520055Y-91696744D01*
X215492039Y-91748532D01*
X215459081Y-91797326D01*
X215421499Y-91842653D01*
X215379655Y-91884079D01*
X215156362Y-92084428D01*
X215110659Y-92121553D01*
X215061538Y-92154020D01*
X215009471Y-92181515D01*
X214954959Y-92203775D01*
X214898528Y-92220584D01*
X214840722Y-92231781D01*
X214782096Y-92237258D01*
X214723215Y-92236963D01*
X214664647Y-92230898D01*
X214606956Y-92219121D01*
X214550696Y-92201746D01*
X214496411Y-92178940D01*
X214444622Y-92150924D01*
X214395829Y-92117966D01*
X214350502Y-92080384D01*
X214309076Y-92038540D01*
X213908377Y-91591953D01*
X213871252Y-91546251D01*
X213838785Y-91497129D01*
X213811290Y-91445062D01*
X213789030Y-91390550D01*
X213772221Y-91334119D01*
X213761024Y-91276313D01*
X213755547Y-91217687D01*
X213755842Y-91158806D01*
X213761907Y-91100238D01*
X213773684Y-91042547D01*
X213791059Y-90986288D01*
X213813865Y-90932002D01*
X213841881Y-90880214D01*
X213874839Y-90831420D01*
X213912421Y-90786093D01*
X213954265Y-90744667D01*
X214177558Y-90544318D01*
X214223261Y-90507193D01*
X214272382Y-90474726D01*
X214324449Y-90447231D01*
X214378961Y-90424971D01*
X214435392Y-90408162D01*
X214493198Y-90396965D01*
X214551824Y-90391488D01*
X214610705Y-90391783D01*
X214610705Y-90391783D01*
G37*
D16*
X214666960Y-91314373D03*
D17*
X212090000Y-90544167D03*
D18*
X206394995Y-91979996D03*
D19*
X205623129Y-92840255D02*
X207166861Y-91119737D01*
D20*
X209550000Y-89963495D03*
D15*
G36*
X204606802Y-90396965D02*
G01*
X204664608Y-90408162D01*
X204721039Y-90424971D01*
X204775551Y-90447231D01*
X204827618Y-90474726D01*
X204876740Y-90507193D01*
X204922442Y-90544318D01*
X205145735Y-90744667D01*
X205187579Y-90786093D01*
X205225161Y-90831420D01*
X205258119Y-90880213D01*
X205286135Y-90932002D01*
X205308941Y-90986287D01*
X205326316Y-91042547D01*
X205338093Y-91100238D01*
X205344158Y-91158806D01*
X205344453Y-91217687D01*
X205338976Y-91276313D01*
X205327779Y-91334119D01*
X205310970Y-91390550D01*
X205288710Y-91445062D01*
X205261215Y-91497129D01*
X205228748Y-91546250D01*
X205191623Y-91591953D01*
X204790924Y-92038540D01*
X204749498Y-92080384D01*
X204704171Y-92117966D01*
X204655377Y-92150924D01*
X204603589Y-92178940D01*
X204549303Y-92201746D01*
X204493044Y-92219121D01*
X204435353Y-92230898D01*
X204376785Y-92236963D01*
X204317904Y-92237258D01*
X204259278Y-92231781D01*
X204201472Y-92220584D01*
X204145041Y-92203775D01*
X204090529Y-92181515D01*
X204038462Y-92154020D01*
X203989340Y-92121553D01*
X203943638Y-92084428D01*
X203720345Y-91884079D01*
X203678501Y-91842653D01*
X203640919Y-91797326D01*
X203607961Y-91748533D01*
X203579945Y-91696744D01*
X203557139Y-91642459D01*
X203539764Y-91586199D01*
X203527987Y-91528508D01*
X203521922Y-91469940D01*
X203521627Y-91411059D01*
X203527104Y-91352433D01*
X203538301Y-91294627D01*
X203555110Y-91238196D01*
X203577370Y-91183684D01*
X203604865Y-91131617D01*
X203637332Y-91082496D01*
X203674457Y-91036793D01*
X204075156Y-90590206D01*
X204116582Y-90548362D01*
X204161909Y-90510780D01*
X204210703Y-90477822D01*
X204262491Y-90449806D01*
X204316777Y-90427000D01*
X204373036Y-90409625D01*
X204430727Y-90397848D01*
X204489295Y-90391783D01*
X204548176Y-90391488D01*
X204606802Y-90396965D01*
X204606802Y-90396965D01*
G37*
D16*
X204433040Y-91314373D03*
D17*
X207010000Y-90544167D03*
D18*
X212705005Y-91979996D03*
D19*
X213476871Y-92840255D02*
X211933139Y-91119737D01*
D13*
X246380000Y-90170000D03*
D14*
X252095000Y-92075000D03*
D15*
G36*
X252634114Y-91927162D02*
G01*
X251889802Y-92594994D01*
X251555886Y-92222838D01*
X252300198Y-91555006D01*
X252634114Y-91927162D01*
X252634114Y-91927162D01*
G37*
G36*
X252710705Y-90391783D02*
G01*
X252769273Y-90397848D01*
X252826964Y-90409625D01*
X252883224Y-90427000D01*
X252937509Y-90449806D01*
X252989298Y-90477822D01*
X253038091Y-90510780D01*
X253083418Y-90548362D01*
X253124844Y-90590206D01*
X253525543Y-91036793D01*
X253562668Y-91082495D01*
X253595135Y-91131617D01*
X253622630Y-91183684D01*
X253644890Y-91238196D01*
X253661699Y-91294627D01*
X253672896Y-91352433D01*
X253678373Y-91411059D01*
X253678078Y-91469940D01*
X253672013Y-91528508D01*
X253660236Y-91586199D01*
X253642861Y-91642458D01*
X253620055Y-91696744D01*
X253592039Y-91748532D01*
X253559081Y-91797326D01*
X253521499Y-91842653D01*
X253479655Y-91884079D01*
X253256362Y-92084428D01*
X253210659Y-92121553D01*
X253161538Y-92154020D01*
X253109471Y-92181515D01*
X253054959Y-92203775D01*
X252998528Y-92220584D01*
X252940722Y-92231781D01*
X252882096Y-92237258D01*
X252823215Y-92236963D01*
X252764647Y-92230898D01*
X252706956Y-92219121D01*
X252650696Y-92201746D01*
X252596411Y-92178940D01*
X252544622Y-92150924D01*
X252495829Y-92117966D01*
X252450502Y-92080384D01*
X252409076Y-92038540D01*
X252008377Y-91591953D01*
X251971252Y-91546251D01*
X251938785Y-91497129D01*
X251911290Y-91445062D01*
X251889030Y-91390550D01*
X251872221Y-91334119D01*
X251861024Y-91276313D01*
X251855547Y-91217687D01*
X251855842Y-91158806D01*
X251861907Y-91100238D01*
X251873684Y-91042547D01*
X251891059Y-90986288D01*
X251913865Y-90932002D01*
X251941881Y-90880214D01*
X251974839Y-90831420D01*
X252012421Y-90786093D01*
X252054265Y-90744667D01*
X252277558Y-90544318D01*
X252323261Y-90507193D01*
X252372382Y-90474726D01*
X252424449Y-90447231D01*
X252478961Y-90424971D01*
X252535392Y-90408162D01*
X252593198Y-90396965D01*
X252651824Y-90391488D01*
X252710705Y-90391783D01*
X252710705Y-90391783D01*
G37*
D16*
X252766960Y-91314373D03*
D17*
X250190000Y-90544167D03*
D18*
X244494995Y-91979996D03*
D19*
X243723129Y-92840255D02*
X245266861Y-91119737D01*
D20*
X247650000Y-89963495D03*
D15*
G36*
X242706802Y-90396965D02*
G01*
X242764608Y-90408162D01*
X242821039Y-90424971D01*
X242875551Y-90447231D01*
X242927618Y-90474726D01*
X242976740Y-90507193D01*
X243022442Y-90544318D01*
X243245735Y-90744667D01*
X243287579Y-90786093D01*
X243325161Y-90831420D01*
X243358119Y-90880213D01*
X243386135Y-90932002D01*
X243408941Y-90986287D01*
X243426316Y-91042547D01*
X243438093Y-91100238D01*
X243444158Y-91158806D01*
X243444453Y-91217687D01*
X243438976Y-91276313D01*
X243427779Y-91334119D01*
X243410970Y-91390550D01*
X243388710Y-91445062D01*
X243361215Y-91497129D01*
X243328748Y-91546250D01*
X243291623Y-91591953D01*
X242890924Y-92038540D01*
X242849498Y-92080384D01*
X242804171Y-92117966D01*
X242755377Y-92150924D01*
X242703589Y-92178940D01*
X242649303Y-92201746D01*
X242593044Y-92219121D01*
X242535353Y-92230898D01*
X242476785Y-92236963D01*
X242417904Y-92237258D01*
X242359278Y-92231781D01*
X242301472Y-92220584D01*
X242245041Y-92203775D01*
X242190529Y-92181515D01*
X242138462Y-92154020D01*
X242089340Y-92121553D01*
X242043638Y-92084428D01*
X241820345Y-91884079D01*
X241778501Y-91842653D01*
X241740919Y-91797326D01*
X241707961Y-91748533D01*
X241679945Y-91696744D01*
X241657139Y-91642459D01*
X241639764Y-91586199D01*
X241627987Y-91528508D01*
X241621922Y-91469940D01*
X241621627Y-91411059D01*
X241627104Y-91352433D01*
X241638301Y-91294627D01*
X241655110Y-91238196D01*
X241677370Y-91183684D01*
X241704865Y-91131617D01*
X241737332Y-91082496D01*
X241774457Y-91036793D01*
X242175156Y-90590206D01*
X242216582Y-90548362D01*
X242261909Y-90510780D01*
X242310703Y-90477822D01*
X242362491Y-90449806D01*
X242416777Y-90427000D01*
X242473036Y-90409625D01*
X242530727Y-90397848D01*
X242589295Y-90391783D01*
X242648176Y-90391488D01*
X242706802Y-90396965D01*
X242706802Y-90396965D01*
G37*
D16*
X242533040Y-91314373D03*
D17*
X245110000Y-90544167D03*
D18*
X250805005Y-91979996D03*
D19*
X251576871Y-92840255D02*
X250033139Y-91119737D01*
D13*
X208280000Y-109220000D03*
D14*
X213995000Y-111125000D03*
D15*
G36*
X214534114Y-110977162D02*
G01*
X213789802Y-111644994D01*
X213455886Y-111272838D01*
X214200198Y-110605006D01*
X214534114Y-110977162D01*
X214534114Y-110977162D01*
G37*
G36*
X214610705Y-109441783D02*
G01*
X214669273Y-109447848D01*
X214726964Y-109459625D01*
X214783224Y-109477000D01*
X214837509Y-109499806D01*
X214889298Y-109527822D01*
X214938091Y-109560780D01*
X214983418Y-109598362D01*
X215024844Y-109640206D01*
X215425543Y-110086793D01*
X215462668Y-110132495D01*
X215495135Y-110181617D01*
X215522630Y-110233684D01*
X215544890Y-110288196D01*
X215561699Y-110344627D01*
X215572896Y-110402433D01*
X215578373Y-110461059D01*
X215578078Y-110519940D01*
X215572013Y-110578508D01*
X215560236Y-110636199D01*
X215542861Y-110692458D01*
X215520055Y-110746744D01*
X215492039Y-110798532D01*
X215459081Y-110847326D01*
X215421499Y-110892653D01*
X215379655Y-110934079D01*
X215156362Y-111134428D01*
X215110659Y-111171553D01*
X215061538Y-111204020D01*
X215009471Y-111231515D01*
X214954959Y-111253775D01*
X214898528Y-111270584D01*
X214840722Y-111281781D01*
X214782096Y-111287258D01*
X214723215Y-111286963D01*
X214664647Y-111280898D01*
X214606956Y-111269121D01*
X214550696Y-111251746D01*
X214496411Y-111228940D01*
X214444622Y-111200924D01*
X214395829Y-111167966D01*
X214350502Y-111130384D01*
X214309076Y-111088540D01*
X213908377Y-110641953D01*
X213871252Y-110596251D01*
X213838785Y-110547129D01*
X213811290Y-110495062D01*
X213789030Y-110440550D01*
X213772221Y-110384119D01*
X213761024Y-110326313D01*
X213755547Y-110267687D01*
X213755842Y-110208806D01*
X213761907Y-110150238D01*
X213773684Y-110092547D01*
X213791059Y-110036288D01*
X213813865Y-109982002D01*
X213841881Y-109930214D01*
X213874839Y-109881420D01*
X213912421Y-109836093D01*
X213954265Y-109794667D01*
X214177558Y-109594318D01*
X214223261Y-109557193D01*
X214272382Y-109524726D01*
X214324449Y-109497231D01*
X214378961Y-109474971D01*
X214435392Y-109458162D01*
X214493198Y-109446965D01*
X214551824Y-109441488D01*
X214610705Y-109441783D01*
X214610705Y-109441783D01*
G37*
D16*
X214666960Y-110364373D03*
D17*
X212090000Y-109594167D03*
D18*
X206394995Y-111029996D03*
D19*
X205623129Y-111890255D02*
X207166861Y-110169737D01*
D20*
X209550000Y-109013495D03*
D15*
G36*
X204606802Y-109446965D02*
G01*
X204664608Y-109458162D01*
X204721039Y-109474971D01*
X204775551Y-109497231D01*
X204827618Y-109524726D01*
X204876740Y-109557193D01*
X204922442Y-109594318D01*
X205145735Y-109794667D01*
X205187579Y-109836093D01*
X205225161Y-109881420D01*
X205258119Y-109930213D01*
X205286135Y-109982002D01*
X205308941Y-110036287D01*
X205326316Y-110092547D01*
X205338093Y-110150238D01*
X205344158Y-110208806D01*
X205344453Y-110267687D01*
X205338976Y-110326313D01*
X205327779Y-110384119D01*
X205310970Y-110440550D01*
X205288710Y-110495062D01*
X205261215Y-110547129D01*
X205228748Y-110596250D01*
X205191623Y-110641953D01*
X204790924Y-111088540D01*
X204749498Y-111130384D01*
X204704171Y-111167966D01*
X204655377Y-111200924D01*
X204603589Y-111228940D01*
X204549303Y-111251746D01*
X204493044Y-111269121D01*
X204435353Y-111280898D01*
X204376785Y-111286963D01*
X204317904Y-111287258D01*
X204259278Y-111281781D01*
X204201472Y-111270584D01*
X204145041Y-111253775D01*
X204090529Y-111231515D01*
X204038462Y-111204020D01*
X203989340Y-111171553D01*
X203943638Y-111134428D01*
X203720345Y-110934079D01*
X203678501Y-110892653D01*
X203640919Y-110847326D01*
X203607961Y-110798533D01*
X203579945Y-110746744D01*
X203557139Y-110692459D01*
X203539764Y-110636199D01*
X203527987Y-110578508D01*
X203521922Y-110519940D01*
X203521627Y-110461059D01*
X203527104Y-110402433D01*
X203538301Y-110344627D01*
X203555110Y-110288196D01*
X203577370Y-110233684D01*
X203604865Y-110181617D01*
X203637332Y-110132496D01*
X203674457Y-110086793D01*
X204075156Y-109640206D01*
X204116582Y-109598362D01*
X204161909Y-109560780D01*
X204210703Y-109527822D01*
X204262491Y-109499806D01*
X204316777Y-109477000D01*
X204373036Y-109459625D01*
X204430727Y-109447848D01*
X204489295Y-109441783D01*
X204548176Y-109441488D01*
X204606802Y-109446965D01*
X204606802Y-109446965D01*
G37*
D16*
X204433040Y-110364373D03*
D17*
X207010000Y-109594167D03*
D18*
X212705005Y-111029996D03*
D19*
X213476871Y-111890255D02*
X211933139Y-110169737D01*
D32*
X239480855Y-107398575D03*
X239480855Y-112398575D03*
D23*
X239480855Y-105998575D03*
X239480855Y-113798575D03*
D33*
X239480855Y-111248575D03*
X239480855Y-108548575D03*
D32*
X242660855Y-107398575D03*
X242660855Y-112398575D03*
D23*
X242660855Y-105998575D03*
X242660855Y-113798575D03*
D33*
X242660855Y-111248575D03*
X242660855Y-108548575D03*
D34*
X255270000Y-49530000D03*
X240030000Y-77470000D03*
X255270000Y-52070000D03*
X255270000Y-54610000D03*
X255270000Y-57150000D03*
X255270000Y-59690000D03*
X255270000Y-62230000D03*
X255270000Y-64770000D03*
X255270000Y-67310000D03*
X255270000Y-69850000D03*
X255270000Y-72390000D03*
X255270000Y-74930000D03*
X255270000Y-77470000D03*
X240030000Y-74930000D03*
X240030000Y-72390000D03*
X240030000Y-69850000D03*
X240030000Y-67310000D03*
X240030000Y-64770000D03*
X240030000Y-62230000D03*
X240030000Y-59690000D03*
X240030000Y-57150000D03*
X240030000Y-54610000D03*
X240030000Y-52070000D03*
D35*
X240030000Y-49530000D03*
D36*
X239450000Y-122483000D03*
D37*
X130302000Y-61734700D02*
X134449921Y-65882621D01*
X134449921Y-65882621D02*
X135249920Y-66682620D01*
X130302000Y-52952167D02*
X130302000Y-61734700D01*
X147523200Y-55676800D02*
X148590000Y-54610000D01*
X142875000Y-55676800D02*
X147523200Y-55676800D01*
X166497000Y-55753000D02*
X167640000Y-54610000D01*
X161925000Y-55753000D02*
X166497000Y-55753000D01*
X185547000Y-55753000D02*
X186690000Y-54610000D01*
X180975000Y-55753000D02*
X185547000Y-55753000D01*
X204597000Y-55753000D02*
X205740000Y-54610000D01*
X200025000Y-55753000D02*
X204597000Y-55753000D01*
X223647000Y-55753000D02*
X224790000Y-54610000D01*
X219075000Y-55753000D02*
X223647000Y-55753000D01*
X129540000Y-76073000D02*
X139128500Y-85661500D01*
X129540000Y-73660000D02*
X129540000Y-76073000D01*
X147447000Y-74803000D02*
X148590000Y-73660000D01*
X142875000Y-74803000D02*
X147447000Y-74803000D01*
X166497000Y-74803000D02*
X167640000Y-73660000D01*
X161925000Y-74803000D02*
X166497000Y-74803000D01*
X185547000Y-74803000D02*
X186690000Y-73660000D01*
X180975000Y-74803000D02*
X185547000Y-74803000D01*
X204597000Y-74803000D02*
X205740000Y-73660000D01*
X200025000Y-74803000D02*
X204597000Y-74803000D01*
X223647000Y-74803000D02*
X224790000Y-73660000D01*
X219075000Y-74803000D02*
X223647000Y-74803000D01*
X243770001Y-73729999D02*
X243840000Y-73660000D01*
X243770001Y-77184399D02*
X243770001Y-73729999D01*
X235229400Y-85725000D02*
X243770001Y-77184399D01*
X128143000Y-88138000D02*
X130549167Y-90544167D01*
X128143000Y-85661500D02*
X128143000Y-88138000D01*
X147447000Y-93853000D02*
X148590000Y-92710000D01*
X142875000Y-93853000D02*
X147447000Y-93853000D01*
X166497000Y-93853000D02*
X167640000Y-92710000D01*
X161925000Y-93853000D02*
X166497000Y-93853000D01*
X185547000Y-93853000D02*
X186690000Y-92710000D01*
X180975000Y-93853000D02*
X185547000Y-93853000D01*
X204597000Y-93853000D02*
X200025000Y-93853000D01*
X205740000Y-92710000D02*
X204597000Y-93853000D01*
X223647000Y-93853000D02*
X224790000Y-92710000D01*
X219075000Y-93853000D02*
X223647000Y-93853000D01*
X205740000Y-115570000D02*
X210083400Y-119913400D01*
X210083400Y-119913400D02*
X216133582Y-119913400D01*
X205740000Y-111760000D02*
X205740000Y-115570000D01*
X203835000Y-105410000D02*
X207010000Y-108585000D01*
X203835000Y-105156000D02*
X203835000Y-105410000D01*
X231140000Y-106473495D02*
X228600000Y-109013495D01*
X231140000Y-105156000D02*
X231140000Y-106473495D01*
X253975000Y-110095000D02*
X253975000Y-117235000D01*
X250975000Y-110095000D02*
X250975000Y-117235000D01*
X240030000Y-57150000D02*
X240030000Y-54610000D01*
X247500140Y-116709860D02*
X246975000Y-117235000D01*
X247500140Y-110620140D02*
X247500140Y-116709860D01*
X243153000Y-116153000D02*
X243150000Y-116153000D01*
X244221000Y-117221000D02*
X243153000Y-116153000D01*
X246961000Y-117221000D02*
X244221000Y-117221000D01*
X246975000Y-117235000D02*
X246961000Y-117221000D01*
X255270000Y-52848298D02*
X255270000Y-52070000D01*
X248174298Y-59944000D02*
X255270000Y-52848298D01*
X240030000Y-57150000D02*
X242824000Y-59944000D01*
X242824000Y-59944000D02*
X248174298Y-59944000D01*
X142875000Y-66677540D02*
X142869920Y-66682620D01*
X142875000Y-63296800D02*
X142875000Y-66677540D01*
X142951200Y-63373000D02*
X199992100Y-63373000D01*
X200025000Y-63373000D02*
X219075000Y-63373000D01*
X219075000Y-63373000D02*
X219075000Y-66548000D01*
X254393701Y-66433701D02*
X255270000Y-67310000D01*
X251472700Y-63512700D02*
X254393701Y-66433701D01*
X219326698Y-63512700D02*
X251472700Y-63512700D01*
X219270699Y-63568699D02*
X219326698Y-63512700D01*
X161925000Y-82423000D02*
X180975000Y-82423000D01*
X182025000Y-82423000D02*
X200025000Y-82423000D01*
X180975000Y-82423000D02*
X182025000Y-82423000D01*
X200025000Y-82423000D02*
X219075000Y-82423000D01*
X146113500Y-85661500D02*
X142875000Y-82423000D01*
X146748500Y-85661500D02*
X146113500Y-85661500D01*
X142875000Y-82423000D02*
X161925000Y-82423000D01*
X224078800Y-82423000D02*
X227330000Y-85674200D01*
X219075000Y-82423000D02*
X224078800Y-82423000D01*
X238025940Y-67307460D02*
X240027460Y-67307460D01*
X237043822Y-68289578D02*
X238025940Y-67307460D01*
X201895836Y-68289578D02*
X237043822Y-68289578D01*
X201135402Y-69050012D02*
X201895836Y-68289578D01*
X198193330Y-68328742D02*
X198914599Y-69050012D01*
X198914599Y-69050012D02*
X201135402Y-69050012D01*
X145633440Y-68440300D02*
X159880301Y-68440300D01*
X141216380Y-72857360D02*
X145633440Y-68440300D01*
X142849600Y-82423000D02*
X141216380Y-80789780D01*
X159880301Y-68440300D02*
X160635111Y-69195111D01*
X164031868Y-68328742D02*
X198193330Y-68328742D01*
X141216380Y-80789780D02*
X141216380Y-72857360D01*
X160635111Y-69195111D02*
X163165500Y-69195111D01*
X163165500Y-69195111D02*
X164031868Y-68328742D01*
X142875000Y-101473000D02*
X161925000Y-101473000D01*
X180975000Y-101473000D02*
X161925000Y-101473000D01*
X180975000Y-101473000D02*
X200025000Y-101473000D01*
X200025000Y-101473000D02*
X219075000Y-101473000D01*
X220980000Y-103378000D02*
X219075000Y-101473000D01*
X237998000Y-103378000D02*
X220980000Y-103378000D01*
X140970000Y-99568000D02*
X142875000Y-101473000D01*
X140970000Y-90805000D02*
X140970000Y-99568000D01*
X135826500Y-85661500D02*
X140970000Y-90805000D01*
X257644978Y-67144978D02*
X256146299Y-65646299D01*
X253926928Y-98604909D02*
X257644978Y-94886859D01*
X256146299Y-65646299D02*
X255270000Y-64770000D01*
X253926928Y-100079083D02*
X253926928Y-98604909D01*
X242824000Y-103378000D02*
X244348000Y-104902000D01*
X257644978Y-94886859D02*
X257644978Y-67144978D01*
X249104011Y-104902000D02*
X253926928Y-100079083D01*
X237998000Y-103378000D02*
X242824000Y-103378000D01*
X244348000Y-104902000D02*
X249104011Y-104902000D01*
X213360000Y-107315000D02*
X221361000Y-107315000D01*
X211455000Y-105410000D02*
X213360000Y-107315000D01*
X221361000Y-107315000D02*
X223520000Y-105156000D01*
X211455000Y-105156000D02*
X211455000Y-105410000D01*
X258094989Y-94711011D02*
X258094989Y-65054989D01*
X258094987Y-94711013D02*
X258094989Y-94711011D01*
X258094989Y-65054989D02*
X255650963Y-62610963D01*
X254376938Y-98791309D02*
X258094987Y-95073260D01*
X249290412Y-105352009D02*
X254376938Y-100265483D01*
X243584590Y-104775000D02*
X244161600Y-105352011D01*
X258094987Y-95073260D02*
X258094987Y-94711013D01*
X232791000Y-104775000D02*
X243584590Y-104775000D01*
X231844010Y-103828010D02*
X232791000Y-104775000D01*
X254376938Y-100265483D02*
X254376938Y-98791309D01*
X244161600Y-105352011D02*
X249290412Y-105352009D01*
X225897990Y-103828010D02*
X231844010Y-103828010D01*
X224570000Y-105156000D02*
X225897990Y-103828010D01*
X223520000Y-105156000D02*
X224570000Y-105156000D01*
X137160000Y-91440000D02*
X137160000Y-92710000D01*
X200949001Y-68600001D02*
X201709436Y-67839567D01*
X236857423Y-67839567D02*
X239926990Y-64770000D01*
X201709436Y-67839567D02*
X236857423Y-67839567D01*
X198379731Y-67878732D02*
X199100999Y-68600001D01*
X199100999Y-68600001D02*
X200949001Y-68600001D01*
X162979099Y-68745100D02*
X163845468Y-67878731D01*
X160821511Y-68745100D02*
X162979099Y-68745100D01*
X160066702Y-67990290D02*
X160821511Y-68745100D01*
X138466960Y-72264373D02*
X142741044Y-67990289D01*
X142741044Y-67990289D02*
X160066702Y-67990290D01*
X163845468Y-67878731D02*
X198379731Y-67878732D01*
X202082236Y-68739589D02*
X237057769Y-68739589D01*
X201321802Y-69500023D02*
X202082236Y-68739589D01*
X164218267Y-68778753D02*
X198006930Y-68778753D01*
X238142780Y-69824600D02*
X240004600Y-69824600D01*
X163351900Y-69645121D02*
X164218267Y-68778753D01*
X198006930Y-68778753D02*
X198728199Y-69500023D01*
X154946833Y-71494167D02*
X157550690Y-68890310D01*
X160448711Y-69645121D02*
X163351900Y-69645121D01*
X237057769Y-68739589D02*
X238142780Y-69824600D01*
X157550690Y-68890310D02*
X159693902Y-68890310D01*
X198728199Y-69500023D02*
X201321802Y-69500023D01*
X159693902Y-68890310D02*
X160448711Y-69645121D01*
X236806740Y-69189600D02*
X239996980Y-72379840D01*
X198541799Y-69950034D02*
X201508202Y-69950034D01*
X202268635Y-69189600D02*
X236806740Y-69189600D01*
X173996833Y-71494167D02*
X176262237Y-69228763D01*
X197820529Y-69228763D02*
X198541799Y-69950034D01*
X201508202Y-69950034D02*
X202268635Y-69189600D01*
X176262237Y-69228763D02*
X197820529Y-69228763D01*
X257194968Y-74314968D02*
X256146299Y-73266299D01*
X201719923Y-98468923D02*
X253321079Y-98468923D01*
X256146299Y-73266299D02*
X255270000Y-72390000D01*
X195326000Y-92075000D02*
X201719923Y-98468923D01*
X253321079Y-98468923D02*
X257194968Y-94595034D01*
X257194968Y-94595034D02*
X257194968Y-74314968D01*
X194945000Y-92075000D02*
X195326000Y-92075000D01*
X194310000Y-92710000D02*
X194945000Y-92075000D01*
X256744957Y-76404957D02*
X256146299Y-75806299D01*
X256744957Y-94408634D02*
X256744957Y-76404957D01*
X253134679Y-98018912D02*
X256744957Y-94408634D01*
X256146299Y-75806299D02*
X255270000Y-74930000D01*
X213360000Y-95756002D02*
X215622910Y-98018912D01*
X213360000Y-92710000D02*
X213360000Y-95756002D01*
X215622910Y-98018912D02*
X253134679Y-98018912D01*
X219985789Y-119249389D02*
X221445946Y-119249389D01*
X216433400Y-115697000D02*
X219985789Y-119249389D01*
X216433400Y-112130813D02*
X216433400Y-115697000D01*
X214666960Y-110364373D02*
X216433400Y-112130813D01*
X232410000Y-96009178D02*
X232410000Y-92710000D01*
X256294946Y-94160925D02*
X252886970Y-97568901D01*
X256294946Y-78494946D02*
X256294946Y-94160925D01*
X252886970Y-97568901D02*
X233969723Y-97568901D01*
X233969723Y-97568901D02*
X232410000Y-96009178D01*
X255270000Y-77470000D02*
X256294946Y-78494946D01*
M02*
