G04 #@! TF.GenerationSoftware,KiCad,Pcbnew,(6.0.0-rc1-dev-1668-g04a478f85)*
G04 #@! TF.CreationDate,2019-04-17T20:22:59-07:00
G04 #@! TF.ProjectId,meson,6d65736f-6e2e-46b6-9963-61645f706362,rev?*
G04 #@! TF.SameCoordinates,Original*
G04 #@! TF.FileFunction,Legend,Top*
G04 #@! TF.FilePolarity,Positive*
%FSLAX46Y46*%
G04 Gerber Fmt 4.6, Leading zero omitted, Abs format (unit mm)*
G04 Created by KiCad (PCBNEW (6.0.0-rc1-dev-1668-g04a478f85)) date 2019-04-17 20:22:59*
%MOMM*%
%LPD*%
G04 APERTURE LIST*
%ADD10C,0.450000*%
%ADD11C,0.150000*%
%ADD12C,0.120000*%
%ADD13C,0.250000*%
%ADD14C,0.381000*%
G04 APERTURE END LIST*
D10*
X174195315Y-86617061D02*
X173528648Y-85664680D01*
X173052458Y-86617061D02*
X173052458Y-84617061D01*
X173814362Y-84617061D01*
X174004839Y-84712300D01*
X174100077Y-84807538D01*
X174195315Y-84998014D01*
X174195315Y-85283728D01*
X174100077Y-85474204D01*
X174004839Y-85569442D01*
X173814362Y-85664680D01*
X173052458Y-85664680D01*
X175052458Y-86617061D02*
X175052458Y-84617061D01*
X177052458Y-84712300D02*
X176861981Y-84617061D01*
X176576267Y-84617061D01*
X176290553Y-84712300D01*
X176100077Y-84902776D01*
X176004839Y-85093252D01*
X175909600Y-85474204D01*
X175909600Y-85759919D01*
X176004839Y-86140871D01*
X176100077Y-86331347D01*
X176290553Y-86521823D01*
X176576267Y-86617061D01*
X176766743Y-86617061D01*
X177052458Y-86521823D01*
X177147696Y-86426585D01*
X177147696Y-85759919D01*
X176766743Y-85759919D01*
X178004839Y-86617061D02*
X178004839Y-84617061D01*
X178004839Y-85569442D02*
X179147696Y-85569442D01*
X179147696Y-86617061D02*
X179147696Y-84617061D01*
X179814362Y-84617061D02*
X180957220Y-84617061D01*
X180385791Y-86617061D02*
X180385791Y-84617061D01*
X183052458Y-86521823D02*
X183338172Y-86617061D01*
X183814362Y-86617061D01*
X184004839Y-86521823D01*
X184100077Y-86426585D01*
X184195315Y-86236109D01*
X184195315Y-86045633D01*
X184100077Y-85855157D01*
X184004839Y-85759919D01*
X183814362Y-85664680D01*
X183433410Y-85569442D01*
X183242934Y-85474204D01*
X183147696Y-85378966D01*
X183052458Y-85188490D01*
X183052458Y-84998014D01*
X183147696Y-84807538D01*
X183242934Y-84712300D01*
X183433410Y-84617061D01*
X183909600Y-84617061D01*
X184195315Y-84712300D01*
X185052458Y-86617061D02*
X185052458Y-84617061D01*
X186004839Y-86617061D02*
X186004839Y-84617061D01*
X186481029Y-84617061D01*
X186766743Y-84712300D01*
X186957220Y-84902776D01*
X187052458Y-85093252D01*
X187147696Y-85474204D01*
X187147696Y-85759919D01*
X187052458Y-86140871D01*
X186957220Y-86331347D01*
X186766743Y-86521823D01*
X186481029Y-86617061D01*
X186004839Y-86617061D01*
X188004839Y-85569442D02*
X188671505Y-85569442D01*
X188957220Y-86617061D02*
X188004839Y-86617061D01*
X188004839Y-84617061D01*
X188957220Y-84617061D01*
D11*
X244224788Y-109142622D02*
X243691455Y-109142622D01*
X244529550Y-108952146D02*
X243958121Y-108761670D01*
X243958121Y-109256908D01*
X243767645Y-109561670D02*
X243729550Y-109599765D01*
X243691455Y-109561670D01*
X243729550Y-109523575D01*
X243767645Y-109561670D01*
X243691455Y-109561670D01*
X244491455Y-109866432D02*
X244491455Y-110399765D01*
X243691455Y-110056908D01*
X243691455Y-110704527D02*
X244491455Y-110704527D01*
X243996217Y-110780718D02*
X243691455Y-111009289D01*
X244224788Y-111009289D02*
X243920026Y-110704527D01*
X237912931Y-110641037D02*
X238446264Y-110641037D01*
X237608169Y-110831513D02*
X238179598Y-111021989D01*
X238179598Y-110526751D01*
X238370074Y-110221989D02*
X238408169Y-110183894D01*
X238446264Y-110221989D01*
X238408169Y-110260084D01*
X238370074Y-110221989D01*
X238446264Y-110221989D01*
X237646264Y-109917227D02*
X237646264Y-109383894D01*
X238446264Y-109726751D01*
X238446264Y-109079132D02*
X237646264Y-109079132D01*
X238141502Y-109002941D02*
X238446264Y-108774370D01*
X237912931Y-108774370D02*
X238217693Y-109079132D01*
D10*
X126736361Y-99676071D02*
X126736361Y-100628452D01*
X124736361Y-100628452D01*
X125688742Y-99009404D02*
X125688742Y-98342738D01*
X126736361Y-98057023D02*
X126736361Y-99009404D01*
X124736361Y-99009404D01*
X124736361Y-98057023D01*
X125688742Y-96533214D02*
X125688742Y-97199880D01*
X126736361Y-97199880D02*
X124736361Y-97199880D01*
X124736361Y-96247500D01*
X124736361Y-95771309D02*
X124736361Y-94628452D01*
X126736361Y-95199880D02*
X124736361Y-95199880D01*
X126641123Y-92533214D02*
X126736361Y-92247500D01*
X126736361Y-91771309D01*
X126641123Y-91580833D01*
X126545885Y-91485595D01*
X126355409Y-91390357D01*
X126164933Y-91390357D01*
X125974457Y-91485595D01*
X125879219Y-91580833D01*
X125783980Y-91771309D01*
X125688742Y-92152261D01*
X125593504Y-92342738D01*
X125498266Y-92437976D01*
X125307790Y-92533214D01*
X125117314Y-92533214D01*
X124926838Y-92437976D01*
X124831600Y-92342738D01*
X124736361Y-92152261D01*
X124736361Y-91676071D01*
X124831600Y-91390357D01*
X126736361Y-90533214D02*
X124736361Y-90533214D01*
X126736361Y-89580833D02*
X124736361Y-89580833D01*
X124736361Y-89104642D01*
X124831600Y-88818928D01*
X125022076Y-88628452D01*
X125212552Y-88533214D01*
X125593504Y-88437976D01*
X125879219Y-88437976D01*
X126260171Y-88533214D01*
X126450647Y-88628452D01*
X126641123Y-88818928D01*
X126736361Y-89104642D01*
X126736361Y-89580833D01*
X125688742Y-87580833D02*
X125688742Y-86914166D01*
X126736361Y-86628452D02*
X126736361Y-87580833D01*
X124736361Y-87580833D01*
X124736361Y-86628452D01*
X124736361Y-84247500D02*
X126355409Y-84247500D01*
X126545885Y-84152261D01*
X126641123Y-84057023D01*
X126736361Y-83866547D01*
X126736361Y-83485595D01*
X126641123Y-83295119D01*
X126545885Y-83199880D01*
X126355409Y-83104642D01*
X124736361Y-83104642D01*
X126736361Y-82152261D02*
X124736361Y-82152261D01*
X124736361Y-81390357D01*
X124831600Y-81199880D01*
X124926838Y-81104642D01*
X125117314Y-81009404D01*
X125403028Y-81009404D01*
X125593504Y-81104642D01*
X125688742Y-81199880D01*
X125783980Y-81390357D01*
X125783980Y-82152261D01*
X126736361Y-77485595D02*
X125783980Y-78152261D01*
X126736361Y-78628452D02*
X124736361Y-78628452D01*
X124736361Y-77866547D01*
X124831600Y-77676071D01*
X124926838Y-77580833D01*
X125117314Y-77485595D01*
X125403028Y-77485595D01*
X125593504Y-77580833D01*
X125688742Y-77676071D01*
X125783980Y-77866547D01*
X125783980Y-78628452D01*
X126736361Y-76628452D02*
X124736361Y-76628452D01*
X124831600Y-74628452D02*
X124736361Y-74818928D01*
X124736361Y-75104642D01*
X124831600Y-75390357D01*
X125022076Y-75580833D01*
X125212552Y-75676071D01*
X125593504Y-75771309D01*
X125879219Y-75771309D01*
X126260171Y-75676071D01*
X126450647Y-75580833D01*
X126641123Y-75390357D01*
X126736361Y-75104642D01*
X126736361Y-74914166D01*
X126641123Y-74628452D01*
X126545885Y-74533214D01*
X125879219Y-74533214D01*
X125879219Y-74914166D01*
X126736361Y-73676071D02*
X124736361Y-73676071D01*
X125688742Y-73676071D02*
X125688742Y-72533214D01*
X126736361Y-72533214D02*
X124736361Y-72533214D01*
X124736361Y-71866547D02*
X124736361Y-70723690D01*
X126736361Y-71295119D02*
X124736361Y-71295119D01*
X126641123Y-68628452D02*
X126736361Y-68342738D01*
X126736361Y-67866547D01*
X126641123Y-67676071D01*
X126545885Y-67580833D01*
X126355409Y-67485595D01*
X126164933Y-67485595D01*
X125974457Y-67580833D01*
X125879219Y-67676071D01*
X125783980Y-67866547D01*
X125688742Y-68247500D01*
X125593504Y-68437976D01*
X125498266Y-68533214D01*
X125307790Y-68628452D01*
X125117314Y-68628452D01*
X124926838Y-68533214D01*
X124831600Y-68437976D01*
X124736361Y-68247500D01*
X124736361Y-67771309D01*
X124831600Y-67485595D01*
X126736361Y-66628452D02*
X124736361Y-66628452D01*
X126736361Y-65676071D02*
X124736361Y-65676071D01*
X124736361Y-65199880D01*
X124831600Y-64914166D01*
X125022076Y-64723690D01*
X125212552Y-64628452D01*
X125593504Y-64533214D01*
X125879219Y-64533214D01*
X126260171Y-64628452D01*
X126450647Y-64723690D01*
X126641123Y-64914166D01*
X126736361Y-65199880D01*
X126736361Y-65676071D01*
X125688742Y-63676071D02*
X125688742Y-63009404D01*
X126736361Y-62723690D02*
X126736361Y-63676071D01*
X124736361Y-63676071D01*
X124736361Y-62723690D01*
X126641123Y-60437976D02*
X126736361Y-60152261D01*
X126736361Y-59676071D01*
X126641123Y-59485595D01*
X126545885Y-59390357D01*
X126355409Y-59295119D01*
X126164933Y-59295119D01*
X125974457Y-59390357D01*
X125879219Y-59485595D01*
X125783980Y-59676071D01*
X125688742Y-60057023D01*
X125593504Y-60247500D01*
X125498266Y-60342738D01*
X125307790Y-60437976D01*
X125117314Y-60437976D01*
X124926838Y-60342738D01*
X124831600Y-60247500D01*
X124736361Y-60057023D01*
X124736361Y-59580833D01*
X124831600Y-59295119D01*
X124736361Y-58057023D02*
X124736361Y-57676071D01*
X124831600Y-57485595D01*
X125022076Y-57295119D01*
X125403028Y-57199880D01*
X126069695Y-57199880D01*
X126450647Y-57295119D01*
X126641123Y-57485595D01*
X126736361Y-57676071D01*
X126736361Y-58057023D01*
X126641123Y-58247500D01*
X126450647Y-58437976D01*
X126069695Y-58533214D01*
X125403028Y-58533214D01*
X125022076Y-58437976D01*
X124831600Y-58247500D01*
X124736361Y-58057023D01*
X126736361Y-55390357D02*
X126736361Y-56342738D01*
X124736361Y-56342738D01*
X126736361Y-54723690D02*
X124736361Y-54723690D01*
X124736361Y-54247500D01*
X124831600Y-53961785D01*
X125022076Y-53771309D01*
X125212552Y-53676071D01*
X125593504Y-53580833D01*
X125879219Y-53580833D01*
X126260171Y-53676071D01*
X126450647Y-53771309D01*
X126641123Y-53961785D01*
X126736361Y-54247500D01*
X126736361Y-54723690D01*
X125688742Y-52723690D02*
X125688742Y-52057023D01*
X126736361Y-51771309D02*
X126736361Y-52723690D01*
X124736361Y-52723690D01*
X124736361Y-51771309D01*
X126736361Y-49771309D02*
X125783980Y-50437976D01*
X126736361Y-50914166D02*
X124736361Y-50914166D01*
X124736361Y-50152261D01*
X124831600Y-49961785D01*
X124926838Y-49866547D01*
X125117314Y-49771309D01*
X125403028Y-49771309D01*
X125593504Y-49866547D01*
X125688742Y-49961785D01*
X125783980Y-50152261D01*
X125783980Y-50914166D01*
D12*
X238226600Y-58242200D02*
X238226600Y-53492400D01*
D11*
X237799500Y-55200657D02*
X237847119Y-55111372D01*
X237847119Y-54968514D01*
X237799500Y-54819705D01*
X237704261Y-54712562D01*
X237609023Y-54653038D01*
X237418547Y-54581610D01*
X237275690Y-54563752D01*
X237085214Y-54587562D01*
X236989976Y-54623276D01*
X236894738Y-54706610D01*
X236847119Y-54843514D01*
X236847119Y-54938752D01*
X236894738Y-55087562D01*
X236942357Y-55141133D01*
X237275690Y-55182800D01*
X237275690Y-54992324D01*
X236847119Y-55557800D02*
X237847119Y-55682800D01*
X236847119Y-56129229D01*
X237847119Y-56254229D01*
X236847119Y-56605419D02*
X237847119Y-56730419D01*
X237847119Y-56968514D01*
X237799500Y-57105419D01*
X237704261Y-57188752D01*
X237609023Y-57224467D01*
X237418547Y-57248276D01*
X237275690Y-57230419D01*
X237085214Y-57158991D01*
X236989976Y-57099467D01*
X236894738Y-56992324D01*
X236847119Y-56843514D01*
X236847119Y-56605419D01*
X257144900Y-52927142D02*
X257097280Y-53016427D01*
X257097280Y-53159285D01*
X257144900Y-53308094D01*
X257240138Y-53415237D01*
X257335376Y-53474761D01*
X257525852Y-53546189D01*
X257668709Y-53564047D01*
X257859185Y-53540237D01*
X257954423Y-53504523D01*
X258049661Y-53421189D01*
X258097280Y-53284285D01*
X258097280Y-53189047D01*
X258049661Y-53040237D01*
X258002042Y-52986666D01*
X257668709Y-52944999D01*
X257668709Y-53135475D01*
X258097280Y-52569999D02*
X257097280Y-52444999D01*
X258097280Y-51998570D01*
X257097280Y-51873570D01*
X258097280Y-51522380D02*
X257097280Y-51397380D01*
X257097280Y-51159285D01*
X257144900Y-51022380D01*
X257240138Y-50939047D01*
X257335376Y-50903332D01*
X257525852Y-50879523D01*
X257668709Y-50897380D01*
X257859185Y-50968808D01*
X257954423Y-51028332D01*
X258049661Y-51135475D01*
X258097280Y-51284285D01*
X258097280Y-51522380D01*
X257008380Y-58458318D02*
X258008380Y-58249985D01*
X257008380Y-57791651D01*
X257913142Y-56999985D02*
X257960761Y-57053556D01*
X258008380Y-57202366D01*
X258008380Y-57297604D01*
X257960761Y-57434508D01*
X257865523Y-57517842D01*
X257770285Y-57553556D01*
X257579809Y-57577366D01*
X257436952Y-57559508D01*
X257246476Y-57488080D01*
X257151238Y-57428556D01*
X257056000Y-57321413D01*
X257008380Y-57172604D01*
X257008380Y-57077366D01*
X257056000Y-56940461D01*
X257103619Y-56898794D01*
X257913142Y-55999985D02*
X257960761Y-56053556D01*
X258008380Y-56202366D01*
X258008380Y-56297604D01*
X257960761Y-56434508D01*
X257865523Y-56517842D01*
X257770285Y-56553556D01*
X257579809Y-56577366D01*
X257436952Y-56559508D01*
X257246476Y-56488080D01*
X257151238Y-56428556D01*
X257056000Y-56321413D01*
X257008380Y-56172604D01*
X257008380Y-56077366D01*
X257056000Y-55940461D01*
X257103619Y-55898794D01*
D13*
X248748480Y-103439599D02*
X248677051Y-103549718D01*
X248677051Y-103728289D01*
X248748480Y-103915789D01*
X248891337Y-104052694D01*
X249034194Y-104130075D01*
X249319908Y-104225313D01*
X249534194Y-104252099D01*
X249819908Y-104228289D01*
X249962765Y-104186622D01*
X250105622Y-104085432D01*
X250177051Y-103915789D01*
X250177051Y-103796741D01*
X250105622Y-103609241D01*
X250034194Y-103540789D01*
X249534194Y-103478289D01*
X249534194Y-103716384D01*
X250177051Y-103022932D02*
X248677051Y-102835432D01*
X250177051Y-102308646D01*
X248677051Y-102121146D01*
X250177051Y-101713408D02*
X248677051Y-101525908D01*
X248677051Y-101228289D01*
X248748480Y-101058646D01*
X248891337Y-100957456D01*
X249034194Y-100915789D01*
X249319908Y-100891980D01*
X249534194Y-100918765D01*
X249819908Y-101014003D01*
X249962765Y-101091384D01*
X250105622Y-101228289D01*
X250177051Y-101415789D01*
X250177051Y-101713408D01*
X252677051Y-104272932D02*
X251177051Y-104085432D01*
X251177051Y-103787813D01*
X251248480Y-103618170D01*
X251391337Y-103516980D01*
X251534194Y-103475313D01*
X251819908Y-103451503D01*
X252034194Y-103478289D01*
X252319908Y-103573527D01*
X252462765Y-103650908D01*
X252605622Y-103787813D01*
X252677051Y-103975313D01*
X252677051Y-104272932D01*
X252248480Y-103028884D02*
X252248480Y-102433646D01*
X252677051Y-103201503D02*
X251177051Y-102597337D01*
X252677051Y-102368170D01*
X251177051Y-101942575D02*
X251177051Y-101228289D01*
X252677051Y-101772932D02*
X251177051Y-101585432D01*
X252248480Y-101005075D02*
X252248480Y-100409837D01*
X252677051Y-101177694D02*
X251177051Y-100573527D01*
X252677051Y-100344360D01*
X253677051Y-104264003D02*
X255177051Y-104034837D01*
X253677051Y-103430670D01*
X255034194Y-102469360D02*
X255105622Y-102537813D01*
X255177051Y-102725313D01*
X255177051Y-102844360D01*
X255105622Y-103014003D01*
X254962765Y-103115194D01*
X254819908Y-103156860D01*
X254534194Y-103180670D01*
X254319908Y-103153884D01*
X254034194Y-103058646D01*
X253891337Y-102981265D01*
X253748480Y-102844360D01*
X253677051Y-102656860D01*
X253677051Y-102537813D01*
X253748480Y-102368170D01*
X253819908Y-102317575D01*
X255034194Y-101219360D02*
X255105622Y-101287813D01*
X255177051Y-101475313D01*
X255177051Y-101594360D01*
X255105622Y-101764003D01*
X254962765Y-101865194D01*
X254819908Y-101906860D01*
X254534194Y-101930670D01*
X254319908Y-101903884D01*
X254034194Y-101808646D01*
X253891337Y-101731265D01*
X253748480Y-101594360D01*
X253677051Y-101406860D01*
X253677051Y-101287813D01*
X253748480Y-101118170D01*
X253819908Y-101067575D01*
D11*
X238700000Y-121980000D02*
X238700000Y-116780000D01*
X238700000Y-116780000D02*
X243900000Y-116780000D01*
X243900000Y-116780000D02*
X243900000Y-121980000D01*
X243900000Y-121980000D02*
X238700000Y-121980000D01*
X242300000Y-119380000D02*
G75*
G03X242300000Y-119380000I-1000000J0D01*
G01*
X253301500Y-121793000D02*
X253047500Y-122047000D01*
X253047500Y-122047000D02*
X252793500Y-122047000D01*
X252793500Y-122047000D02*
X252539500Y-121793000D01*
X252539500Y-121793000D02*
X248475500Y-121793000D01*
X248475500Y-121793000D02*
X248221500Y-122047000D01*
X248221500Y-122047000D02*
X247967500Y-122047000D01*
X247967500Y-122047000D02*
X247713500Y-121793000D01*
X247713500Y-121793000D02*
X247713500Y-120269000D01*
X247713500Y-120269000D02*
X247967500Y-120015000D01*
X247967500Y-120015000D02*
X248221500Y-120015000D01*
X248221500Y-120015000D02*
X248475500Y-120269000D01*
X248475500Y-120269000D02*
X252539500Y-120269000D01*
X252539500Y-120269000D02*
X252793500Y-120015000D01*
X252793500Y-120015000D02*
X253047500Y-120015000D01*
X253047500Y-120015000D02*
X253301500Y-120269000D01*
X253301500Y-120269000D02*
X253301500Y-121793000D01*
X253809500Y-121031000D02*
X253301500Y-121031000D01*
X247713500Y-121031000D02*
X247205500Y-121031000D01*
X257175000Y-117985000D02*
X257175000Y-111885000D01*
X245075000Y-117985000D02*
X245075000Y-111885000D01*
X257175000Y-117985000D02*
X245075000Y-117985000D01*
X257175000Y-111885000D02*
X245075000Y-111885000D01*
X257175000Y-117735000D02*
X259175000Y-117735000D01*
X257175000Y-112135000D02*
X259175000Y-112135000D01*
X259175000Y-117735000D02*
X259175000Y-112135000D01*
D12*
X140579920Y-67802620D02*
X140579920Y-65562620D01*
X140339920Y-67802620D02*
X140339920Y-65562620D01*
X140459920Y-67802620D02*
X140459920Y-65562620D01*
X136289920Y-66682620D02*
X136939920Y-66682620D01*
X141829920Y-66682620D02*
X141179920Y-66682620D01*
X136939920Y-67802620D02*
X141179920Y-67802620D01*
X136939920Y-65562620D02*
X136939920Y-67802620D01*
X141179920Y-65562620D02*
X136939920Y-65562620D01*
X141179920Y-67802620D02*
X141179920Y-65562620D01*
X141755000Y-61006800D02*
X143995000Y-61006800D01*
X141755000Y-60766800D02*
X143995000Y-60766800D01*
X141755000Y-60886800D02*
X143995000Y-60886800D01*
X142875000Y-56716800D02*
X142875000Y-57366800D01*
X142875000Y-62256800D02*
X142875000Y-61606800D01*
X141755000Y-57366800D02*
X141755000Y-61606800D01*
X143995000Y-57366800D02*
X141755000Y-57366800D01*
X143995000Y-61606800D02*
X143995000Y-57366800D01*
X141755000Y-61606800D02*
X143995000Y-61606800D01*
X160805000Y-61083000D02*
X163045000Y-61083000D01*
X160805000Y-60843000D02*
X163045000Y-60843000D01*
X160805000Y-60963000D02*
X163045000Y-60963000D01*
X161925000Y-56793000D02*
X161925000Y-57443000D01*
X161925000Y-62333000D02*
X161925000Y-61683000D01*
X160805000Y-57443000D02*
X160805000Y-61683000D01*
X163045000Y-57443000D02*
X160805000Y-57443000D01*
X163045000Y-61683000D02*
X163045000Y-57443000D01*
X160805000Y-61683000D02*
X163045000Y-61683000D01*
X179855000Y-61083000D02*
X182095000Y-61083000D01*
X179855000Y-60843000D02*
X182095000Y-60843000D01*
X179855000Y-60963000D02*
X182095000Y-60963000D01*
X180975000Y-56793000D02*
X180975000Y-57443000D01*
X180975000Y-62333000D02*
X180975000Y-61683000D01*
X179855000Y-57443000D02*
X179855000Y-61683000D01*
X182095000Y-57443000D02*
X179855000Y-57443000D01*
X182095000Y-61683000D02*
X182095000Y-57443000D01*
X179855000Y-61683000D02*
X182095000Y-61683000D01*
X198905000Y-61083000D02*
X201145000Y-61083000D01*
X198905000Y-60843000D02*
X201145000Y-60843000D01*
X198905000Y-60963000D02*
X201145000Y-60963000D01*
X200025000Y-56793000D02*
X200025000Y-57443000D01*
X200025000Y-62333000D02*
X200025000Y-61683000D01*
X198905000Y-57443000D02*
X198905000Y-61683000D01*
X201145000Y-57443000D02*
X198905000Y-57443000D01*
X201145000Y-61683000D02*
X201145000Y-57443000D01*
X198905000Y-61683000D02*
X201145000Y-61683000D01*
X217955000Y-61083000D02*
X220195000Y-61083000D01*
X217955000Y-60843000D02*
X220195000Y-60843000D01*
X217955000Y-60963000D02*
X220195000Y-60963000D01*
X219075000Y-56793000D02*
X219075000Y-57443000D01*
X219075000Y-62333000D02*
X219075000Y-61683000D01*
X217955000Y-57443000D02*
X217955000Y-61683000D01*
X220195000Y-57443000D02*
X217955000Y-57443000D01*
X220195000Y-61683000D02*
X220195000Y-57443000D01*
X217955000Y-61683000D02*
X220195000Y-61683000D01*
X221365000Y-65428000D02*
X221365000Y-67668000D01*
X221605000Y-65428000D02*
X221605000Y-67668000D01*
X221485000Y-65428000D02*
X221485000Y-67668000D01*
X225655000Y-66548000D02*
X225005000Y-66548000D01*
X220115000Y-66548000D02*
X220765000Y-66548000D01*
X225005000Y-65428000D02*
X220765000Y-65428000D01*
X225005000Y-67668000D02*
X225005000Y-65428000D01*
X220765000Y-67668000D02*
X225005000Y-67668000D01*
X220765000Y-65428000D02*
X220765000Y-67668000D01*
X144458500Y-86781500D02*
X144458500Y-84541500D01*
X144218500Y-86781500D02*
X144218500Y-84541500D01*
X144338500Y-86781500D02*
X144338500Y-84541500D01*
X140168500Y-85661500D02*
X140818500Y-85661500D01*
X145708500Y-85661500D02*
X145058500Y-85661500D01*
X140818500Y-86781500D02*
X145058500Y-86781500D01*
X140818500Y-84541500D02*
X140818500Y-86781500D01*
X145058500Y-84541500D02*
X140818500Y-84541500D01*
X145058500Y-86781500D02*
X145058500Y-84541500D01*
X141755000Y-80133000D02*
X143995000Y-80133000D01*
X141755000Y-79893000D02*
X143995000Y-79893000D01*
X141755000Y-80013000D02*
X143995000Y-80013000D01*
X142875000Y-75843000D02*
X142875000Y-76493000D01*
X142875000Y-81383000D02*
X142875000Y-80733000D01*
X141755000Y-76493000D02*
X141755000Y-80733000D01*
X143995000Y-76493000D02*
X141755000Y-76493000D01*
X143995000Y-80733000D02*
X143995000Y-76493000D01*
X141755000Y-80733000D02*
X143995000Y-80733000D01*
X160805000Y-80133000D02*
X163045000Y-80133000D01*
X160805000Y-79893000D02*
X163045000Y-79893000D01*
X160805000Y-80013000D02*
X163045000Y-80013000D01*
X161925000Y-75843000D02*
X161925000Y-76493000D01*
X161925000Y-81383000D02*
X161925000Y-80733000D01*
X160805000Y-76493000D02*
X160805000Y-80733000D01*
X163045000Y-76493000D02*
X160805000Y-76493000D01*
X163045000Y-80733000D02*
X163045000Y-76493000D01*
X160805000Y-80733000D02*
X163045000Y-80733000D01*
X179855000Y-80133000D02*
X182095000Y-80133000D01*
X179855000Y-79893000D02*
X182095000Y-79893000D01*
X179855000Y-80013000D02*
X182095000Y-80013000D01*
X180975000Y-75843000D02*
X180975000Y-76493000D01*
X180975000Y-81383000D02*
X180975000Y-80733000D01*
X179855000Y-76493000D02*
X179855000Y-80733000D01*
X182095000Y-76493000D02*
X179855000Y-76493000D01*
X182095000Y-80733000D02*
X182095000Y-76493000D01*
X179855000Y-80733000D02*
X182095000Y-80733000D01*
X198905000Y-80133000D02*
X201145000Y-80133000D01*
X198905000Y-79893000D02*
X201145000Y-79893000D01*
X198905000Y-80013000D02*
X201145000Y-80013000D01*
X200025000Y-75843000D02*
X200025000Y-76493000D01*
X200025000Y-81383000D02*
X200025000Y-80733000D01*
X198905000Y-76493000D02*
X198905000Y-80733000D01*
X201145000Y-76493000D02*
X198905000Y-76493000D01*
X201145000Y-80733000D02*
X201145000Y-76493000D01*
X198905000Y-80733000D02*
X201145000Y-80733000D01*
X217955000Y-80133000D02*
X220195000Y-80133000D01*
X217955000Y-79893000D02*
X220195000Y-79893000D01*
X217955000Y-80013000D02*
X220195000Y-80013000D01*
X219075000Y-75843000D02*
X219075000Y-76493000D01*
X219075000Y-81383000D02*
X219075000Y-80733000D01*
X217955000Y-76493000D02*
X217955000Y-80733000D01*
X220195000Y-76493000D02*
X217955000Y-76493000D01*
X220195000Y-80733000D02*
X220195000Y-76493000D01*
X217955000Y-80733000D02*
X220195000Y-80733000D01*
X229620000Y-84605000D02*
X229620000Y-86845000D01*
X229860000Y-84605000D02*
X229860000Y-86845000D01*
X229740000Y-84605000D02*
X229740000Y-86845000D01*
X233910000Y-85725000D02*
X233260000Y-85725000D01*
X228370000Y-85725000D02*
X229020000Y-85725000D01*
X233260000Y-84605000D02*
X229020000Y-84605000D01*
X233260000Y-86845000D02*
X233260000Y-84605000D01*
X229020000Y-86845000D02*
X233260000Y-86845000D01*
X229020000Y-84605000D02*
X229020000Y-86845000D01*
X133473000Y-86781500D02*
X133473000Y-84541500D01*
X133233000Y-86781500D02*
X133233000Y-84541500D01*
X133353000Y-86781500D02*
X133353000Y-84541500D01*
X129183000Y-85661500D02*
X129833000Y-85661500D01*
X134723000Y-85661500D02*
X134073000Y-85661500D01*
X129833000Y-86781500D02*
X134073000Y-86781500D01*
X129833000Y-84541500D02*
X129833000Y-86781500D01*
X134073000Y-84541500D02*
X129833000Y-84541500D01*
X134073000Y-86781500D02*
X134073000Y-84541500D01*
X141755000Y-99183000D02*
X143995000Y-99183000D01*
X141755000Y-98943000D02*
X143995000Y-98943000D01*
X141755000Y-99063000D02*
X143995000Y-99063000D01*
X142875000Y-94893000D02*
X142875000Y-95543000D01*
X142875000Y-100433000D02*
X142875000Y-99783000D01*
X141755000Y-95543000D02*
X141755000Y-99783000D01*
X143995000Y-95543000D02*
X141755000Y-95543000D01*
X143995000Y-99783000D02*
X143995000Y-95543000D01*
X141755000Y-99783000D02*
X143995000Y-99783000D01*
X160805000Y-99183000D02*
X163045000Y-99183000D01*
X160805000Y-98943000D02*
X163045000Y-98943000D01*
X160805000Y-99063000D02*
X163045000Y-99063000D01*
X161925000Y-94893000D02*
X161925000Y-95543000D01*
X161925000Y-100433000D02*
X161925000Y-99783000D01*
X160805000Y-95543000D02*
X160805000Y-99783000D01*
X163045000Y-95543000D02*
X160805000Y-95543000D01*
X163045000Y-99783000D02*
X163045000Y-95543000D01*
X160805000Y-99783000D02*
X163045000Y-99783000D01*
X179855000Y-99183000D02*
X182095000Y-99183000D01*
X179855000Y-98943000D02*
X182095000Y-98943000D01*
X179855000Y-99063000D02*
X182095000Y-99063000D01*
X180975000Y-94893000D02*
X180975000Y-95543000D01*
X180975000Y-100433000D02*
X180975000Y-99783000D01*
X179855000Y-95543000D02*
X179855000Y-99783000D01*
X182095000Y-95543000D02*
X179855000Y-95543000D01*
X182095000Y-99783000D02*
X182095000Y-95543000D01*
X179855000Y-99783000D02*
X182095000Y-99783000D01*
X198905000Y-99183000D02*
X201145000Y-99183000D01*
X198905000Y-98943000D02*
X201145000Y-98943000D01*
X198905000Y-99063000D02*
X201145000Y-99063000D01*
X200025000Y-94893000D02*
X200025000Y-95543000D01*
X200025000Y-100433000D02*
X200025000Y-99783000D01*
X198905000Y-95543000D02*
X198905000Y-99783000D01*
X201145000Y-95543000D02*
X198905000Y-95543000D01*
X201145000Y-99783000D02*
X201145000Y-95543000D01*
X198905000Y-99783000D02*
X201145000Y-99783000D01*
X217955000Y-99183000D02*
X220195000Y-99183000D01*
X217955000Y-98943000D02*
X220195000Y-98943000D01*
X217955000Y-99063000D02*
X220195000Y-99063000D01*
X219075000Y-94893000D02*
X219075000Y-95543000D01*
X219075000Y-100433000D02*
X219075000Y-99783000D01*
X217955000Y-95543000D02*
X217955000Y-99783000D01*
X220195000Y-95543000D02*
X217955000Y-95543000D01*
X220195000Y-99783000D02*
X220195000Y-95543000D01*
X217955000Y-99783000D02*
X220195000Y-99783000D01*
X240288000Y-102258000D02*
X240288000Y-104498000D01*
X240528000Y-102258000D02*
X240528000Y-104498000D01*
X240408000Y-102258000D02*
X240408000Y-104498000D01*
X244578000Y-103378000D02*
X243928000Y-103378000D01*
X239038000Y-103378000D02*
X239688000Y-103378000D01*
X243928000Y-102258000D02*
X239688000Y-102258000D01*
X243928000Y-104498000D02*
X243928000Y-102258000D01*
X239688000Y-104498000D02*
X243928000Y-104498000D01*
X239688000Y-102258000D02*
X239688000Y-104498000D01*
X209165000Y-106276000D02*
X209165000Y-104036000D01*
X208925000Y-106276000D02*
X208925000Y-104036000D01*
X209045000Y-106276000D02*
X209045000Y-104036000D01*
X204875000Y-105156000D02*
X205525000Y-105156000D01*
X210415000Y-105156000D02*
X209765000Y-105156000D01*
X205525000Y-106276000D02*
X209765000Y-106276000D01*
X205525000Y-104036000D02*
X205525000Y-106276000D01*
X209765000Y-104036000D02*
X205525000Y-104036000D01*
X209765000Y-106276000D02*
X209765000Y-104036000D01*
X225810000Y-104036000D02*
X225810000Y-106276000D01*
X226050000Y-104036000D02*
X226050000Y-106276000D01*
X225930000Y-104036000D02*
X225930000Y-106276000D01*
X230100000Y-105156000D02*
X229450000Y-105156000D01*
X224560000Y-105156000D02*
X225210000Y-105156000D01*
X229450000Y-104036000D02*
X225210000Y-104036000D01*
X229450000Y-106276000D02*
X229450000Y-104036000D01*
X225210000Y-106276000D02*
X229450000Y-106276000D01*
X225210000Y-104036000D02*
X225210000Y-106276000D01*
D11*
X238718855Y-112692575D02*
X238464855Y-112438575D01*
X238464855Y-112438575D02*
X238464855Y-112184575D01*
X238464855Y-112184575D02*
X238718855Y-111930575D01*
X238718855Y-111930575D02*
X238718855Y-107866575D01*
X238718855Y-107866575D02*
X238464855Y-107612575D01*
X238464855Y-107612575D02*
X238464855Y-107358575D01*
X238464855Y-107358575D02*
X238718855Y-107104575D01*
X238718855Y-107104575D02*
X240242855Y-107104575D01*
X240242855Y-107104575D02*
X240496855Y-107358575D01*
X240496855Y-107358575D02*
X240496855Y-107612575D01*
X240496855Y-107612575D02*
X240242855Y-107866575D01*
X240242855Y-107866575D02*
X240242855Y-111930575D01*
X240242855Y-111930575D02*
X240496855Y-112184575D01*
X240496855Y-112184575D02*
X240496855Y-112438575D01*
X240496855Y-112438575D02*
X240242855Y-112692575D01*
X240242855Y-112692575D02*
X238718855Y-112692575D01*
X239480855Y-113200575D02*
X239480855Y-112692575D01*
X239480855Y-107104575D02*
X239480855Y-106596575D01*
X241898855Y-112692575D02*
X241644855Y-112438575D01*
X241644855Y-112438575D02*
X241644855Y-112184575D01*
X241644855Y-112184575D02*
X241898855Y-111930575D01*
X241898855Y-111930575D02*
X241898855Y-107866575D01*
X241898855Y-107866575D02*
X241644855Y-107612575D01*
X241644855Y-107612575D02*
X241644855Y-107358575D01*
X241644855Y-107358575D02*
X241898855Y-107104575D01*
X241898855Y-107104575D02*
X243422855Y-107104575D01*
X243422855Y-107104575D02*
X243676855Y-107358575D01*
X243676855Y-107358575D02*
X243676855Y-107612575D01*
X243676855Y-107612575D02*
X243422855Y-107866575D01*
X243422855Y-107866575D02*
X243422855Y-111930575D01*
X243422855Y-111930575D02*
X243676855Y-112184575D01*
X243676855Y-112184575D02*
X243676855Y-112438575D01*
X243676855Y-112438575D02*
X243422855Y-112692575D01*
X243422855Y-112692575D02*
X241898855Y-112692575D01*
X242660855Y-113200575D02*
X242660855Y-112692575D01*
X242660855Y-107104575D02*
X242660855Y-106596575D01*
D14*
X241300000Y-48260000D02*
X238760000Y-48260000D01*
X238760000Y-45720000D02*
X238760000Y-48260000D01*
X256540000Y-45720000D02*
X238760000Y-45720000D01*
X256540000Y-48260000D02*
X256540000Y-45720000D01*
D11*
G36*
X252581568Y-54739360D02*
G01*
X252581568Y-54939360D01*
X252481568Y-54939360D01*
X252481568Y-54739360D01*
X252581568Y-54739360D01*
G37*
X252581568Y-54739360D02*
X252581568Y-54939360D01*
X252481568Y-54939360D01*
X252481568Y-54739360D01*
X252581568Y-54739360D01*
G36*
X252181568Y-54139360D02*
G01*
X252181568Y-54939360D01*
X252081568Y-54939360D01*
X252081568Y-54139360D01*
X252181568Y-54139360D01*
G37*
X252181568Y-54139360D02*
X252181568Y-54939360D01*
X252081568Y-54939360D01*
X252081568Y-54139360D01*
X252181568Y-54139360D01*
G36*
X252581568Y-54139360D02*
G01*
X252581568Y-54239360D01*
X252081568Y-54239360D01*
X252081568Y-54139360D01*
X252581568Y-54139360D01*
G37*
X252581568Y-54139360D02*
X252581568Y-54239360D01*
X252081568Y-54239360D01*
X252081568Y-54139360D01*
X252581568Y-54139360D01*
G36*
X252381568Y-54539360D02*
G01*
X252381568Y-54639360D01*
X252281568Y-54639360D01*
X252281568Y-54539360D01*
X252381568Y-54539360D01*
G37*
X252381568Y-54539360D02*
X252381568Y-54639360D01*
X252281568Y-54639360D01*
X252281568Y-54539360D01*
X252381568Y-54539360D01*
G36*
X252581568Y-54139360D02*
G01*
X252581568Y-54439360D01*
X252481568Y-54439360D01*
X252481568Y-54139360D01*
X252581568Y-54139360D01*
G37*
X252581568Y-54139360D02*
X252581568Y-54439360D01*
X252481568Y-54439360D01*
X252481568Y-54139360D01*
X252581568Y-54139360D01*
D14*
X241300000Y-50800000D02*
X238760000Y-50800000D01*
X241300000Y-48260000D02*
X241300000Y-50800000D01*
X256540000Y-78740000D02*
X256540000Y-48260000D01*
X238760000Y-78740000D02*
X256540000Y-78740000D01*
X238760000Y-48260000D02*
X238760000Y-78740000D01*
D11*
X217741666Y-101027380D02*
X217408333Y-100551190D01*
X217170238Y-101027380D02*
X217170238Y-100027380D01*
X217551190Y-100027380D01*
X217646428Y-100075000D01*
X217694047Y-100122619D01*
X217741666Y-100217857D01*
X217741666Y-100360714D01*
X217694047Y-100455952D01*
X217646428Y-100503571D01*
X217551190Y-100551190D01*
X217170238Y-100551190D01*
X218170238Y-100503571D02*
X218503571Y-100503571D01*
X218646428Y-101027380D02*
X218170238Y-101027380D01*
X218170238Y-100027380D01*
X218646428Y-100027380D01*
X219408333Y-100503571D02*
X219075000Y-100503571D01*
X219075000Y-101027380D02*
X219075000Y-100027380D01*
X219551190Y-100027380D01*
X220075000Y-100027380D02*
X220075000Y-100265476D01*
X219836904Y-100170238D02*
X220075000Y-100265476D01*
X220313095Y-100170238D01*
X219932142Y-100455952D02*
X220075000Y-100265476D01*
X220217857Y-100455952D01*
X220836904Y-100027380D02*
X220836904Y-100265476D01*
X220598809Y-100170238D02*
X220836904Y-100265476D01*
X221075000Y-100170238D01*
X220694047Y-100455952D02*
X220836904Y-100265476D01*
X220979761Y-100455952D01*
X198691666Y-81977380D02*
X198358333Y-81501190D01*
X198120238Y-81977380D02*
X198120238Y-80977380D01*
X198501190Y-80977380D01*
X198596428Y-81025000D01*
X198644047Y-81072619D01*
X198691666Y-81167857D01*
X198691666Y-81310714D01*
X198644047Y-81405952D01*
X198596428Y-81453571D01*
X198501190Y-81501190D01*
X198120238Y-81501190D01*
X199120238Y-81453571D02*
X199453571Y-81453571D01*
X199596428Y-81977380D02*
X199120238Y-81977380D01*
X199120238Y-80977380D01*
X199596428Y-80977380D01*
X200358333Y-81453571D02*
X200025000Y-81453571D01*
X200025000Y-81977380D02*
X200025000Y-80977380D01*
X200501190Y-80977380D01*
X201025000Y-80977380D02*
X201025000Y-81215476D01*
X200786904Y-81120238D02*
X201025000Y-81215476D01*
X201263095Y-81120238D01*
X200882142Y-81405952D02*
X201025000Y-81215476D01*
X201167857Y-81405952D01*
X201786904Y-80977380D02*
X201786904Y-81215476D01*
X201548809Y-81120238D02*
X201786904Y-81215476D01*
X202025000Y-81120238D01*
X201644047Y-81405952D02*
X201786904Y-81215476D01*
X201929761Y-81405952D01*
X160591666Y-81977380D02*
X160258333Y-81501190D01*
X160020238Y-81977380D02*
X160020238Y-80977380D01*
X160401190Y-80977380D01*
X160496428Y-81025000D01*
X160544047Y-81072619D01*
X160591666Y-81167857D01*
X160591666Y-81310714D01*
X160544047Y-81405952D01*
X160496428Y-81453571D01*
X160401190Y-81501190D01*
X160020238Y-81501190D01*
X161020238Y-81453571D02*
X161353571Y-81453571D01*
X161496428Y-81977380D02*
X161020238Y-81977380D01*
X161020238Y-80977380D01*
X161496428Y-80977380D01*
X162258333Y-81453571D02*
X161925000Y-81453571D01*
X161925000Y-81977380D02*
X161925000Y-80977380D01*
X162401190Y-80977380D01*
X162925000Y-80977380D02*
X162925000Y-81215476D01*
X162686904Y-81120238D02*
X162925000Y-81215476D01*
X163163095Y-81120238D01*
X162782142Y-81405952D02*
X162925000Y-81215476D01*
X163067857Y-81405952D01*
X163686904Y-80977380D02*
X163686904Y-81215476D01*
X163448809Y-81120238D02*
X163686904Y-81215476D01*
X163925000Y-81120238D01*
X163544047Y-81405952D02*
X163686904Y-81215476D01*
X163829761Y-81405952D01*
X198691666Y-62927380D02*
X198358333Y-62451190D01*
X198120238Y-62927380D02*
X198120238Y-61927380D01*
X198501190Y-61927380D01*
X198596428Y-61975000D01*
X198644047Y-62022619D01*
X198691666Y-62117857D01*
X198691666Y-62260714D01*
X198644047Y-62355952D01*
X198596428Y-62403571D01*
X198501190Y-62451190D01*
X198120238Y-62451190D01*
X199120238Y-62403571D02*
X199453571Y-62403571D01*
X199596428Y-62927380D02*
X199120238Y-62927380D01*
X199120238Y-61927380D01*
X199596428Y-61927380D01*
X200358333Y-62403571D02*
X200025000Y-62403571D01*
X200025000Y-62927380D02*
X200025000Y-61927380D01*
X200501190Y-61927380D01*
X201025000Y-61927380D02*
X201025000Y-62165476D01*
X200786904Y-62070238D02*
X201025000Y-62165476D01*
X201263095Y-62070238D01*
X200882142Y-62355952D02*
X201025000Y-62165476D01*
X201167857Y-62355952D01*
X201786904Y-61927380D02*
X201786904Y-62165476D01*
X201548809Y-62070238D02*
X201786904Y-62165476D01*
X202025000Y-62070238D01*
X201644047Y-62355952D02*
X201786904Y-62165476D01*
X201929761Y-62355952D01*
X160591666Y-62927380D02*
X160258333Y-62451190D01*
X160020238Y-62927380D02*
X160020238Y-61927380D01*
X160401190Y-61927380D01*
X160496428Y-61975000D01*
X160544047Y-62022619D01*
X160591666Y-62117857D01*
X160591666Y-62260714D01*
X160544047Y-62355952D01*
X160496428Y-62403571D01*
X160401190Y-62451190D01*
X160020238Y-62451190D01*
X161020238Y-62403571D02*
X161353571Y-62403571D01*
X161496428Y-62927380D02*
X161020238Y-62927380D01*
X161020238Y-61927380D01*
X161496428Y-61927380D01*
X162258333Y-62403571D02*
X161925000Y-62403571D01*
X161925000Y-62927380D02*
X161925000Y-61927380D01*
X162401190Y-61927380D01*
X162925000Y-61927380D02*
X162925000Y-62165476D01*
X162686904Y-62070238D02*
X162925000Y-62165476D01*
X163163095Y-62070238D01*
X162782142Y-62355952D02*
X162925000Y-62165476D01*
X163067857Y-62355952D01*
X163686904Y-61927380D02*
X163686904Y-62165476D01*
X163448809Y-62070238D02*
X163686904Y-62165476D01*
X163925000Y-62070238D01*
X163544047Y-62355952D02*
X163686904Y-62165476D01*
X163829761Y-62355952D01*
X237683300Y-119803159D02*
X237207110Y-120136492D01*
X237683300Y-120374587D02*
X236683300Y-120374587D01*
X236683300Y-119993635D01*
X236730920Y-119898397D01*
X236778539Y-119850778D01*
X236873777Y-119803159D01*
X237016634Y-119803159D01*
X237111872Y-119850778D01*
X237159491Y-119898397D01*
X237207110Y-119993635D01*
X237207110Y-120374587D01*
X237635681Y-119422206D02*
X237683300Y-119279349D01*
X237683300Y-119041254D01*
X237635681Y-118946016D01*
X237588062Y-118898397D01*
X237492824Y-118850778D01*
X237397586Y-118850778D01*
X237302348Y-118898397D01*
X237254729Y-118946016D01*
X237207110Y-119041254D01*
X237159491Y-119231730D01*
X237111872Y-119326968D01*
X237064253Y-119374587D01*
X236969015Y-119422206D01*
X236873777Y-119422206D01*
X236778539Y-119374587D01*
X236730920Y-119326968D01*
X236683300Y-119231730D01*
X236683300Y-118993635D01*
X236730920Y-118850778D01*
X236683300Y-118565063D02*
X236683300Y-117993635D01*
X237683300Y-118279349D02*
X236683300Y-118279349D01*
X250056709Y-119892904D02*
X249599566Y-119892904D01*
X249828138Y-119892904D02*
X249828138Y-119092904D01*
X249751947Y-119207190D01*
X249675757Y-119283380D01*
X249599566Y-119321476D01*
X250551947Y-119092904D02*
X250628138Y-119092904D01*
X250704328Y-119131000D01*
X250742423Y-119169095D01*
X250780519Y-119245285D01*
X250818614Y-119397666D01*
X250818614Y-119588142D01*
X250780519Y-119740523D01*
X250742423Y-119816714D01*
X250704328Y-119854809D01*
X250628138Y-119892904D01*
X250551947Y-119892904D01*
X250475757Y-119854809D01*
X250437661Y-119816714D01*
X250399566Y-119740523D01*
X250361471Y-119588142D01*
X250361471Y-119397666D01*
X250399566Y-119245285D01*
X250437661Y-119169095D01*
X250475757Y-119131000D01*
X250551947Y-119092904D01*
X251161471Y-119892904D02*
X251161471Y-119092904D01*
X251237661Y-119588142D02*
X251466233Y-119892904D01*
X251466233Y-119359571D02*
X251161471Y-119664333D01*
X138321824Y-69255000D02*
X138321824Y-68255000D01*
X138559920Y-68255000D01*
X138702777Y-68302620D01*
X138798015Y-68397858D01*
X138845634Y-68493096D01*
X138893253Y-68683572D01*
X138893253Y-68826429D01*
X138845634Y-69016905D01*
X138798015Y-69112143D01*
X138702777Y-69207381D01*
X138559920Y-69255000D01*
X138321824Y-69255000D01*
X139845634Y-69255000D02*
X139274205Y-69255000D01*
X139559920Y-69255000D02*
X139559920Y-68255000D01*
X139464681Y-68397858D01*
X139369443Y-68493096D01*
X139274205Y-68540715D01*
X141207380Y-60224895D02*
X140207380Y-60224895D01*
X140207380Y-59986800D01*
X140255000Y-59843942D01*
X140350238Y-59748704D01*
X140445476Y-59701085D01*
X140635952Y-59653466D01*
X140778809Y-59653466D01*
X140969285Y-59701085D01*
X141064523Y-59748704D01*
X141159761Y-59843942D01*
X141207380Y-59986800D01*
X141207380Y-60224895D01*
X140302619Y-59272514D02*
X140255000Y-59224895D01*
X140207380Y-59129657D01*
X140207380Y-58891561D01*
X140255000Y-58796323D01*
X140302619Y-58748704D01*
X140397857Y-58701085D01*
X140493095Y-58701085D01*
X140635952Y-58748704D01*
X141207380Y-59320133D01*
X141207380Y-58701085D01*
X160257380Y-60301095D02*
X159257380Y-60301095D01*
X159257380Y-60063000D01*
X159305000Y-59920142D01*
X159400238Y-59824904D01*
X159495476Y-59777285D01*
X159685952Y-59729666D01*
X159828809Y-59729666D01*
X160019285Y-59777285D01*
X160114523Y-59824904D01*
X160209761Y-59920142D01*
X160257380Y-60063000D01*
X160257380Y-60301095D01*
X159257380Y-59396333D02*
X159257380Y-58777285D01*
X159638333Y-59110619D01*
X159638333Y-58967761D01*
X159685952Y-58872523D01*
X159733571Y-58824904D01*
X159828809Y-58777285D01*
X160066904Y-58777285D01*
X160162142Y-58824904D01*
X160209761Y-58872523D01*
X160257380Y-58967761D01*
X160257380Y-59253476D01*
X160209761Y-59348714D01*
X160162142Y-59396333D01*
X179307380Y-60301095D02*
X178307380Y-60301095D01*
X178307380Y-60063000D01*
X178355000Y-59920142D01*
X178450238Y-59824904D01*
X178545476Y-59777285D01*
X178735952Y-59729666D01*
X178878809Y-59729666D01*
X179069285Y-59777285D01*
X179164523Y-59824904D01*
X179259761Y-59920142D01*
X179307380Y-60063000D01*
X179307380Y-60301095D01*
X178640714Y-58872523D02*
X179307380Y-58872523D01*
X178259761Y-59110619D02*
X178974047Y-59348714D01*
X178974047Y-58729666D01*
X198357380Y-60301095D02*
X197357380Y-60301095D01*
X197357380Y-60063000D01*
X197405000Y-59920142D01*
X197500238Y-59824904D01*
X197595476Y-59777285D01*
X197785952Y-59729666D01*
X197928809Y-59729666D01*
X198119285Y-59777285D01*
X198214523Y-59824904D01*
X198309761Y-59920142D01*
X198357380Y-60063000D01*
X198357380Y-60301095D01*
X197357380Y-58824904D02*
X197357380Y-59301095D01*
X197833571Y-59348714D01*
X197785952Y-59301095D01*
X197738333Y-59205857D01*
X197738333Y-58967761D01*
X197785952Y-58872523D01*
X197833571Y-58824904D01*
X197928809Y-58777285D01*
X198166904Y-58777285D01*
X198262142Y-58824904D01*
X198309761Y-58872523D01*
X198357380Y-58967761D01*
X198357380Y-59205857D01*
X198309761Y-59301095D01*
X198262142Y-59348714D01*
X217407380Y-60301095D02*
X216407380Y-60301095D01*
X216407380Y-60063000D01*
X216455000Y-59920142D01*
X216550238Y-59824904D01*
X216645476Y-59777285D01*
X216835952Y-59729666D01*
X216978809Y-59729666D01*
X217169285Y-59777285D01*
X217264523Y-59824904D01*
X217359761Y-59920142D01*
X217407380Y-60063000D01*
X217407380Y-60301095D01*
X216407380Y-58872523D02*
X216407380Y-59063000D01*
X216455000Y-59158238D01*
X216502619Y-59205857D01*
X216645476Y-59301095D01*
X216835952Y-59348714D01*
X217216904Y-59348714D01*
X217312142Y-59301095D01*
X217359761Y-59253476D01*
X217407380Y-59158238D01*
X217407380Y-58967761D01*
X217359761Y-58872523D01*
X217312142Y-58824904D01*
X217216904Y-58777285D01*
X216978809Y-58777285D01*
X216883571Y-58824904D01*
X216835952Y-58872523D01*
X216788333Y-58967761D01*
X216788333Y-59158238D01*
X216835952Y-59253476D01*
X216883571Y-59301095D01*
X216978809Y-59348714D01*
X222146904Y-64880380D02*
X222146904Y-63880380D01*
X222385000Y-63880380D01*
X222527857Y-63928000D01*
X222623095Y-64023238D01*
X222670714Y-64118476D01*
X222718333Y-64308952D01*
X222718333Y-64451809D01*
X222670714Y-64642285D01*
X222623095Y-64737523D01*
X222527857Y-64832761D01*
X222385000Y-64880380D01*
X222146904Y-64880380D01*
X223051666Y-63880380D02*
X223718333Y-63880380D01*
X223289761Y-64880380D01*
X142200404Y-88233880D02*
X142200404Y-87233880D01*
X142438500Y-87233880D01*
X142581357Y-87281500D01*
X142676595Y-87376738D01*
X142724214Y-87471976D01*
X142771833Y-87662452D01*
X142771833Y-87805309D01*
X142724214Y-87995785D01*
X142676595Y-88091023D01*
X142581357Y-88186261D01*
X142438500Y-88233880D01*
X142200404Y-88233880D01*
X143343261Y-87662452D02*
X143248023Y-87614833D01*
X143200404Y-87567214D01*
X143152785Y-87471976D01*
X143152785Y-87424357D01*
X143200404Y-87329119D01*
X143248023Y-87281500D01*
X143343261Y-87233880D01*
X143533738Y-87233880D01*
X143628976Y-87281500D01*
X143676595Y-87329119D01*
X143724214Y-87424357D01*
X143724214Y-87471976D01*
X143676595Y-87567214D01*
X143628976Y-87614833D01*
X143533738Y-87662452D01*
X143343261Y-87662452D01*
X143248023Y-87710071D01*
X143200404Y-87757690D01*
X143152785Y-87852928D01*
X143152785Y-88043404D01*
X143200404Y-88138642D01*
X143248023Y-88186261D01*
X143343261Y-88233880D01*
X143533738Y-88233880D01*
X143628976Y-88186261D01*
X143676595Y-88138642D01*
X143724214Y-88043404D01*
X143724214Y-87852928D01*
X143676595Y-87757690D01*
X143628976Y-87710071D01*
X143533738Y-87662452D01*
X141207380Y-79351095D02*
X140207380Y-79351095D01*
X140207380Y-79113000D01*
X140255000Y-78970142D01*
X140350238Y-78874904D01*
X140445476Y-78827285D01*
X140635952Y-78779666D01*
X140778809Y-78779666D01*
X140969285Y-78827285D01*
X141064523Y-78874904D01*
X141159761Y-78970142D01*
X141207380Y-79113000D01*
X141207380Y-79351095D01*
X141207380Y-78303476D02*
X141207380Y-78113000D01*
X141159761Y-78017761D01*
X141112142Y-77970142D01*
X140969285Y-77874904D01*
X140778809Y-77827285D01*
X140397857Y-77827285D01*
X140302619Y-77874904D01*
X140255000Y-77922523D01*
X140207380Y-78017761D01*
X140207380Y-78208238D01*
X140255000Y-78303476D01*
X140302619Y-78351095D01*
X140397857Y-78398714D01*
X140635952Y-78398714D01*
X140731190Y-78351095D01*
X140778809Y-78303476D01*
X140826428Y-78208238D01*
X140826428Y-78017761D01*
X140778809Y-77922523D01*
X140731190Y-77874904D01*
X140635952Y-77827285D01*
X160257380Y-79827285D02*
X159257380Y-79827285D01*
X159257380Y-79589190D01*
X159305000Y-79446333D01*
X159400238Y-79351095D01*
X159495476Y-79303476D01*
X159685952Y-79255857D01*
X159828809Y-79255857D01*
X160019285Y-79303476D01*
X160114523Y-79351095D01*
X160209761Y-79446333D01*
X160257380Y-79589190D01*
X160257380Y-79827285D01*
X160257380Y-78303476D02*
X160257380Y-78874904D01*
X160257380Y-78589190D02*
X159257380Y-78589190D01*
X159400238Y-78684428D01*
X159495476Y-78779666D01*
X159543095Y-78874904D01*
X159257380Y-77684428D02*
X159257380Y-77589190D01*
X159305000Y-77493952D01*
X159352619Y-77446333D01*
X159447857Y-77398714D01*
X159638333Y-77351095D01*
X159876428Y-77351095D01*
X160066904Y-77398714D01*
X160162142Y-77446333D01*
X160209761Y-77493952D01*
X160257380Y-77589190D01*
X160257380Y-77684428D01*
X160209761Y-77779666D01*
X160162142Y-77827285D01*
X160066904Y-77874904D01*
X159876428Y-77922523D01*
X159638333Y-77922523D01*
X159447857Y-77874904D01*
X159352619Y-77827285D01*
X159305000Y-77779666D01*
X159257380Y-77684428D01*
X179307380Y-79827285D02*
X178307380Y-79827285D01*
X178307380Y-79589190D01*
X178355000Y-79446333D01*
X178450238Y-79351095D01*
X178545476Y-79303476D01*
X178735952Y-79255857D01*
X178878809Y-79255857D01*
X179069285Y-79303476D01*
X179164523Y-79351095D01*
X179259761Y-79446333D01*
X179307380Y-79589190D01*
X179307380Y-79827285D01*
X179307380Y-78303476D02*
X179307380Y-78874904D01*
X179307380Y-78589190D02*
X178307380Y-78589190D01*
X178450238Y-78684428D01*
X178545476Y-78779666D01*
X178593095Y-78874904D01*
X179307380Y-77351095D02*
X179307380Y-77922523D01*
X179307380Y-77636809D02*
X178307380Y-77636809D01*
X178450238Y-77732047D01*
X178545476Y-77827285D01*
X178593095Y-77922523D01*
X198357380Y-79827285D02*
X197357380Y-79827285D01*
X197357380Y-79589190D01*
X197405000Y-79446333D01*
X197500238Y-79351095D01*
X197595476Y-79303476D01*
X197785952Y-79255857D01*
X197928809Y-79255857D01*
X198119285Y-79303476D01*
X198214523Y-79351095D01*
X198309761Y-79446333D01*
X198357380Y-79589190D01*
X198357380Y-79827285D01*
X198357380Y-78303476D02*
X198357380Y-78874904D01*
X198357380Y-78589190D02*
X197357380Y-78589190D01*
X197500238Y-78684428D01*
X197595476Y-78779666D01*
X197643095Y-78874904D01*
X197452619Y-77922523D02*
X197405000Y-77874904D01*
X197357380Y-77779666D01*
X197357380Y-77541571D01*
X197405000Y-77446333D01*
X197452619Y-77398714D01*
X197547857Y-77351095D01*
X197643095Y-77351095D01*
X197785952Y-77398714D01*
X198357380Y-77970142D01*
X198357380Y-77351095D01*
X217407380Y-79827285D02*
X216407380Y-79827285D01*
X216407380Y-79589190D01*
X216455000Y-79446333D01*
X216550238Y-79351095D01*
X216645476Y-79303476D01*
X216835952Y-79255857D01*
X216978809Y-79255857D01*
X217169285Y-79303476D01*
X217264523Y-79351095D01*
X217359761Y-79446333D01*
X217407380Y-79589190D01*
X217407380Y-79827285D01*
X217407380Y-78303476D02*
X217407380Y-78874904D01*
X217407380Y-78589190D02*
X216407380Y-78589190D01*
X216550238Y-78684428D01*
X216645476Y-78779666D01*
X216693095Y-78874904D01*
X216407380Y-77970142D02*
X216407380Y-77351095D01*
X216788333Y-77684428D01*
X216788333Y-77541571D01*
X216835952Y-77446333D01*
X216883571Y-77398714D01*
X216978809Y-77351095D01*
X217216904Y-77351095D01*
X217312142Y-77398714D01*
X217359761Y-77446333D01*
X217407380Y-77541571D01*
X217407380Y-77827285D01*
X217359761Y-77922523D01*
X217312142Y-77970142D01*
X229925714Y-84057380D02*
X229925714Y-83057380D01*
X230163809Y-83057380D01*
X230306666Y-83105000D01*
X230401904Y-83200238D01*
X230449523Y-83295476D01*
X230497142Y-83485952D01*
X230497142Y-83628809D01*
X230449523Y-83819285D01*
X230401904Y-83914523D01*
X230306666Y-84009761D01*
X230163809Y-84057380D01*
X229925714Y-84057380D01*
X231449523Y-84057380D02*
X230878095Y-84057380D01*
X231163809Y-84057380D02*
X231163809Y-83057380D01*
X231068571Y-83200238D01*
X230973333Y-83295476D01*
X230878095Y-83343095D01*
X232306666Y-83390714D02*
X232306666Y-84057380D01*
X232068571Y-83009761D02*
X231830476Y-83724047D01*
X232449523Y-83724047D01*
X130738714Y-88233880D02*
X130738714Y-87233880D01*
X130976809Y-87233880D01*
X131119666Y-87281500D01*
X131214904Y-87376738D01*
X131262523Y-87471976D01*
X131310142Y-87662452D01*
X131310142Y-87805309D01*
X131262523Y-87995785D01*
X131214904Y-88091023D01*
X131119666Y-88186261D01*
X130976809Y-88233880D01*
X130738714Y-88233880D01*
X132262523Y-88233880D02*
X131691095Y-88233880D01*
X131976809Y-88233880D02*
X131976809Y-87233880D01*
X131881571Y-87376738D01*
X131786333Y-87471976D01*
X131691095Y-87519595D01*
X133167285Y-87233880D02*
X132691095Y-87233880D01*
X132643476Y-87710071D01*
X132691095Y-87662452D01*
X132786333Y-87614833D01*
X133024428Y-87614833D01*
X133119666Y-87662452D01*
X133167285Y-87710071D01*
X133214904Y-87805309D01*
X133214904Y-88043404D01*
X133167285Y-88138642D01*
X133119666Y-88186261D01*
X133024428Y-88233880D01*
X132786333Y-88233880D01*
X132691095Y-88186261D01*
X132643476Y-88138642D01*
X141207380Y-98877285D02*
X140207380Y-98877285D01*
X140207380Y-98639190D01*
X140255000Y-98496333D01*
X140350238Y-98401095D01*
X140445476Y-98353476D01*
X140635952Y-98305857D01*
X140778809Y-98305857D01*
X140969285Y-98353476D01*
X141064523Y-98401095D01*
X141159761Y-98496333D01*
X141207380Y-98639190D01*
X141207380Y-98877285D01*
X141207380Y-97353476D02*
X141207380Y-97924904D01*
X141207380Y-97639190D02*
X140207380Y-97639190D01*
X140350238Y-97734428D01*
X140445476Y-97829666D01*
X140493095Y-97924904D01*
X140207380Y-96496333D02*
X140207380Y-96686809D01*
X140255000Y-96782047D01*
X140302619Y-96829666D01*
X140445476Y-96924904D01*
X140635952Y-96972523D01*
X141016904Y-96972523D01*
X141112142Y-96924904D01*
X141159761Y-96877285D01*
X141207380Y-96782047D01*
X141207380Y-96591571D01*
X141159761Y-96496333D01*
X141112142Y-96448714D01*
X141016904Y-96401095D01*
X140778809Y-96401095D01*
X140683571Y-96448714D01*
X140635952Y-96496333D01*
X140588333Y-96591571D01*
X140588333Y-96782047D01*
X140635952Y-96877285D01*
X140683571Y-96924904D01*
X140778809Y-96972523D01*
X160257380Y-98877285D02*
X159257380Y-98877285D01*
X159257380Y-98639190D01*
X159305000Y-98496333D01*
X159400238Y-98401095D01*
X159495476Y-98353476D01*
X159685952Y-98305857D01*
X159828809Y-98305857D01*
X160019285Y-98353476D01*
X160114523Y-98401095D01*
X160209761Y-98496333D01*
X160257380Y-98639190D01*
X160257380Y-98877285D01*
X160257380Y-97353476D02*
X160257380Y-97924904D01*
X160257380Y-97639190D02*
X159257380Y-97639190D01*
X159400238Y-97734428D01*
X159495476Y-97829666D01*
X159543095Y-97924904D01*
X159257380Y-97020142D02*
X159257380Y-96353476D01*
X160257380Y-96782047D01*
X179307380Y-98877285D02*
X178307380Y-98877285D01*
X178307380Y-98639190D01*
X178355000Y-98496333D01*
X178450238Y-98401095D01*
X178545476Y-98353476D01*
X178735952Y-98305857D01*
X178878809Y-98305857D01*
X179069285Y-98353476D01*
X179164523Y-98401095D01*
X179259761Y-98496333D01*
X179307380Y-98639190D01*
X179307380Y-98877285D01*
X179307380Y-97353476D02*
X179307380Y-97924904D01*
X179307380Y-97639190D02*
X178307380Y-97639190D01*
X178450238Y-97734428D01*
X178545476Y-97829666D01*
X178593095Y-97924904D01*
X178735952Y-96782047D02*
X178688333Y-96877285D01*
X178640714Y-96924904D01*
X178545476Y-96972523D01*
X178497857Y-96972523D01*
X178402619Y-96924904D01*
X178355000Y-96877285D01*
X178307380Y-96782047D01*
X178307380Y-96591571D01*
X178355000Y-96496333D01*
X178402619Y-96448714D01*
X178497857Y-96401095D01*
X178545476Y-96401095D01*
X178640714Y-96448714D01*
X178688333Y-96496333D01*
X178735952Y-96591571D01*
X178735952Y-96782047D01*
X178783571Y-96877285D01*
X178831190Y-96924904D01*
X178926428Y-96972523D01*
X179116904Y-96972523D01*
X179212142Y-96924904D01*
X179259761Y-96877285D01*
X179307380Y-96782047D01*
X179307380Y-96591571D01*
X179259761Y-96496333D01*
X179212142Y-96448714D01*
X179116904Y-96401095D01*
X178926428Y-96401095D01*
X178831190Y-96448714D01*
X178783571Y-96496333D01*
X178735952Y-96591571D01*
X198357380Y-98877285D02*
X197357380Y-98877285D01*
X197357380Y-98639190D01*
X197405000Y-98496333D01*
X197500238Y-98401095D01*
X197595476Y-98353476D01*
X197785952Y-98305857D01*
X197928809Y-98305857D01*
X198119285Y-98353476D01*
X198214523Y-98401095D01*
X198309761Y-98496333D01*
X198357380Y-98639190D01*
X198357380Y-98877285D01*
X198357380Y-97353476D02*
X198357380Y-97924904D01*
X198357380Y-97639190D02*
X197357380Y-97639190D01*
X197500238Y-97734428D01*
X197595476Y-97829666D01*
X197643095Y-97924904D01*
X198357380Y-96877285D02*
X198357380Y-96686809D01*
X198309761Y-96591571D01*
X198262142Y-96543952D01*
X198119285Y-96448714D01*
X197928809Y-96401095D01*
X197547857Y-96401095D01*
X197452619Y-96448714D01*
X197405000Y-96496333D01*
X197357380Y-96591571D01*
X197357380Y-96782047D01*
X197405000Y-96877285D01*
X197452619Y-96924904D01*
X197547857Y-96972523D01*
X197785952Y-96972523D01*
X197881190Y-96924904D01*
X197928809Y-96877285D01*
X197976428Y-96782047D01*
X197976428Y-96591571D01*
X197928809Y-96496333D01*
X197881190Y-96448714D01*
X197785952Y-96401095D01*
X217407380Y-98877285D02*
X216407380Y-98877285D01*
X216407380Y-98639190D01*
X216455000Y-98496333D01*
X216550238Y-98401095D01*
X216645476Y-98353476D01*
X216835952Y-98305857D01*
X216978809Y-98305857D01*
X217169285Y-98353476D01*
X217264523Y-98401095D01*
X217359761Y-98496333D01*
X217407380Y-98639190D01*
X217407380Y-98877285D01*
X216502619Y-97924904D02*
X216455000Y-97877285D01*
X216407380Y-97782047D01*
X216407380Y-97543952D01*
X216455000Y-97448714D01*
X216502619Y-97401095D01*
X216597857Y-97353476D01*
X216693095Y-97353476D01*
X216835952Y-97401095D01*
X217407380Y-97972523D01*
X217407380Y-97353476D01*
X216407380Y-96734428D02*
X216407380Y-96639190D01*
X216455000Y-96543952D01*
X216502619Y-96496333D01*
X216597857Y-96448714D01*
X216788333Y-96401095D01*
X217026428Y-96401095D01*
X217216904Y-96448714D01*
X217312142Y-96496333D01*
X217359761Y-96543952D01*
X217407380Y-96639190D01*
X217407380Y-96734428D01*
X217359761Y-96829666D01*
X217312142Y-96877285D01*
X217216904Y-96924904D01*
X217026428Y-96972523D01*
X216788333Y-96972523D01*
X216597857Y-96924904D01*
X216502619Y-96877285D01*
X216455000Y-96829666D01*
X216407380Y-96734428D01*
X240593714Y-101710380D02*
X240593714Y-100710380D01*
X240831809Y-100710380D01*
X240974666Y-100758000D01*
X241069904Y-100853238D01*
X241117523Y-100948476D01*
X241165142Y-101138952D01*
X241165142Y-101281809D01*
X241117523Y-101472285D01*
X241069904Y-101567523D01*
X240974666Y-101662761D01*
X240831809Y-101710380D01*
X240593714Y-101710380D01*
X241546095Y-100805619D02*
X241593714Y-100758000D01*
X241688952Y-100710380D01*
X241927047Y-100710380D01*
X242022285Y-100758000D01*
X242069904Y-100805619D01*
X242117523Y-100900857D01*
X242117523Y-100996095D01*
X242069904Y-101138952D01*
X241498476Y-101710380D01*
X242117523Y-101710380D01*
X243069904Y-101710380D02*
X242498476Y-101710380D01*
X242784190Y-101710380D02*
X242784190Y-100710380D01*
X242688952Y-100853238D01*
X242593714Y-100948476D01*
X242498476Y-100996095D01*
X206430714Y-107728380D02*
X206430714Y-106728380D01*
X206668809Y-106728380D01*
X206811666Y-106776000D01*
X206906904Y-106871238D01*
X206954523Y-106966476D01*
X207002142Y-107156952D01*
X207002142Y-107299809D01*
X206954523Y-107490285D01*
X206906904Y-107585523D01*
X206811666Y-107680761D01*
X206668809Y-107728380D01*
X206430714Y-107728380D01*
X207383095Y-106823619D02*
X207430714Y-106776000D01*
X207525952Y-106728380D01*
X207764047Y-106728380D01*
X207859285Y-106776000D01*
X207906904Y-106823619D01*
X207954523Y-106918857D01*
X207954523Y-107014095D01*
X207906904Y-107156952D01*
X207335476Y-107728380D01*
X207954523Y-107728380D01*
X208335476Y-106823619D02*
X208383095Y-106776000D01*
X208478333Y-106728380D01*
X208716428Y-106728380D01*
X208811666Y-106776000D01*
X208859285Y-106823619D01*
X208906904Y-106918857D01*
X208906904Y-107014095D01*
X208859285Y-107156952D01*
X208287857Y-107728380D01*
X208906904Y-107728380D01*
X226115714Y-103488380D02*
X226115714Y-102488380D01*
X226353809Y-102488380D01*
X226496666Y-102536000D01*
X226591904Y-102631238D01*
X226639523Y-102726476D01*
X226687142Y-102916952D01*
X226687142Y-103059809D01*
X226639523Y-103250285D01*
X226591904Y-103345523D01*
X226496666Y-103440761D01*
X226353809Y-103488380D01*
X226115714Y-103488380D01*
X227068095Y-102583619D02*
X227115714Y-102536000D01*
X227210952Y-102488380D01*
X227449047Y-102488380D01*
X227544285Y-102536000D01*
X227591904Y-102583619D01*
X227639523Y-102678857D01*
X227639523Y-102774095D01*
X227591904Y-102916952D01*
X227020476Y-103488380D01*
X227639523Y-103488380D01*
X227972857Y-102488380D02*
X228591904Y-102488380D01*
X228258571Y-102869333D01*
X228401428Y-102869333D01*
X228496666Y-102916952D01*
X228544285Y-102964571D01*
X228591904Y-103059809D01*
X228591904Y-103297904D01*
X228544285Y-103393142D01*
X228496666Y-103440761D01*
X228401428Y-103488380D01*
X228115714Y-103488380D01*
X228020476Y-103440761D01*
X227972857Y-103393142D01*
X252849786Y-54903809D02*
X252964072Y-54941904D01*
X253154548Y-54941904D01*
X253230739Y-54903809D01*
X253268834Y-54865714D01*
X253306929Y-54789523D01*
X253306929Y-54713333D01*
X253268834Y-54637142D01*
X253230739Y-54599047D01*
X253154548Y-54560952D01*
X253002167Y-54522857D01*
X252925977Y-54484761D01*
X252887881Y-54446666D01*
X252849786Y-54370476D01*
X252849786Y-54294285D01*
X252887881Y-54218095D01*
X252925977Y-54180000D01*
X253002167Y-54141904D01*
X253192643Y-54141904D01*
X253306929Y-54180000D01*
X253535500Y-54141904D02*
X253992643Y-54141904D01*
X253764072Y-54941904D02*
X253764072Y-54141904D01*
X241579476Y-54210000D02*
X241503285Y-54171904D01*
X241389000Y-54171904D01*
X241274714Y-54210000D01*
X241198523Y-54286190D01*
X241160428Y-54362380D01*
X241122333Y-54514761D01*
X241122333Y-54629047D01*
X241160428Y-54781428D01*
X241198523Y-54857619D01*
X241274714Y-54933809D01*
X241389000Y-54971904D01*
X241465190Y-54971904D01*
X241579476Y-54933809D01*
X241617571Y-54895714D01*
X241617571Y-54629047D01*
X241465190Y-54629047D01*
X241960428Y-54971904D02*
X241960428Y-54171904D01*
X242417571Y-54971904D01*
X242417571Y-54171904D01*
X242798523Y-54971904D02*
X242798523Y-54171904D01*
X242989000Y-54171904D01*
X243103285Y-54210000D01*
X243179476Y-54286190D01*
X243217571Y-54362380D01*
X243255666Y-54514761D01*
X243255666Y-54629047D01*
X243217571Y-54781428D01*
X243179476Y-54857619D01*
X243103285Y-54933809D01*
X242989000Y-54971904D01*
X242798523Y-54971904D01*
X252787190Y-74872857D02*
X252901476Y-74910952D01*
X252939571Y-74949047D01*
X252977666Y-75025238D01*
X252977666Y-75139523D01*
X252939571Y-75215714D01*
X252901476Y-75253809D01*
X252825285Y-75291904D01*
X252520523Y-75291904D01*
X252520523Y-74491904D01*
X252787190Y-74491904D01*
X252863380Y-74530000D01*
X252901476Y-74568095D01*
X252939571Y-74644285D01*
X252939571Y-74720476D01*
X252901476Y-74796666D01*
X252863380Y-74834761D01*
X252787190Y-74872857D01*
X252520523Y-74872857D01*
X253282428Y-74568095D02*
X253320523Y-74530000D01*
X253396714Y-74491904D01*
X253587190Y-74491904D01*
X253663380Y-74530000D01*
X253701476Y-74568095D01*
X253739571Y-74644285D01*
X253739571Y-74720476D01*
X253701476Y-74834761D01*
X253244333Y-75291904D01*
X253739571Y-75291904D01*
X252844333Y-67252857D02*
X252577666Y-67252857D01*
X252577666Y-67671904D02*
X252577666Y-66871904D01*
X252958619Y-66871904D01*
X253187190Y-66871904D02*
X253720523Y-66871904D01*
X253377666Y-67671904D01*
X252844333Y-64712857D02*
X252577666Y-64712857D01*
X252577666Y-65131904D02*
X252577666Y-64331904D01*
X252958619Y-64331904D01*
X253606238Y-64331904D02*
X253453857Y-64331904D01*
X253377666Y-64370000D01*
X253339571Y-64408095D01*
X253263380Y-64522380D01*
X253225285Y-64674761D01*
X253225285Y-64979523D01*
X253263380Y-65055714D01*
X253301476Y-65093809D01*
X253377666Y-65131904D01*
X253530047Y-65131904D01*
X253606238Y-65093809D01*
X253644333Y-65055714D01*
X253682428Y-64979523D01*
X253682428Y-64789047D01*
X253644333Y-64712857D01*
X253606238Y-64674761D01*
X253530047Y-64636666D01*
X253377666Y-64636666D01*
X253301476Y-64674761D01*
X253263380Y-64712857D01*
X253225285Y-64789047D01*
X252844333Y-62172857D02*
X252577666Y-62172857D01*
X252577666Y-62591904D02*
X252577666Y-61791904D01*
X252958619Y-61791904D01*
X253644333Y-61791904D02*
X253263380Y-61791904D01*
X253225285Y-62172857D01*
X253263380Y-62134761D01*
X253339571Y-62096666D01*
X253530047Y-62096666D01*
X253606238Y-62134761D01*
X253644333Y-62172857D01*
X253682428Y-62249047D01*
X253682428Y-62439523D01*
X253644333Y-62515714D01*
X253606238Y-62553809D01*
X253530047Y-62591904D01*
X253339571Y-62591904D01*
X253263380Y-62553809D01*
X253225285Y-62515714D01*
X252849786Y-54903809D02*
X252964072Y-54941904D01*
X253154548Y-54941904D01*
X253230739Y-54903809D01*
X253268834Y-54865714D01*
X253306929Y-54789523D01*
X253306929Y-54713333D01*
X253268834Y-54637142D01*
X253230739Y-54599047D01*
X253154548Y-54560952D01*
X253002167Y-54522857D01*
X252925977Y-54484761D01*
X252887881Y-54446666D01*
X252849786Y-54370476D01*
X252849786Y-54294285D01*
X252887881Y-54218095D01*
X252925977Y-54180000D01*
X253002167Y-54141904D01*
X253192643Y-54141904D01*
X253306929Y-54180000D01*
X253535500Y-54141904D02*
X253992643Y-54141904D01*
X253764072Y-54941904D02*
X253764072Y-54141904D01*
X252501476Y-51670000D02*
X252425285Y-51631904D01*
X252311000Y-51631904D01*
X252196714Y-51670000D01*
X252120523Y-51746190D01*
X252082428Y-51822380D01*
X252044333Y-51974761D01*
X252044333Y-52089047D01*
X252082428Y-52241428D01*
X252120523Y-52317619D01*
X252196714Y-52393809D01*
X252311000Y-52431904D01*
X252387190Y-52431904D01*
X252501476Y-52393809D01*
X252539571Y-52355714D01*
X252539571Y-52089047D01*
X252387190Y-52089047D01*
X252882428Y-52431904D02*
X252882428Y-51631904D01*
X253339571Y-52431904D01*
X253339571Y-51631904D01*
X253720523Y-52431904D02*
X253720523Y-51631904D01*
X253911000Y-51631904D01*
X254025285Y-51670000D01*
X254101476Y-51746190D01*
X254139571Y-51822380D01*
X254177666Y-51974761D01*
X254177666Y-52089047D01*
X254139571Y-52241428D01*
X254101476Y-52317619D01*
X254025285Y-52393809D01*
X253911000Y-52431904D01*
X253720523Y-52431904D01*
X252844333Y-62172857D02*
X252577666Y-62172857D01*
X252577666Y-62591904D02*
X252577666Y-61791904D01*
X252958619Y-61791904D01*
X253644333Y-61791904D02*
X253263380Y-61791904D01*
X253225285Y-62172857D01*
X253263380Y-62134761D01*
X253339571Y-62096666D01*
X253530047Y-62096666D01*
X253606238Y-62134761D01*
X253644333Y-62172857D01*
X253682428Y-62249047D01*
X253682428Y-62439523D01*
X253644333Y-62515714D01*
X253606238Y-62553809D01*
X253530047Y-62591904D01*
X253339571Y-62591904D01*
X253263380Y-62553809D01*
X253225285Y-62515714D01*
X252844333Y-64712857D02*
X252577666Y-64712857D01*
X252577666Y-65131904D02*
X252577666Y-64331904D01*
X252958619Y-64331904D01*
X253606238Y-64331904D02*
X253453857Y-64331904D01*
X253377666Y-64370000D01*
X253339571Y-64408095D01*
X253263380Y-64522380D01*
X253225285Y-64674761D01*
X253225285Y-64979523D01*
X253263380Y-65055714D01*
X253301476Y-65093809D01*
X253377666Y-65131904D01*
X253530047Y-65131904D01*
X253606238Y-65093809D01*
X253644333Y-65055714D01*
X253682428Y-64979523D01*
X253682428Y-64789047D01*
X253644333Y-64712857D01*
X253606238Y-64674761D01*
X253530047Y-64636666D01*
X253377666Y-64636666D01*
X253301476Y-64674761D01*
X253263380Y-64712857D01*
X253225285Y-64789047D01*
X252844333Y-67252857D02*
X252577666Y-67252857D01*
X252577666Y-67671904D02*
X252577666Y-66871904D01*
X252958619Y-66871904D01*
X253187190Y-66871904D02*
X253720523Y-66871904D01*
X253377666Y-67671904D01*
X252787190Y-74872857D02*
X252901476Y-74910952D01*
X252939571Y-74949047D01*
X252977666Y-75025238D01*
X252977666Y-75139523D01*
X252939571Y-75215714D01*
X252901476Y-75253809D01*
X252825285Y-75291904D01*
X252520523Y-75291904D01*
X252520523Y-74491904D01*
X252787190Y-74491904D01*
X252863380Y-74530000D01*
X252901476Y-74568095D01*
X252939571Y-74644285D01*
X252939571Y-74720476D01*
X252901476Y-74796666D01*
X252863380Y-74834761D01*
X252787190Y-74872857D01*
X252520523Y-74872857D01*
X253282428Y-74568095D02*
X253320523Y-74530000D01*
X253396714Y-74491904D01*
X253587190Y-74491904D01*
X253663380Y-74530000D01*
X253701476Y-74568095D01*
X253739571Y-74644285D01*
X253739571Y-74720476D01*
X253701476Y-74834761D01*
X253244333Y-75291904D01*
X253739571Y-75291904D01*
M02*
