M48
; DRILL file {KiCad (6.0.0-rc1-dev-1668-g04a478f85)} date Wednesday, April 17, 2019 at 01:04:49 AM
; FORMAT={-:-/ absolute / inch / decimal}
; #@! TF.CreationDate,2019-04-17T01:04:49-07:00
; #@! TF.GenerationSoftware,Kicad,Pcbnew,(6.0.0-rc1-dev-1668-g04a478f85)
; #@! TF.FileFunction,Plated,1,2,PTH
FMAT,2
INCH
T1C0.0157
T2C0.0315
T3C0.0354
T4C0.0394
T5C0.0430
T6C0.0472
T7C0.0579
T8C0.0591
%
G90
G05
T1
X9.4272Y-4.8222
T2
X6.375Y-2.195
X6.375Y-2.495
X8.95Y-3.375
X9.25Y-3.375
X8.7Y-4.14
X9.0Y-4.14
X8.625Y-3.695
X8.625Y-3.995
X9.37Y-4.07
X9.67Y-4.07
X8.25Y-4.14
X8.55Y-4.14
X5.045Y-3.3725
X5.345Y-3.3725
X5.625Y-3.695
X5.625Y-3.995
X6.375Y-3.695
X6.375Y-3.995
X7.125Y-3.695
X7.125Y-3.995
X7.875Y-3.695
X7.875Y-3.995
X5.4775Y-3.3725
X5.7775Y-3.3725
X8.625Y-2.62
X8.925Y-2.62
X7.875Y-2.945
X7.875Y-3.245
X5.3248Y-2.6253
X5.6248Y-2.6253
X5.625Y-2.945
X5.625Y-3.245
X7.875Y-2.195
X7.875Y-2.495
X7.125Y-2.195
X7.125Y-2.495
X8.625Y-2.945
X8.625Y-3.245
X6.375Y-2.945
X6.375Y-3.245
X5.625Y-2.192
X5.625Y-2.492
X7.125Y-2.945
X7.125Y-3.245
X8.625Y-2.195
X8.625Y-2.495
T4
X9.4284Y-4.1732
X9.4284Y-4.4803
X9.5536Y-4.1732
X9.5536Y-4.4803
X9.815Y-4.2
X9.915Y-4.2
X10.015Y-4.2
X9.709Y-4.765
X10.016Y-4.765
T5
X9.45Y-1.95
X9.45Y-2.05
X9.45Y-2.15
X9.45Y-2.25
X9.45Y-2.35
X9.45Y-2.45
X9.45Y-2.55
X9.45Y-2.65
X9.45Y-2.75
X9.45Y-2.85
X9.45Y-2.95
X9.45Y-3.05
X10.05Y-1.95
X10.05Y-2.05
X10.05Y-2.15
X10.05Y-2.25
X10.05Y-2.35
X10.05Y-2.45
X10.05Y-2.55
X10.05Y-2.65
X10.05Y-2.75
X10.05Y-2.85
X10.05Y-2.95
X10.05Y-3.05
T7
X8.475Y-4.6078
X8.775Y-4.6
T8
X5.85Y-2.15
X6.15Y-2.15
X6.6Y-2.15
X6.9Y-2.15
X7.35Y-2.15
X7.65Y-2.15
X8.1Y-2.15
X8.4Y-2.15
X5.1Y-2.15
X5.4Y-2.15
X8.85Y-2.15
X9.15Y-2.15
X8.85Y-2.9
X9.15Y-2.9
X5.85Y-2.9
X6.15Y-2.9
X6.6Y-2.9
X6.9Y-2.9
X7.35Y-2.9
X7.65Y-2.9
X8.1Y-2.9
X8.4Y-2.9
X9.6Y-2.9
X9.9Y-2.9
X5.1Y-3.65
X5.4Y-3.65
X5.85Y-3.65
X6.15Y-3.65
X6.6Y-3.65
X6.9Y-3.65
X7.35Y-3.65
X7.65Y-3.65
X8.1Y-3.65
X8.4Y-3.65
X8.85Y-3.65
X9.15Y-3.65
X9.6Y-3.65
X9.9Y-3.65
X8.1Y-4.4
X8.4Y-4.4
X9.6Y-2.15
X9.9Y-2.15
X5.1Y-2.9
X5.4Y-2.9
X8.85Y-4.4
X9.15Y-4.4
T3
G00X9.688Y-4.4344
M15
G01X9.6722Y-4.4344
M16
G05
G00X9.7313Y-4.6156
M15
G01X9.7156Y-4.6156
M16
G05
G00X9.8888Y-4.6156
M15
G01X9.873Y-4.6156
M16
G05
G00X10.0069Y-4.6156
M15
G01X9.9911Y-4.6156
M16
G05
G00X9.6722Y-4.5156
M15
G01X9.688Y-4.5156
M16
G05
G00X9.7156Y-4.3344
M15
G01X9.7313Y-4.3344
M16
G05
G00X9.873Y-4.3344
M15
G01X9.8888Y-4.3344
M16
G05
G00X9.9911Y-4.3344
M15
G01X10.0069Y-4.3344
M16
G05
T6
G00X5.7959Y-2.098
M15
G01X5.8012Y-2.0921
M16
G05
G00X6.0Y-2.032
M15
G01X6.0Y-2.0517
M16
G05
G00X6.2041Y-2.098
M15
G01X6.1988Y-2.0921
M16
G05
G00X6.5459Y-2.098
M15
G01X6.5512Y-2.0921
M16
G05
G00X6.75Y-2.032
M15
G01X6.75Y-2.0517
M16
G05
G00X6.9541Y-2.098
M15
G01X6.9488Y-2.0921
M16
G05
G00X7.2959Y-2.098
M15
G01X7.3012Y-2.0921
M16
G05
G00X7.5Y-2.032
M15
G01X7.5Y-2.0517
M16
G05
G00X7.7041Y-2.098
M15
G01X7.6988Y-2.0921
M16
G05
G00X8.0459Y-2.098
M15
G01X8.0512Y-2.0921
M16
G05
G00X8.25Y-2.032
M15
G01X8.25Y-2.0517
M16
G05
G00X8.4541Y-2.098
M15
G01X8.4488Y-2.0921
M16
G05
G00X5.0459Y-2.098
M15
G01X5.0512Y-2.0921
M16
G05
G00X5.25Y-2.032
M15
G01X5.25Y-2.0517
M16
G05
G00X5.4541Y-2.098
M15
G01X5.4488Y-2.0921
M16
G05
G00X8.7959Y-2.098
M15
G01X8.8012Y-2.0921
M16
G05
G00X9.0Y-2.032
M15
G01X9.0Y-2.0517
M16
G05
G00X9.2041Y-2.098
M15
G01X9.1988Y-2.0921
M16
G05
G00X8.7959Y-2.848
M15
G01X8.8012Y-2.8421
M16
G05
G00X9.0Y-2.782
M15
G01X9.0Y-2.8017
M16
G05
G00X9.2041Y-2.848
M15
G01X9.1988Y-2.8421
M16
G05
G00X5.7959Y-2.848
M15
G01X5.8012Y-2.8421
M16
G05
G00X6.0Y-2.782
M15
G01X6.0Y-2.8017
M16
G05
G00X6.2041Y-2.848
M15
G01X6.1988Y-2.8421
M16
G05
G00X6.5459Y-2.848
M15
G01X6.5512Y-2.8421
M16
G05
G00X6.75Y-2.782
M15
G01X6.75Y-2.8017
M16
G05
G00X6.9541Y-2.848
M15
G01X6.9488Y-2.8421
M16
G05
G00X7.2959Y-2.848
M15
G01X7.3012Y-2.8421
M16
G05
G00X7.5Y-2.782
M15
G01X7.5Y-2.8017
M16
G05
G00X7.7041Y-2.848
M15
G01X7.6988Y-2.8421
M16
G05
G00X8.0459Y-2.848
M15
G01X8.0512Y-2.8421
M16
G05
G00X8.25Y-2.782
M15
G01X8.25Y-2.8017
M16
G05
G00X8.4541Y-2.848
M15
G01X8.4488Y-2.8421
M16
G05
G00X9.5459Y-2.848
M15
G01X9.5512Y-2.8421
M16
G05
G00X9.75Y-2.782
M15
G01X9.75Y-2.8017
M16
G05
G00X9.9541Y-2.848
M15
G01X9.9488Y-2.8421
M16
G05
G00X5.0459Y-3.598
M15
G01X5.0512Y-3.5921
M16
G05
G00X5.25Y-3.532
M15
G01X5.25Y-3.5517
M16
G05
G00X5.4541Y-3.598
M15
G01X5.4488Y-3.5921
M16
G05
G00X5.7959Y-3.598
M15
G01X5.8012Y-3.5921
M16
G05
G00X6.0Y-3.532
M15
G01X6.0Y-3.5517
M16
G05
G00X6.2041Y-3.598
M15
G01X6.1988Y-3.5921
M16
G05
G00X6.5459Y-3.598
M15
G01X6.5512Y-3.5921
M16
G05
G00X6.75Y-3.532
M15
G01X6.75Y-3.5517
M16
G05
G00X6.9541Y-3.598
M15
G01X6.9488Y-3.5921
M16
G05
G00X7.2959Y-3.598
M15
G01X7.3012Y-3.5921
M16
G05
G00X7.5Y-3.532
M15
G01X7.5Y-3.5517
M16
G05
G00X7.7041Y-3.598
M15
G01X7.6988Y-3.5921
M16
G05
G00X8.0459Y-3.598
M15
G01X8.0512Y-3.5921
M16
G05
G00X8.25Y-3.532
M15
G01X8.25Y-3.5517
M16
G05
G00X8.4541Y-3.598
M15
G01X8.4488Y-3.5921
M16
G05
G00X8.7959Y-3.598
M15
G01X8.8012Y-3.5921
M16
G05
G00X9.0Y-3.532
M15
G01X9.0Y-3.5517
M16
G05
G00X9.2041Y-3.598
M15
G01X9.1988Y-3.5921
M16
G05
G00X9.5459Y-3.598
M15
G01X9.5512Y-3.5921
M16
G05
G00X9.75Y-3.532
M15
G01X9.75Y-3.5517
M16
G05
G00X9.9541Y-3.598
M15
G01X9.9488Y-3.5921
M16
G05
G00X8.0459Y-4.348
M15
G01X8.0512Y-4.3421
M16
G05
G00X8.25Y-4.282
M15
G01X8.25Y-4.3017
M16
G05
G00X8.4541Y-4.348
M15
G01X8.4488Y-4.3421
M16
G05
G00X9.5459Y-2.098
M15
G01X9.5512Y-2.0921
M16
G05
G00X9.75Y-2.032
M15
G01X9.75Y-2.0517
M16
G05
G00X9.9541Y-2.098
M15
G01X9.9488Y-2.0921
M16
G05
G00X5.0459Y-2.848
M15
G01X5.0512Y-2.8421
M16
G05
G00X5.25Y-2.782
M15
G01X5.25Y-2.8017
M16
G05
G00X5.4541Y-2.848
M15
G01X5.4488Y-2.8421
M16
G05
G00X8.7959Y-4.348
M15
G01X8.8012Y-4.3421
M16
G05
G00X9.0Y-4.282
M15
G01X9.0Y-4.3017
M16
G05
G00X9.2041Y-4.348
M15
G01X9.1988Y-4.3421
M16
G05
T7
G00X5.9Y-2.085
M15
G01X5.9Y-2.0445
M16
G05
G00X6.1Y-2.0445
M15
G01X6.1Y-2.085
M16
G05
G00X6.65Y-2.085
M15
G01X6.65Y-2.0445
M16
G05
G00X6.85Y-2.0445
M15
G01X6.85Y-2.085
M16
G05
G00X7.4Y-2.085
M15
G01X7.4Y-2.0445
M16
G05
G00X7.6Y-2.0445
M15
G01X7.6Y-2.085
M16
G05
G00X8.15Y-2.085
M15
G01X8.15Y-2.0445
M16
G05
G00X8.35Y-2.0445
M15
G01X8.35Y-2.085
M16
G05
G00X5.15Y-2.085
M15
G01X5.15Y-2.0445
M16
G05
G00X5.35Y-2.0445
M15
G01X5.35Y-2.085
M16
G05
G00X8.9Y-2.085
M15
G01X8.9Y-2.0445
M16
G05
G00X9.1Y-2.0445
M15
G01X9.1Y-2.085
M16
G05
G00X8.9Y-2.835
M15
G01X8.9Y-2.7945
M16
G05
G00X9.1Y-2.7945
M15
G01X9.1Y-2.835
M16
G05
G00X5.9Y-2.835
M15
G01X5.9Y-2.7945
M16
G05
G00X6.1Y-2.7945
M15
G01X6.1Y-2.835
M16
G05
G00X6.65Y-2.835
M15
G01X6.65Y-2.7945
M16
G05
G00X6.85Y-2.7945
M15
G01X6.85Y-2.835
M16
G05
G00X7.4Y-2.835
M15
G01X7.4Y-2.7945
M16
G05
G00X7.6Y-2.7945
M15
G01X7.6Y-2.835
M16
G05
G00X8.15Y-2.835
M15
G01X8.15Y-2.7945
M16
G05
G00X8.35Y-2.7945
M15
G01X8.35Y-2.835
M16
G05
G00X9.65Y-2.835
M15
G01X9.65Y-2.7945
M16
G05
G00X9.85Y-2.7945
M15
G01X9.85Y-2.835
M16
G05
G00X5.15Y-3.585
M15
G01X5.15Y-3.5445
M16
G05
G00X5.35Y-3.5445
M15
G01X5.35Y-3.585
M16
G05
G00X5.9Y-3.585
M15
G01X5.9Y-3.5445
M16
G05
G00X6.1Y-3.5445
M15
G01X6.1Y-3.585
M16
G05
G00X6.65Y-3.585
M15
G01X6.65Y-3.5445
M16
G05
G00X6.85Y-3.5445
M15
G01X6.85Y-3.585
M16
G05
G00X7.4Y-3.585
M15
G01X7.4Y-3.5445
M16
G05
G00X7.6Y-3.5445
M15
G01X7.6Y-3.585
M16
G05
G00X8.15Y-3.585
M15
G01X8.15Y-3.5445
M16
G05
G00X8.35Y-3.5445
M15
G01X8.35Y-3.585
M16
G05
G00X8.9Y-3.585
M15
G01X8.9Y-3.5445
M16
G05
G00X9.1Y-3.5445
M15
G01X9.1Y-3.585
M16
G05
G00X9.65Y-3.585
M15
G01X9.65Y-3.5445
M16
G05
G00X9.85Y-3.5445
M15
G01X9.85Y-3.585
M16
G05
G00X8.15Y-4.335
M15
G01X8.15Y-4.2945
M16
G05
G00X8.35Y-4.2945
M15
G01X8.35Y-4.335
M16
G05
G00X9.65Y-2.085
M15
G01X9.65Y-2.0445
M16
G05
G00X9.85Y-2.0445
M15
G01X9.85Y-2.085
M16
G05
G00X5.15Y-2.835
M15
G01X5.15Y-2.7945
M16
G05
G00X5.35Y-2.7945
M15
G01X5.35Y-2.835
M16
G05
G00X8.9Y-4.335
M15
G01X8.9Y-4.2945
M16
G05
G00X9.1Y-4.2945
M15
G01X9.1Y-4.335
M16
G05
G00X8.5308Y-4.6725
M15
G01X8.5343Y-4.7227
M16
G05
G00X8.7201Y-4.6697
M15
G01X8.7166Y-4.72
M16
G05
T0
M30
