M48
; DRILL file {KiCad (6.0.0-rc1-dev-1668-g04a478f85)} date Wednesday, April 17, 2019 at 08:28:06 PM
; FORMAT={-:-/ absolute / inch / decimal}
; #@! TF.CreationDate,2019-04-17T20:28:06-07:00
; #@! TF.GenerationSoftware,Kicad,Pcbnew,(6.0.0-rc1-dev-1668-g04a478f85)
; #@! TF.FileFunction,NonPlated,1,2,NPTH
FMAT,2
INCH
T1C0.0315
T2C0.0472
T3C0.0669
T4C0.0689
T5C0.1260
T6C0.1570
%
G90
G05
T1
X9.7864Y-4.525
X10.062Y-4.525
X9.7864Y-4.425
X10.062Y-4.425
T2
X7.2945Y-2.4154
X7.7055Y-2.4154
X8.0445Y-2.4154
X8.4555Y-2.4154
X5.7945Y-3.1654
X6.2055Y-3.1654
X6.5445Y-3.1654
X6.9555Y-3.1654
X6.5445Y-3.9154
X6.9555Y-3.9154
X7.2945Y-3.9154
X7.7055Y-3.9154
X8.0445Y-3.9154
X8.4555Y-3.9154
X9.5445Y-3.9154
X9.9555Y-3.9154
X8.7945Y-2.4154
X9.2055Y-2.4154
X8.7945Y-3.9154
X9.2055Y-3.9154
X8.7945Y-3.1654
X9.2055Y-3.1654
X8.7945Y-4.6654
X9.2055Y-4.6654
X5.0445Y-2.4154
X5.4555Y-2.4154
X5.7945Y-2.4154
X6.2055Y-2.4154
X6.5445Y-2.4154
X6.9555Y-2.4154
X9.5445Y-2.4154
X9.9555Y-2.4154
X5.0445Y-3.1654
X5.4555Y-3.1654
X7.2945Y-3.1654
X7.7055Y-3.1654
X8.0445Y-3.1654
X8.4555Y-3.1654
X9.5445Y-3.1654
X9.9555Y-3.1654
X5.0445Y-3.9154
X5.4555Y-3.9154
X5.7945Y-3.9154
X6.2055Y-3.9154
X8.0445Y-4.6654
X8.4555Y-4.6654
T3
X7.2835Y-2.25
X7.7165Y-2.25
X8.0335Y-2.25
X8.4665Y-2.25
X5.7835Y-3.0
X6.2165Y-3.0
X6.5335Y-3.0
X6.9665Y-3.0
X6.5335Y-3.75
X6.9665Y-3.75
X7.2835Y-3.75
X7.7165Y-3.75
X8.0335Y-3.75
X8.4665Y-3.75
X9.5335Y-3.75
X9.9665Y-3.75
X8.7835Y-2.25
X9.2165Y-2.25
X8.7835Y-3.75
X9.2165Y-3.75
X8.7835Y-3.0
X9.2165Y-3.0
X8.7835Y-4.5
X9.2165Y-4.5
X5.0335Y-2.25
X5.4665Y-2.25
X5.7835Y-2.25
X6.2165Y-2.25
X6.5335Y-2.25
X6.9665Y-2.25
X9.5335Y-2.25
X9.9665Y-2.25
X5.0335Y-3.0
X5.4665Y-3.0
X7.2835Y-3.0
X7.7165Y-3.0
X8.0335Y-3.0
X8.4665Y-3.0
X9.5335Y-3.0
X9.9665Y-3.0
X5.0335Y-3.75
X5.4665Y-3.75
X5.7835Y-3.75
X6.2165Y-3.75
X8.0335Y-4.5
X8.4665Y-4.5
T4
X7.3Y-2.25
X7.7Y-2.25
X8.05Y-2.25
X8.45Y-2.25
X5.8Y-3.0
X6.2Y-3.0
X6.55Y-3.0
X6.95Y-3.0
X6.55Y-3.75
X6.95Y-3.75
X7.3Y-3.75
X7.7Y-3.75
X8.05Y-3.75
X8.45Y-3.75
X9.55Y-3.75
X9.95Y-3.75
X8.8Y-2.25
X9.2Y-2.25
X8.8Y-3.75
X9.2Y-3.75
X8.8Y-3.0
X9.2Y-3.0
X8.8Y-4.5
X9.2Y-4.5
X8.425Y-4.5
X8.825Y-4.5
X5.05Y-2.25
X5.45Y-2.25
X5.8Y-2.25
X6.2Y-2.25
X6.55Y-2.25
X6.95Y-2.25
X9.55Y-2.25
X9.95Y-2.25
X5.05Y-3.0
X5.45Y-3.0
X7.3Y-3.0
X7.7Y-3.0
X8.05Y-3.0
X8.45Y-3.0
X9.55Y-3.0
X9.95Y-3.0
X5.05Y-3.75
X5.45Y-3.75
X5.8Y-3.75
X6.2Y-3.75
X8.05Y-4.5
X8.45Y-4.5
T5
X8.625Y-4.125
X7.875Y-3.375
X6.375Y-3.375
X7.875Y-2.625
X6.375Y-2.625
T6
X7.5Y-2.25
X8.25Y-2.25
X6.0Y-3.0
X6.75Y-3.0
X6.75Y-3.75
X7.5Y-3.75
X8.25Y-3.75
X9.75Y-3.75
X9.0Y-2.25
X9.0Y-3.75
X9.0Y-3.0
X9.0Y-4.5
X8.625Y-4.5
X5.25Y-2.25
X6.0Y-2.25
X6.75Y-2.25
X9.75Y-2.25
X5.25Y-3.0
X7.5Y-3.0
X8.25Y-3.0
X9.75Y-3.0
X5.25Y-3.75
X6.0Y-3.75
X8.25Y-4.5
T0
M30
